<mxfile host="app.diagrams.net" modified="2023-09-28T07:00:27.860Z" agent="Mozilla/5.0 (Windows NT 10.0; Win64; x64) AppleWebKit/537.36 (KHTML, like Gecko) Chrome/117.0.0.0 Safari/537.36" etag="scYOXxhg8bnqSUGY-V_s" version="21.3.2" type="github">
  <diagram name="Page-1" id="CbTcqj-9UZoFOfNo5Y7z">
    <mxGraphModel dx="1562" dy="823" grid="1" gridSize="10" guides="1" tooltips="1" connect="1" arrows="1" fold="1" page="1" pageScale="1" pageWidth="850" pageHeight="1100" math="0" shadow="0">
      <root>
        <mxCell id="0" />
        <mxCell id="1" parent="0" />
        <mxCell id="NXNr_8BULZLECcc48SDQ-1" value="" style="whiteSpace=wrap;html=1;aspect=fixed;" vertex="1" parent="1">
          <mxGeometry x="100" y="200" width="500" height="500" as="geometry" />
        </mxCell>
        <mxCell id="NXNr_8BULZLECcc48SDQ-2" value="" style="shape=image;verticalLabelPosition=bottom;labelBackgroundColor=default;verticalAlign=top;aspect=fixed;imageAspect=0;image=data:image/png,iVBORw0KGgoAAAANSUhEUgAAAQQAAAEGCAYAAACDwOsBAAAAAXNSR0IArs4c6QAAAARnQU1BAACxjwv8YQUAAAAJcEhZcwAADsMAAA7DAcdvqGQAAJXlSURBVHhe7b0Hm+W2ji26O1R3O+ccT5y56Xv//4/cOzMn2j7O8fg4dKrqh7UAkCAFStSuarftqVUFkSIRSG0RIilKuvJAcLjEJS5xCcFVCy9xiUtc4tIhXOISl6i4dAiXuMQlCpZzCNg9PRU6Ozw4Qyjk6Y7LWYdLXOKXgSsWIoL4Fdlcu3a4clX6AhKSApYOQRzAg9t3Doc7tw8P7kiIOFgKnRljBCz90r2EH7lfej2Oxa/hNzwWv+bzV9LhBJzgDG7dPBxugm5pHOmGpUO4e+/w4LvvCh0QnokTAIHVQ4B6rpSiVGh+UdxaoNxSRtGzbmFTT2I7BIJWQ8se9jb1tFizP5IBevaCY+wPZCpqAmIte9g7xjawaV9xrJ5dcgvmmrDUo4JrejZtT2JTT6+wsb+UVnbZutxV4bkivQHpEbBXcHJyuPLkk4fDk08wZBzphqVDuH37cPb1N4cH33x9eIBQ6HB6Xx0BCEOIIgJjFh3BWBE0rFtyhrZwiknRXBiYVmAqgp5ddTin/SJ+jP0g0xTDZGaKQLlGOMhtKbgA+0Rnv2DS/rlsA0FPkduhICv+tHgmDGwpoNwDLTMaOwnDA3EK0jO48txzQs8erjyrYRw2LBzCgx9+ODz4/PPDg8++OJwhFDrcF4eAoQQcAxzCmYhIobRcWemqyhJj6TS6VR+gKdQAu/Sk9nMN1XZSilRPjnXbYyRWFcfqCXIVmtAnV9tJKXbYb2wDA4EtPQBVBD3TMgAiqUDWs3UU6VTPLvsrOLYeVS7XoK4AEQltnuDKtesaf+yxw9WXXjpceVlIwqsvvXg4XJc8Q+4QPvtM6PPDmRDjmEsA3b1zeHD3rjoIFIb/KBSoUVOQpebVaJFra3Gsni25GdvAMXoedd17VD2IlVNpE8fUPcMxei6q7oDq0rpneJj2j9WzJcdfkYKyObkhvYIbh8MN6RkgfOLJw9WXX1aHIOFVCbcdwqefHs4+hVMQQvjD94cD0o0O9+4Jpx1KTkh4EZfFX6ZsVwjI5HocqyeXq3WYsQ1s2f851r2H6vlp6p7hWD0XZz9qWkplen6qugPz9j1VfkNv0hJeeezW4fD444crQgyfflodwSuvHK68Aofw8oZD+P57cwif0hmcffLp4fDtt4cH//qX0LcSlxC9BZuZbB0C0Fah7rXVqHvLKo9kKrY4NHWkeSnTpsw2C5XCNucflbLujUroaOUqlCvP1dQtzRV9kxjxAZWztb1mLS+lc4xyPWekOZfz1D2OLWoaWQMqX2t7TqaFcoxyPWekeSkXU9whCMn/lSeeECfw1OHwlDiCp57SuQNxBldfhUOQUGjbIXzyCR3Bg08t/Orrw6FMMkr4448iiULI4fRbFstSavEb7QbhTdgFYL6SioyQ61G0NQugfbXVoxUJe02GyVFPBpyQkpPZX5FBTiaSJwo3FalcD4pkcolxTxqYGepJVAlW6g6s2M8w+g3n6x4UFNYqs2q7bDqIUC4H5kd4/koSXSEEKSu/BHoEcAKYSMQk4gvPH668+qo4hFctnHUIH39ijkHCL78Sp+D0pQwfxCFoqYS4gWiAq+zTtwC5Y2SAh2GrOTQBM3I/p3r0mLH1cytPhhlbrrvHr7TubM5CdAriEJ4VZ/D884cDHIGEV158kc7g6mvuEF5tHEK9AZnAi9rCCsEAGyE4hUJIivG4P6LI5/EtuZ5nix/kMs4b4z2N0kFrMp7n8RFvpMgzI+M8zrfF7xRlfN/jkXqeEV+kyOfxLbmeZ4sf5DLOG+ORRulOo7yYvqXDKfJ5fEuu59niB7mM88Z4ICRa3NzDAm03oCJ3CANmB7qEJBgsJOmkPj3mRYp5kTdSLxNpjb/f79N7ymRifkY935qM82YycT9S5O9pjb/fjxT5e74+3pPnZTwjGVAvF2mNv9/v03vqZWLeiKLOGO/J8yLFvMgbqZeJtMbf7/fpPVke2qbzsp1mWG/cqUOIIq6YaWJUCXGjgjTREPN6nizNEfN66pHlxbSY7sjysrQeGU+WBsT0Pj9Lc8S8nnpkeTGtz3P0ef1+RMzr80fpQMzrqUeWF9NiuiPLy9J69Dz9fkTM63myNEfM66lHlhfTYrqjy0Pb9P2+rTrW/cHE045BQXEMhFkqhp2QnKVFQlqkrfSMZLPg7dNAWzJ70p32yHlalgfaSs9INilvTANFmVF+nwYa8UZCWqSt9Ixks+Dt00BbMnvSnUZ5a7qckBZpKz0j2Sx4+zTQlkyfbmkFdceHCWv3YLYdwhDuHnqawTEyM4j69uh23j0ygPPukYu8szKzcN3RxhYi7zFye2RmEPXt0e28x8gAx8jtkZlB1LdHt/OO+Wc1ncMhTCCWM6OHBlHe2+rpwjBQ1tvrSTcPB72tnlIkGb1cTw8VYqC319OFYaCst9fTQ4Mo7231NInCPimzzyGYdjfSk0JidsvDc+KfphkKi2wSwh1R3hVdIedRClk0ACC2pJGcZoeEQM5f0xqVlmYUMvxP9w0l2vKUP9HR2lqS81SyLFUsQGxJhZ9/ba5CYlAUcuKfpllQSDYJua2YVsiE27/AInGF8kXinzBVklQjZQkJgUYyoIWcJjR/mmYoLJKzQrIZUssbsmgAQKwl/rkM/2JO4Iw7k1hxCK5lS6PnW3Ey1spi2SHBUnrE1JwjS3d9Snp4yq5SDQIqQ5HpEFNrvMq1HBXxR1GOmFBTGoSERZ4hT0eq0lTduRMZjBAEcDdkK2JCSWwQU3OOJL05i52W0SWcYe43VFSZSglCtnKEBEtZw4hjmR51jn/DBkyLmRLG3Z3YOWQwKyODSZqd8xWZXIcZ1RNqiN7+ojwJZmzN2M/qvkhKeHpMsKSYqvsGD3dn9HTIWPo06omJiVDKk/D16FkmRFKeRV0TpmN0z8gAi98jE/Q0hIxnTHPYPYfQmELpvBCWEfPTwgtG6cBKVm9qG8a4kJtQsJBJsJo3ypR0zyosiDgNMMHSwhgXcpmCjqnZtbQeF/obLhJaRJkVtgWOlXHMnL97dTtNwRin5KaVClZ41x2CC1ppdHfUIasge8fUyyA/IxWulKVN0xoy/iOoL79TRLfLhJ4nA3mOpRXM2M709GJe156KrFGWtoktvqhrB43KGKnwBHS7U3pAMzxDGmErn9B22rbWTijRMXYIC1lJQJqlN/sZBfhul7yJKBfpGBwj19t12gPnT+Wi0o78hOySj0KmY+tETZIID2cR5SItEnrqkCRNYaR2jz7n3SsT5SIdg1SuVxxIf19EQjrg4QDbQ4ZMgRuaQM82KbbKh7w9epz3GJkMe/REHCsXgbw9erZ0ZdjSv8f+CMjbq2evzCzvGnodF6VzVk/k3SMTUfYnFGw4hHUNW/pH+cfK9ThGD9Jm9a/hGNvAsXI9Hpaen9r+GqAj03MRuoFj63Cs3F5kepA21r9mWfPWOIChQ4iCNb6cPxiZWaa0GOVvyfU4Vg/yewI8nMGId0vHsXI9LlrPo7AP3hGtYZQ/IxuxpmcNx8pFgPc89nsCfOagRb8PZGlDh6DMVXW71RBQDt+WPw4pWhql9SSbRX5MyyjKz8oUkvI64S/u97xFd+BZ/AV+p6xMnhZJNguePq2nXsceGdlp6hH3Iz8okwE1f84TKEu7KHLd8U8yKgVep1KewLf4C/xOo7SeZLPIj2kZRflZmUJSXidsK2K+b4GWq8f2HIIroHKEHgwUJ8meNJBIEXn3yM0A+pyGyrv0uOuHYoEkfcS6BZc7Vn6EqG+2HsfIAI2chTMAr9NFoinPSHmS7kl7ytPYsvCiAH1OqfKSGUJBxtpjwiEoqKwYkYj+t1gkLJMSlgUynhm5GaTlwaangG6X4AnVU4c+acC2QCZ3Ecj0bNWj2yWOqTuQpfXoeQbqWzhTTwHdLjFT9y5psZ8h45mRm0FaHk9EuGpoNZOYcwhBT6NSdpqD2iFJIpp0KAi01l06pls1I5Olb8mAzpM30j2SizIjnp5mZfq8Y2QibeVFQprTrJynrVHkX5Pp846RibSVFwlpC+qAlEgZmF42orvEQvIkpnsIikwzCpD8dRXN9knUYBTynbI0p6JjhWSTUp83K9dTL+ckmylak1vT08tlJJuUsrxj5KJMJNlM00huTU+UGZFsUsryjpGLMpFks+Dr05wa2dAGIslmTKH16J/u1XQFc8gf0O061h1CJiSKoynuZBTgu11yRamgwfb9gOw6SAPKdGzp6mWcZLOLMh0g2QzJ8/fIjCjTMaPrWLlIvQ4n2QzJ8/fIjCjTMaPrWLlIUS4S0go5YnwWEFkh2uKOwaMhqcd2DyEoKXrEkFbM9lfQsyxE+oNi+4sDFyg9sAPa4s3yjpEZ0TF6tmRm7W/xjvKOletpS0eWf4xMRlu8o7xj5Xra0sF8PdGVPN4BKZFmEHmLag02laSvYT/7+GO+hl1J4nj9+pdfaQjC15vslU38LgNogMx+/ZaDhPzunH5/jrSi6xKX+FXiwdnhcB/fTj3Vb6eCDF3zJFZbiPBTxujKM88crtor2K/aa9ivvfYaX8N+1cLN7zKsOQQQPuvGhiu05hAyZ0AZVAkicAY3bvBb9f79OdVLRgvXscWSlqFDpmNL7iLsRri+Y+UyXNZ9HcfUHTiv3cokEcTxIeW7+H7qXX5Dld9PtQZN1raJEsMyQMZkQXAIdAbiFNwhuCNwx7DLIZxKHL2CM/tYy4xDaDU6JLGXuX7Cb85decK+O/f4YzKIkVEM9TmfSu8BRNIibOAYuWNtPSz81HUHfi71/ynrDhwrp41WQ2q4d0973UIPvrfvp+IL65JXGzcEIzSh9LYN0Rk8EB1Xn60OgeF5HMKp9RAah4Dwxx9Ko+4dQqvNYYnkvSr/JiO9A35qCt+cQ/i0hD5siLQFsFm0IJQjLZIJjORSmYAi1ykoctMKArZkMoieUR2ANZWNHHaMebroneEit6Ugw6ISgsmCNKJB5ph6bNWhsbVDroE32rMzCSSUHsEDfDMV31C176geTmUYIXmxgVfEuBQjtBHyw5mY7BVxCOgZZA4B4bWjHEIYLvCzbuLBWAhr2F6gVpMjJOLqfxVzBhbeuqXfnHv+ucNVhM89K4WDQxCnAZ1OIyRZMSkvj+BYuQ6xaFtVL0hsLzBjf6sOZbONph7HyFjYYFLP5vEY6enkejUP+zeM9hYsW7ZRuAfiDLzh3r6t30wFffX14UzCw/376jCE3DmYsIURaIMSUJ3ptLCZQ8Cw4WE5BJRgu9F2hRfDV2D8RIYKiOPLtC9JAV98SUMhn1iccggDQKKzPIVj5I619bDwU9b914KfvO5doz38+OPh7PMvhD4/PED4xRfaa8BQAo7hHpxDnWjMYbWgTgQazx2CTyjucQgfiUP4RB3Dgy+/5FDhTLxXfpfBhANarYAUDkOEmzd1EpHDhaf0w5P28Ul+sx6FcydgNi5xiV8VrLGiTTCQ9oR2hg8rOz34UXoNmFy0ScYHcAod0qYhCoujkX86BHEG+Oozhw648BaHoPMI2w7hIziCj8UhoIcQHYI4AzoE+xw8CzTTaNUEhwiPPSZk4bPPHq6+8cbh2ptvHq6++QbjVzBkoE5KWHiJS/yKwOagDRabB999fzj98MPD2T/+ISQh4tIOD3AK0nvgkOLuPTBvozgDJZ9DUIfwgjgEIesd7HcIPmTAcMEdQhgyNDREVe93FDhUEEJBr73zzuHqu+9I+Pbh2ttva+E2HcwlLvErgTS/B999dzh9773D6d/fO5y99/7h9P33ObGItqj0w+GB9BQUG20jOIOlQ7Ahw+tHOATcbmQ3BiGcAJzChTgEdQZXnjSHIM7gqjgFOAY4BejSBRpnOm7Cgo374h1lLFXGU9S5cWAucYlHDjlPMZEuDY5DYdxmR2iL8Di5LiHa3CkcgTiFM3EKdAi462AOgb2F4hCAwbnvTTk6hGwO4SIdAuJxHcK6Q2hUJw5Bui/vSs8gOATOqmLMhEUaDGUMZd0mTL4grhWHXWrF5hKX+JnAznkGsoEzsKHygcNlIcyfcUGehjinM4cAR+BOoXUIQHLeB0fg+1yY5L0DOAZxCNfO4xC4MEmcgPcOGEaHAAwdQgsfLlylQ3iSBXVHUBwCF2mg4YsNhCgPuk/wmBIijtsxsIm/S6dwiZ8XtEGyUaFBovFjnY3QVayzQRwXRjgGCQ9YjCeN3R0Chw3vf3A4w3oEdwjfCS0cwgBozoGuPvtscQgMj3EIpzaHkDuEL3VSEXCnMOsQcCCkZ3DlCXEG6CH0DuHtt7RH8K/vdAwl4dk//6m2v/6aIe50uEOQjZmes3+JSzx82Cw/o+IQbt3kWhteoUnPFQdx5Sm0g6dkOHyvOgSGNofwnbSDczoEziG8ID3x4BAwZIAjOKdD0DsNiO+bQ6hYOoQXzBkEhyDdp7Nv/nl4II7gwT+/5SIN3J9V0nu10SEgnLN+iUs8fLAxeYOUPdxRwzqbqy+BpDFKyG48GirCZ57mswwP1SHI0JzOwB2COAHtJcw4BNwCoTOoDuHsS+kVhF7CQ3MIEmJG9eybbw4PhOgYxObpp58dzj4TglOQkE+DFbvz9i9xiYcONqfQIGVocPXll4XEITAUQjf+uWf1OQOJrzmEMzgDcQrLOYQExbbFYb/cZZBewsNwCOwl9A5hEpw/SB2CDxvgEL7nsODsazgFCb+QngkcwqefimP4lGHfQ9hThktc4qHCGqI3TjqEV14hXXtFnAEW33EIgeX64hiefY5303qHwHkz9BDMIXBSfQZmV8twoNMpwwWuQzCHIM7Ahw47HIKtRWgcgs0hsCFCYr5B1jsMT6pjMIdwPToEeEU4BPRGEH7xhS6QIolTkLDpIVy5atovcYmfAZoGKQ5BesVYiXvtVXEKvirX5hP4DI8QLnDuCNwpnPG2ozkEOIY9Q4Zgn70R2KNDEMLQxXoGxzkEzCdwqCBXajRQOoR4l8HDbehdBvQOlj2E67j9+Pbb4hml8jZfQcIwwcvxiYbsIcTewaT9S1ziocMaIh5eQogLIK/GaICvva5ddWmcV3C1RiMVwtOJ7gjuW6jrEI50CGzSGurjz2YLDiFOKiYOYfXyCrUEdFu0QZq4gqhwB1g/RjxEJOjwg3BJl/SoieclyCBpTCaUR/cDz8OAqS+2J83t6m/XigkeYn0Wqq0DUNOREHoFsaeQkSPLW6MRMt41GiHjdVpDxj+iNWT8TiNkvGs0QsYbaYSMd41GyHjXaFamnJsgBBZa2gPy+f4GeMLbmoZj0Alid0vXpkMoCiwCp9A4hklgZDIlZgeLvBIvMki3A/5Ag5C2DvwI/CF2wuV62otMB2gNGb/THmTyTmvI+EF7kekArQG/eSYD2oML16O705ABg8pkspNFcLluZD+FIiGRXnqkbaqHkAmPFGZoKzMvSU7+eDigegRV2vftqIInI0FqOeN1MqyVssnLdIAMu/UI1mSAkh/t9SQ4So9gTa7Ji3I9CXbrEazJACU/2uppAufWk/EH4kWLKJEQDWlDWAkRWPvZ4xTIajQvteIQeiXc9wIhEOp5MvTOYCgTM3BQ7e1K+nDINX0oBC9W4TpwDfEKNpKkp0Tellb5QcZTZCStoR22q54oW3Wkeiy9yEWijiDnMhkVHUKyv9BleQs9LkMK/EWHyYCiXE9Rh+w3ukZ6ikxnG0Qdmjdju+iS/QVF+7I/pF6Py4B63o6unFQ5puH8tYea/E1jpIC+bWRtZdUpIEsosqQ6LMwwvMvgqxV1HYLebhytVPRXqPXom78uTMItxye5bBMzn3UNwjuH6xLygY6vv9EVilicBNtcf/CZLlCK6xCKfTMQQMujmkPMohGFfSTXo+hptZV679DTYLf9FhTfaRvBcXJ9Caz2O/UU7JDrRYFdtgHqWWpiLdb0jOTQnOwOA+jKY48frnL9wcuHa1yPIHG8LhDvAsF6BLw20BYm+R0Gvcvw7eHM1yF0dxlaq3FPSk27iJp9rEPgHQa704B1CHZ3AXc8pm87wiGU24/BIYCWTzua8BpQuLIGIdx29HchmEOAs+HzC7Z8mY7hM12yjKXLp3HpMs3DeCxArU5bMSFji9z9HlDk2kNTUfQsZSMWjmHBrgkxuchkQFZgXrPeaOnkesR6VLmkHEHPw6l73S4QbAOtunav0ZD9ho2eVrZHU4/CuiIl9rRRKnFhki1Z5mpFxJ+xVYp4NNmWLt+nIxCH8HcJ38c6hG/VERx721EIAZZH0xFIW+PiJLEfnQHCXQ4B9OALcwhhpWJ9dRrC4eExqAl3CHQGcAxchyAOwR6Bvo5nGW7f1oOBxz8RimOgbaxYtJAe2O2WcgzQ1E6wVVSglynwDFOypavo2SlHhELUAWlFScoKa5lpVkycKEhh7+QmRFXkCLkos1n3gcJotuCIslBkh1xokBS7dZPn+dUXcYW2kG8Yf9pCPNx0/3Afjz27U4BD+Gd8lkHC2/scgjslLEyCQyhLlzuHgN4Ch+OGbYeAoYM0xGal4vfaQ5h7EWpVrw7BnYI6BPQK3Clcf1t6COIJuTjpOzkgeNoRXaev6ttom6cdYTa1DZsh3YvQsHY8GZoj45DE1fom4CEWmZ1iizJ6eRo9WSE7Q52aJGEOqMdRdRfslZuu+4Zelys4sjyzdad62YBfCO8Q9beK6wpFfdrRh8182vHevTBceI+9BS5MGvYQrA4F8Tip3egQ9MGmC3YI7BlwyNCuVCxOIUVbcK5UNGfQOoQwZLCPVvg7EVCepscgYeMQsFmYh11JbM1XkN94MozkiCA3EC8oejpbW3IFJjcqD/VkmbMyEwVp9GDHZLZEi1xna8Kkwmw19gOoJ5Snx0hub3mKns7WSA5sbFJCCG/cKD0B7xlwLo1k70SQxl6GDBKqQ8CQwZwBQjoE6M3ghYFNmDXbQuXxZ3cK9j6E4hCErpwc7RAs7OYQ8knFMvoq4Lru6BBefF6cQJhDwJABjV0qjzcm4fNWfPssHYQ5CfROMGRwmwvb0WpWLmCGJ8Mxcg/TVuTpsWbL5R523YGHZevnVh6H8JLdQrn68kLoTgBxvnVcP1+IOIbJ7CFg/gAOgW9MgkNQZ4DJxamnHQXVGXDHnnYMDgE9hP0O4SN1CHgVuzgFjt/D8wVonHW4IEJ9o2w0OvJJxTJkkBBxct7HuxTvHx6c4h2K0mOgc8ArqdVJUH80WewHwyXalc0z+mRPGJQ9h8gs9BgocoRcL1N2o0DgWbUPJHILmWFhTCTYKxCZVduZDLAiRwS5Eu0FLKNJDjup6SPKQ5FMbk0m8COOdyfi9qN9u5QhnAS66QjxTkVpT9pDsCHD+x8Uh8DHn+EYRnMIfTnoDCpdwQRmM2R4qTgDhHMO4SNxCOwdiEOQuDoCOIXqEHhMilMIpWq0KbyvoK9O0wnFdMiAty7jxZNSJJaKlZLeAJ5ulJ5DefnqJS7xs4c1BLQNOAWsqbGXqiItth00+OWQQecQzvwBJz7+HNpZRExGm7EvQoF4e/PiHEI7ZCDhFWrotsfPuIEcjTbs1gT0EPDY89ghvNXcAtGa1gkSreilQ7jELwjePkpb8bWAtV3kDgHrEHwOQagZMoT2BsTd4AzUIXRzCJxU1KcuL8YhSFx7CFZJX3VFYQ0c/SzClceDQ+DCpLyH8ICvYHfCa9hl6MDXsOtQohrqDswlLvGzgZ2jcABxiICQq3DRdhDK+f7999Uh/L3OIUw7BABJMBmcAZo2X5BiDoHvH3noDsHCHr0zwO6ih/DiaA4hOADOIWCSUchey07VMEvupe0ILUUti5TYYltoy9/uzenpbe+x3qM9nnN6Lsr+sXoWF4SjrB+nZ1lmyPU4Rs+cdUpI0+LXzP3ThQiF1DFIujmIOoeQOwSuWGwcgkAMsO31MEeAEMQFUEkP4frFOIQvD6cSogLuCDKH0P+AvpsOGcp3GdQh8Iu4aPhGh9t3Dme4/cjbkPZ6dldvdpPD0pdggUwmw5YeoNd1jEyGY/X83O3P2AaO0fOzqHtpUhKi0WO14mN2mxGvX78hTuGmPhsBwnmtDkHo75hU3HAIoXALpyC21SFI71pCnUMYDxkwl3C0Qzi1cM0hjJwBMOUQTmWI8ONtcQS3OZECR6Bruu3ACHGcRJOwbWEKNe5FqFwjfkdXB8OxerBtObfkelQ9wPns77UNHKOnygDH2z9WT5Vb5zxGz5qMcFJEGyYfisK5boQ4v23Kj7fcOhwkxEWvLEyCQ5CQDsFWKTYOQYvTIDqF6AwQ95WK6hTO4xDgDMwpqEPQ3gFCTCrq3IGMgcwpqJKutN0u7sEWZwCSAnKFIhzCu7YwCT0D0Q+ngxAHozzb8K2GqKwqRBnyLlxr2vdazkyuxcK9Gdb1LGWW9rdtH6+nlYt7HffSgCIt3NI20LMuVS7lUvUJWl1zenKZFiq3Xoqxng37fm4yFMLCJD6zUIm3331tgoToEfvSZQ+5CA/nvi9d9qFyBhZENm5TQnUMiUMoC5PMKRzrEE65FqE6BHcEbJSYHOlL2+0CPACYTDSncE0Kqo4gOAQMEfwjLQjxbQaxewrbRqWHQGeAMqj+ECEuujn3UMlcfiQD9BJbWLfvaPdGdQfIadmltIgwwxysqRtrKZwBlXsk10tsYU5Pu7dZ9wb76wCM6q6tSTbWINET4LJlNEouXRayj7R4yKXLXJQkvYPgENgzEIeAEL2IVaA4sG12eQwk1LcumzNAGfy243kcAp0BegmdQ2icgkGVNSoVklQ+4UanIEMHKeR1PO1oTgEO4QzzBHigCb0CEJ5h+Pzzw6l9pIVPO+IuRGPfbMQfiUVoSxNyxztBrsdSj8QaPUEuiTasPZCZmy1I9WQ7ZFTuqHJhnycOQtvY7xi7oI6lHuMprIEjiS417kOqJ9sho3KHYqzYl5wm06SCcK4nykVmOabYxUbIn3a8hqcd0Rglzqs2egporHja8T6edjRnYEMG7yHokEF6CXey17Av3ZLaV9ugepehdwjmFGYdwv3YQ1hxCIUKGnUKS9I5BDgEdQzXpJB0Bk7iFDhEgBPwh5nwGnZ8H8JewY7QX8POExedk+awJGXxIsWsBn1GJ9ejsA/kemzqSTCSAfbUY00PTh4LCYrjuCLodLmekpzYyjCy34tHjGSAodygPJv2d9RjRgbHFMcTSRKiV4xXsF/Dq9hf05DfZLAHndB7wHJ9OgI6A3UKfA07nYE6Ba5U7M0SXSJtg3QeQYcM5gwQHuMQ7nsPwYjOoBAmFb8XSZ0/KKTSFgaEJI6bxBGoU9A5hOIM3n1XewgyTOAdDXFCnMT8THoFLI+WCY6qcQgkM5AdsbZ6CUsiA/RyPUqde3RyG2pG5lflUpmJesQyezyG5BVymSgboo+07sBCbqDoqN8wkYlJW3WHTSGalg3Oed7me8MaoDTE8ig0LohCD6TxRoeAsFmHgKd/412GtfqbI3BKJxV9uJA4BF5fW1jFhvB81lijRIh7VszusZYXUeqKiO14tJBsRj+U5xWengzcjfsSXyMH9xE6YT8k+P6IIp/Ht+RSPk/CJsDzbREMl9HiVhhueWGSF0/h4UqFkxT3rDGsw71yLLV1p9/Ywb6B+widsB8SfH9ErXCljDfSgs+TsAko+QNycN/iVVmlTKZHwxP5kGbRHll6bBejNuTpJc8idAK2G5L2IHEIE4hGizcKaQy6P+eZRTyuPNAILV53Wmp+lBaxeE5V1CMWN/lUxtHYQdiRRw1jPUYTMkO5hhBIWMpmwL44BC6UgUPAk3aY5MWLOsQhXAsOAQtpuO7e9ZCCfU/TnSV51NDXoegByHuMTIyUBAkkLGXb0hN5LY5doVU5h8tTR6CYjiTC4oXXEKJLqFW1v/wLmUK2H6BJwilhkp1i0iHQosagvOzlYGGdqWeO8RTxCK0cLT+uPMAJwo/C126TtyXp0NnOEiqzzJt/jbfqHvHXdCfA4gMZgOkLuQFMD2XYOwDBIejquaviENhDwCz4iy/qk3EYzmFFnT2E48Rj5bo2AZ5gOwHTmef5Fp+WyXkKNvSM8qBX68poJUGx7zQF57d4wYZ8305iW7K84hQSaM44f4QJh1CsT3mZtZ5ASfYIwgFvhR84HFQQotwYIUC6xTtU9VHGyfJdPtOzJ6+niB15pcxdOkmgZQZ1eR0t9PRDBt4G7ocMklaGDCIjhmpDVKTHrKeIQX6mZ6ruQJYfaEtPQZde5JrzJMvvEPVEGmElqzWCncSqJXdTgIS2QRB2NI1Ysi4w10Mw3QVmzO2WJN/ZwIKLCW1qz4P9nq3h6QQK/wRisVkPi6+B+lcYj9ET41ug/hXeJg8nJl49jh7BMzJEQOPHCz9feYlvAiZhFhxvBMbtMXz/DxNQzz6rt4k5hBAHEbBleyW7QdSzpjMCbOv25xRFPQjnpAZ8rsejjFTOkj4J52W4IVjMSCStuyVtqCGmHEKjqOwgoqRlaLgGqDLxYBEDcZcgPOKJQgwYagfKaR+0DvP1cFS5nmRLjjnYMdQNU+awZj9AHALWz3N1KG53uQN49bUDPkSKmWaGTDPHIM4Cs9N49RfX30uvosXF1v08ci3JZhfs2O+yrdwtmR6SR5YoqXl2i7GaDnYsbC9ikbahc66H0GGps+4xTzZLwob/hIa+NwuXQmiyDIIezwoE20qIt1SBnZqQ8UY9FdjJSNHL9VTR7KS8S9sAEkaEfql2XTmJiKv9c88drr38cnUCJdRPlfOz5XAYwsNeAt4BKA7hcHI9sd/bc1LUMs/UvSZkvFFPBXZ6qqhyHm+pou5kfEpmO6OCmtBk+U5JCLC0ylsTPA3h1DHEvhHzmW6h7XhajbRYOISer1EgFPf7woEqQ0RITPNbkCXqYrwV1Gz7k51CJc8JW0eMKxrZQEvExM7mCsmWEooYV2QyoCU8ccK2cRL0Bxgy3NQ1IM89qx8LQcMXB+CkvQM4A3xQRPLpENBDgEO4xTsTikdZd+AY+x62yGUyeIaeTQuSTUOSVoG9kBLzW8Ygi61TRL8vKZIU7ToRYaekbWDcQ3ANQZMeDkZ2oDKXmEcYbigL2YguuDfEl9gtMMCMnodla0OvZJeZcmxwu1F6CFex7gBLWfGAC1asvYiFMVgxJ8TXhEvvAb0CpL8kISYbn5JeBYcMJ+xpkKZwUXU/FjuP2RBH6AGL0dJBbAMyFaaoYK+2ABNd07AyZOgL4thToBXePWoEZMfG5WJ8iE2GSVyUHuAnKBPaLBuv/Lx2q5HfGMQjt5hYxNDhySd0KIDJRltzgEZ/5Zb0JLA4CWvt0TsAL3oIwse7FCToVlP7cEzdM5ktPaP8vfYvSs+sxIBr2txaeZ2APqyQX3cLqqj0DlIoz5JGCPlrbCMsZFxfTyNkvGs0QsYbaYSMd41GyHhBtqwbDRcNGOsOcJvx5i1de4Bl42j0cBAnN4TH7iBgWAAePHMSH9UlnzgEOA5/ZR4JQpl90AgZ7xqNkPE6rSHjH9EaMn7QT4HMLgiocY15euVYw4RDWKI3uQ+Rf6+s4jip/0ZAQwXZFf3Ktets0Hr117UH2kOQho4rf+khCB8aP+Ya4BCwihF8ksYvGqOnUXoI9AaXWMDbxPISunreZsyrAutQ6zNK2/2BQ3AmV1D3NRbTLgLrurLcmnaR5fgVgT0EW6qMhoweAhwAXnQbeghs6GjkwAkcws3QQ5AhA/jccbiD4TMOKnKJHM1ZuecU9RlCF9oja8hFYmrQ32HgEBQuopMcZc/CkcoV2GxJ1OQ0RpvbdoHWJf/bgAdRNiC8qRrOgA7gMa4jwJ0FhrH7j8Z9esan6PBUHd49wZfn3rvPxq49CjgQ6VHAQTwp8phTkP0DbmFKr0Ntm137bS8hh8JCHJP2sMwfI+fcdVQHv8GedrLqEHo93M3SBvDzxMnTMiB5mZUwM6lyJxwFvf1IDxuZTac9APuICIngB+d9anzMBgZwFefTjNKQ8fgrlyWLU6BDuKlzBeC/d5dOQF9E85U+g4/3WOIFNKVXIU7liSd1gtFXLqJnYbch8VLceo++lOrCAJUZ/RTI7DqNwCxsAk9J2wk5qhYKyaYQU3Pw92/QCYzihqFDSHgLmjwpgJ4QS1LOSkVOIiW+QJajAlRpu5EN6S3l9iPFcj4Mymw6VT7ZG5LpSUlVeVT3LSH0EPhWKjoEvKXnmWVjvntP31spDoFv08Yr6/CFoLNTnVfAA1DiELjCEUueoSvogLny/D3qha0Vo1Ksb6SMN5LySSylVtfDocyuU+WTvUDMTtFnDBkbkKtsjGg3IbABEge5BICkiG63IHcIgbtRGNPN6Cyi/LxUD5Us8kFnxVL7zqJeOMb2R4XK05GqOV2+G8DVGg7hqq1MRA9Bhgv6aHNtzOzuCz96CHiJJ15cy5fSuEOQHgInEL2HAMeCCcZBD0G/FoQdJgUsEgL25Y2P4U+Dsf1xoTSnz8f+WGYBYaXEDhGA7Cw0dws0ndEU60MGIFWoiSt6C/oDWaKIDBVoRsx2/+dpuegytbEt8bj/sLGoe2p7u0DgiFwa9xTbk4DHCJGr0pjxCLP3EHwJ8uNYgnzCOQJ8DIdf1sZrur7++nD6xRdlHgGf5Icqvetgz0CInmtYwAQ9+MYA9UCR/TKLyvX7GTKeNo31CkmMZ2IPCan9BZaJnqJhKjQEuClRNirfl2WEEcuM7LZDaLAs0ZqNvgDlhDWU2IqSRVYmz9hSyfAAjNJ7uFoj6Bvq7DDiy9ORGEn5ir2ENB0RCQE0Tsz+Y/4AE4Lo6tujzegh4JV1uOLzo7niCM7wVutvvuELdE8//UzfW/n5F4dTSeMru27/qEMH6EJP44Xn9XmH+HwDegmYnBTb+n4BK5iXK+z6fkPEMrHs6e4CTB7kNSiKKpXyTGBoP01HolI5z0majADw0LG2X+JbQg5JZ9mG/FlmizmHYDoWeo1K3RuSTc9YYAfN4rsRdPNPohm1QIKSyozlClVu/mlKyB+SbAq/U8WSf0kKRMYUS6YOQQiLjKJD4CvApRFLnL0DUX4mwwK+u1KGCpg7OP3ss8N9cwhnX39zOPtOhg7oPWDoII0ePQS+Mh8PQcG54HYkhhJwCOU1a8tS4S9PxR+LkpJmCi1QM/knzL1sQ5Wz/Glq4BmSbAq/SHK/ouVtyUwkqBlLli5lwYAEJf6Jod4ucguwQyoRoW3s6yGYzm3VS45SLo8bRrpqOqrvsRBiU5nWsThajjUFIwOjdMcyj+ZjpYdw3U6TQHsE4Wodegh8+QmebkQjxthfegi8K/Djj+whnKLxdz0EOgT0HvD1LOkhUBeGHuJU8h6COSJzCvPYWc+jf8MMWzbbfP/p5n7DCucu4Yb4Ml8SeiUN1hQiby0/x5RDoFrXbeHY1DInVrTNlb2xoorCU5nbJGxqXoOxccNIriWoiZRjmdGYHwoiveZFOxQZkmzIAHjDlJ809BCueQ9BHIL2EGTIgFuL6CHw7sKXh/t4szVec49X3suQga/+xpABtx9PrIfw/POH63idOB6GsnckHDA5GXoIRCl4iBotyl/QJrZ7AgobQrQiS5Q0JAdqy4PEDG16z7b9GyotL2MVyxSH5dCGEHct7tEFkkRWEKHuEqnsEisOIdfAVDsoS44kJVejrKO8BGSVTT3QQK8kxgWZ8SRpgU4uE5m5WixYJIF3AZzKK7Mtn7gibUwaGK72mOnHSkNciUFo6CDM/uMuws1b2vCfsKXG0mivvfySPrGI5xDQK8ByZcjCCL6kjXUH33x7OMUXseAUMIkIB3Hnjk0yfn948K0OJ/ixEKTha9woE+zyWQj0PJ7VT4vjwyNwOrgtiXUO6JngLgTKB34vs9cBz1WgTiDr0ZDoVK7ocQXZMSprKyK63RQzIr3eKcUZWrmyJ/przqRuYYucC6k1NX7sOiRJQ6w4hNZ22xAFC+NLq2lBsrQea3IMsVmUyGCpa0dhkRUSOrkVLR1vJ1d2JYKdQDzJSdiPTgGOQJ0Bb/u5M8CSYjyViElB3D1AI78lDe9xOAPpzqMxYoyPdxm88bq+1wCPLktX3+cNHtzDXQUMFf4lQ4WvOaHIxo8PgKDBowz4ruYPPx5OxRFwboHDB1usBB5ptLx7IT0EPjrtH/zA69hwB8KdApyGOQaWFY4BZUdZ8Bg16lScQnAM8AkAnAF6Jwj9mDnxT8BNREiATMCCNaLwLrk6NQWtg0qYkOTJDFF27ikSkV1YyC8VIsUJKBwSKfEEqw6h0TICakpCXMmTLg6dMrNT4PtGeuIskluSDcu4SKho9wZwOTB7FHFC07HLkwiEkzwQnQI5BLxIqkPgwiC5muIjGrjCHk7siktngJ5BWFYsvQH0Cq6LQ7huDuGaOASuTBRZHg/pHeAzeZwfoEOQHgCHBmjsp4EHC5Wk94B1Cfh6Fu44YD5BHAKeoOR7FTAUgb3XXxWCQxBHxKGEPh2JJyrZU0AZ8T5GkeFj1ugpoD6oF8ic3hW+0BWnotSdx0jKciZl8uPkxw5gYL8vN5Fk43yGdm8AyiFUStQswOPVyRXqkaVtINqPqgvJhjwxwVBj+zF2CKY1Kvf4msHzFCZFUagnQQMkdIl77Y/49+oBFjKSwDT79XgS0QkI4etT5WQ3ZjQIcwhoJN5D4HoAPFzEK600MDoE6R2g0aHxYbiAHoI0TDZQ9BDQjYdDgBxUY7iA7j+GCbjylx6CNnaWj0MKcRroIXyFHsLXZfUinAaABs4hA+862OvX2EPwYYOUxx0CnBd6FKWH4MMG9BCc5BRk74DekDbkAJUeQlkajWTNDZEmusBa3gh7ZWbsNzzHFGoHovrefjnVgMgYkDqEygsN+EFsV9DrGehdx6yQ83XhSHxW7RYuSg9P8nLFx1URDVuv8mzMbNBOcmXFG41whUVDlu6+fiH4SX0wCfQMSBodSZwAFgvhLgIaJ96ChCEDGig/KIqrtd0JwG8ojR4N29cfsBeAT43jE2Gn5hDuSg9BHAKdBr+t6ROM5jTQQ5Dyc0k01jfAHnojeHsz39Rsb17Ca9qwIAplxApHEJyIhXz8GvVCHTHPIcTHrFH/rnfBoRLqYE6jfyU8kP1eM79hz3Ps7x7lljpCyjpjRZ+3wjvK8vTYdmew+LYjToD7H350OBXCNx4Zt4+9chGLhP3n4BkKVm1L5pUn5Qfnjy8nh5wQGIde/827hxMhhPjGI05G2qFNu0eOsrA8H7Nc6E667ULnhGvYqgMRzBW5eBhRHpzAgXhi4+qKk9zG1UxnPrrNEvJqibE14p6m++xWI+S+drvJI0MJOgs0MnccaGRwLGxkQtKg7v3t74f7Qh7yd8RTjmjw1lPwxsq7CBJeF+eC3+Tk3bf169zS++BSZ/B7KPKcZ2AIXUJwPiTp9sORWG8Ivxt7Rbj643hZD4nHDjyQwVwHZITObt/hV48xz6G9FDgu9ByE3+X9F5Cg/BYWpvBMZxYguioDJHIpUC7UycoIJ495neuv4/uOSnxFnQy5cP7jDhDqFH+be3/Dx17168/4fXhc47cdE7BYsOuhlYMXDdhxm9KbYzmsPJgD4pDUMO8QzBkg3juE7CA1Sg28+uGqB6dAh/DicQ4BJw/W67v9CWTlmZHs5aasoUxouOgRWDeZdccVEld3hGiodAZK1SH0aaLH47avTkFD9jq8l/EYrrAS+mQe7kJICNz7y18P9/70l8O9PythSMAhxG3pEWCO4O7dooNdfonDAVz/3W8PJ0bX335LG2bfUPEJfxLShMwJuFPgikfOC6AxG9kJq4QhlKTBgaC3Yo6EC6fwJKYR9eO3J0GPhBu4qN8dmPrtISh1Kg0SDiE4AzoEcwZbDoHOGj06OAU5rj3S8rhtiz80h6AN1EJxCNoY5T9plNnBBNgozBnMOQQJP/28lKNxCG4XjsH0jzAqD7AmO5IbyuDHQCjl8nEzewJC157HbTrpWuO2ID6GgncUWCMvjZ1Lj0U2xJlOnhCnk4BDkH04BdjBj0p76GJLHD0IOAvJx/G695//RbqL8D/+i+sNDnja8d5dDaUBlvLaLUOcyDf+7Q+Hk3/74+HGH/5wuP7bd/UqjkYuDZcNH1f0e/d0jgKENDoDbbh1rkQdAU837uvxcqKziHKi5/TTT3XRFC4KEnI+w3sQFpbfIvlR+FsMMPwNBcfKAe4IlORn6h2CNEC+5HbGIUh9+a4KOIbEIQCL8uBYmn2E1zB8ozMwmxfqEDz84fviCHqH0ChzWGLpIVgvAW/2VYfwm3WH4GUROv3w49YhwLTZr6WoSMvTYUquSwhVVuAHsJCNlldpu1JLeP2VVw7X33pD6M3D9TfflB/mZeWzhq5OQOLuCEr9NB9hw+tDCOaZjMclWoBySXfz7v/9D6H/R7ondCpXXzZMb7AgOhqRh5OR8Nqbbxxu/M//IfTvhxv/498PJ3/4vepEmRyobyS7Q4AruIbQ7/lwBBrXk5YKdJ9l0fJw0lUa/P333z/cf0/o/Q8YcpJTnBdvj8KJSYi6lktCLJaFDbrEWA3HphztLVFYrH5KcjijQ0CPS8Jth/B3cwjWO6BDGA8ZYnncGYAQ96dddYgidjccgvz68xAzihJpok28IE3sMWaSallMIFHdj1TRp7S5Y/R8C7lEEY55AQ6+hQ40KN5iw7wBuuByYnACDWN0DBvwOnSfHJQhBMb/nGzDuL/M0ptTsSs/JwjRYHEKoAHhKnlHGod0+9Fr4xUF3WvcIcDqw48/UWf6wT94tUU6u6A4uUSWE4XQ4+Vmo5QGLOnljgNWM4pzxrMO0MNeGlY1cpnz1zo5iTGu2GeX/q7qpjOAWpQXvRUMnVAPzKFI3fiyVzkmtddo8x82pLqG44M0DK04wSiycuJq7yg4PbFRzwlFjQUkic1vKJiSk/2YhHgqB/h5seAaSuTYYM+ym7Sys2136BBaUex5ioUxSRCiFV0iDg//eKAQMtHCpQZPMW7f8dgQyN/i6eH8e+S8yAyw44QUnLQ4gdGgOcaXkx8NAQuKMLbHCc6uufCgoWCdgXXxtdGbTr/KopHhqiiNmRN7uDUoDZLzOp99oV3rj6WhSoO9/48PeXXFlYZzBn/6szoFNGJxGuze4yos+ssVhfYQlTTk4QqP16vBIYgDwBX67n/96XDvL6Lv73Ilw1X7H9JjwzMQyJdu/enn4oS+0NuVdBS4suGuBeYacGXH3IA7IO/5oL6oN44VrlR0Gn5sfP0CblmaQ4RzoUMQeZYbheY/9xn2SBMVoepLjOQkHVmjbOYbT2RCNOyuY5pRQd002gku9CQ8AUOHkKMqKjFRXgoSiCdW93cuQC0DjcBMQbCbEcuSkGwWfP0+qfuTzEKUiaCshOjO4zsHuCLa1VCv/LjqY8JPCGsK7OqvDUJOeHTXcbL7CY+GaVfsA155JmNJOASsJsRtQV690RDFIdz/RK7iGFpJ47/3d3EIf8VE4p+1IUsDRq+BdwTQO0DDtMbJmlg9adPyYAtDi/vS4OEEOA8hDub+X+EQpCv/oTge9hjEKcAh4fHpL+0BKXEInCUvDkHKbj0S2CPMIdARov48FiA7PuYU4vGJDlPLq7Gy5fGvlP1++FNuJf6GHW3KdfyRIl/Zw2YLFM8ZWZ6OZNOSo9+PKMlarh6rDoF6GeFuBySmGYPUOazLeq7aLgelg+ZWGuHC8rwcQiwTICctT2A0/sfDMIAOAT2EesLDKfBDKOwhyE9iJzz1oXFiXA2ngEaFbjl7CLoEmQ8k0SFI7wDdevQQPpCGKlf0e3/9Gx3Cvf+SHgKu6MLH9yZaD6GO7a3MHrc7AmfoIWCmHz2Av7+nE5K4U4Gex3voIahDgMPQyT/0EKTHgh4CZ8m/l/LKUAJ3JGzCkXYBc3ps4LzyC7HRyzFhD8GcQnESkofJUjoEd5j4D2XvsEypGOUhfUsu0hQGjDFZi19TUC/+SdJAfJheQKVG+NegUIYVh2AiooUx311sW2RpY5junRjJIH2vvox/RkcqxyNuhEEuGjbuBnDNAK7+1ti9McBp4AppV0k92asz0KEChgnuBOSKiy48rsC4JYvGh0aIiVf2EKThulPA1VscA3oGcAacQ4AcHmbClfqBXKlLedUk4khjOq7k0s1Ht//0K+mFfCR6McGHeYR/yPADk83eO4Bd0c9hgzsFPgshDusbm2OAXdxLx10E6AdwHOIx4PGSNIDlEgIPwGOGkDvYCFRPccIBy5Qlep4ZmR6QiXJ5fJ/mUh8G2Izls5xFWtGzDTv7jkc0s2rSM/vwnIAapyE2GGLWHj0LOWvoZJNGp88OyJUcq/7wVmOGQriConFiEhD37zEcsAbgPQI4grM7d9n1Rg8AV2OM3+9iTgBXfnTZpWHqFRpddrlKszFKjwG2fAyPHgWGGpiDgF70CgJ0L24NaHMoExwDxv5wTNJDwRAADRzrA9joZZhAR1CckQxZUC44DvQipGdxD/MXGK6gTFJf9nhQT6szgLLhXvsD9CxEL3sdHIKIDUyUYjLUhx/3rYcTnAW1uC5uDc3OEhvZFRN6FnaZ4KlNrqDfX0HRlaNk4fzpeS2+It5g2iHwWk5jHlbiVUWiDToeQPmUNyTPIwhuygbegpgW0wVJkiLjD2l+OAhzCABPWmmMbPTiBHhiR4JTwJXTHYJ33zFnYPf40dXGXAHeV4BGRWcAQpddGprO+mNiz7rtnNiDQxB7aES4h407EJiMRK8ADRG3/lhilJVF1arAdgNkym9lDkrLgyEL7mZI4/zmG9ajzl+IQ2DP5CMpq/ZM7r0nzgATkCin8PD5CV9cBL1eZwA2JO8UQyFMlMLJYYgD54ZhC2ziTor0MsqQp4PWwyNGQJYWkCZHfs/M0npYXslu+EZCijQ3JiIeKaAmWawmeCCosRE2HUJU4c2+NWB7bBlKteG3f/sQdBOdvJrS1GC7UJGPJej+MrlA43r0JHBH4KFckdlDwAkeHQJuCbKXoD0ENAIOC3iPXgTlRC9XZIzhcTdBHAInCv9sqw2lh8A5AjS0D6URYqafXXZpnLiTUHoIGMNLA8TcQ+ghsNTmDFJIHvJxGGJ52GPxHgIaKRouegh0CNI7EMd07x/WQ6BDwJ0OdVx0ViIDB6jrDVBfkBgBwSHAeaG+olcdnNQHx0zkcBz13Q1wCGFy0o53BWtHGv65zQGNfnf8CUOlTg7U8mXo03O+RoNEqubw19tvoDx7seoQUnVMHBsbysSMReHX0At3EF1rHDQVqcNQzsKCoGNUfH/whtm4orKHIFc29AY4ZKjDBn3XgOTFIYNI6hXZewjSANFA0OgwZJDewV3c9vsrJvUwZMCknjRAdNXjpB5sYJb/e+iHQ0APQQiNjj0ExaAaIV3Lwx4LHJQPGXD3AA4Bzg09BGnspYfAIYOU9QMZLsAh+JDhUwwZpGGjPCgH9MI52cFkGo4XewiiF/psyOCPatM2HQLqIvXwYz2CHtJYoYKRXJoe9KzJjfLGWEqUFIsUvSXSIkliop/36jRKcs4fMDVkoJKgtIkH9PtETEQ8ZWpRWCTiIpWwdcR4vyf7fQKQpXWYYMl1B/BkxxoCNGxvSHaycwIOE3LSgOkg/ik9BZ90w1p+ASfZMNt+C19jflxXd2IRExY3IR0TcGhEuPo7Ya4AIWySvGsersRduftqLKqFBMihe2+6in44GhAcWiRpqLhDwNWoeCqyPBr9hN51wQQqgIYtDhHDBN5ChSPAHIj1ONBT4N0KHBuxg/pqGVgo1SGosYrF75MwTbBMMaVygBdij4yg5C0j24JCKcuaXMDYIUQFHu/ThLKsgjRRwYaNfDtoPSuzNBp2ZOOhRhbw1DzX0GXG3VRuoCyedEsWSeE/cmSLj6Jwxl5OelzR0d3HFRVXdfQc2CWW3oI0NGntbPTaoPAmJCx7flMfMnrnbb7bkI83S6PTLnMg7vuuxTfgZV/UISZEVR6HfpKcRnBQuEty/YTlvo7nVN5+63Djj3843PjD76X8b+lzHFiRiXIL6CjRS8IQQY5DmZw0Yu8Awyqs44dzjegKG3cXzsCRpHtSKjLQs/67C5BoGR6FTIkLnQudgrg70s10bCIlyB2CM6eC7TUaOzxAGTWoidzKxlM01dDsCOK+x3sh3zeK3aQhul+Iu2G/oYJFwliOkIhkkkeucHQI6CHQIUiXGmN/OATcnkMXH+NrXNWlkWFxDh5f5hVWHAAa1MnvfnO4Lg4B7yFAbwG9B7bO0jB1VxssNwrklQwtk5LuelLcJ/UoKiXicbeN26u8xWovZX3pxcMJnNgff89nIBDnQ11Ypi3ODnCHwJ4BnAF6BiRxBuIQOMT69judN8AQoUdXXq/WKmbrDmrQJhRbGRkYDft9fhP3HefhrmwseYGkDohG9PsLJAzjHkKDzgkINo01qNzU5Lt96MB+nxZQslI+T1hRMMXTI/JOyIHFCRv2EL7nEEEdgoz/4RA4ky7DBuka844DeghX4RBkWICXpz73HF+NdvLWG3QIJ+/gSmsOwXsIxRl43PctbYiJevQo6mBDiesprIdAh4AnWcUhoFeD3sGN3/9OH+qSHgLftYCFWAI6BOs1aQ9BnCPmQj7ROYnTL+W44C7NHfQQEoewG7G+e+ruvPMyLWcnh92Y5HGGzU4II9byFDGnxBEZixDbDsGVCFVdGqv7a8i45iQd4O4lcg0zXHOatjEjBx4hcd8cc2O8zPv30kX2ScDPdREPJxo5XpZeAmbRBVjpyPkDPLEmw4YT6SVcf+MNOgi8sYhvHQoP/rDL7g6heISIY+vagarVDh2BOAE08quc73hCnJU+6o2n+zjEQe/AnYENFzB/wNuIOB6YPMSxgFPAHALuXpTjYfMHF+IQjkF/zPYew2OOuV2AU9Ht8sSUomfJlmLoEFS+17K3p1BzEePeukAL4S3sFo8lqLE1zHBt8Wg+ti3nmlzNczmmlAYrNbktDuKbbziBdhez8bhFh4eSfEkwutEYStyxx3zR4KRnwMb2xuuHk3ffPZzY1bd2x6XBwTFwVSSEYHQNa3UA2nqw7OwNmCPAA1twWBjWSONHeXR48KKWh70BqStuodrwgD0kEu5K6J0J9Ay4TgEOgL0k63XwWF0EsnrurHvBuhxzy5gCcds/FpuibmfZPq0wjDrW1A0dwjagVslvHUWgaJUjQZqYICrweLCnMc8YwfO3eJaI9XD4vlLMUQzr7s4AJBm4hYZGwEk0v0WHpcZwCNJYeBcCQwncfZCWjd4AZuvZHX9dHMJv3tHu+JtvaAPE49NY8w+HwMaEnxcNalGSDnleWo/iEDA8EJIy4VFlzGtgEvHk978VB4XyiINCeTBfIMJxvoD1xXAJToEOwZyfHAudWD218tfjlZdwFmvSeV5W97ivuUuUtQEG7iLkDjbzaNmLlgGsRJ39JWLekm+HQ4ChElMg4mlSiEglrxAKjMixcEW2pQ3bt+j5qa3Dsh5k6tKQtCYDwsZQTnD5Yw/BnyZED+HvusIP9/HRSHDVZA9BHILI1B6COAT0EPByGe8hlPG59hD01eawpea3qa3Dsh7YSACduHrD6XgP4dlndZ7jHTgELw96CE/pg1uQYw/BViE2vQOhD8X5oa5faw8Bt2rZO3AyZGWcIy3+mJYybd1pfJGWygW0e4Y0cQwzJbq3qYEktOWRfYutYeAQqijUYK+k2M6iACtwHZTT4NwoOvYU5ByIx8FqM4VGTtoSL9h2kmORDocM0kDoEIT4AJE9o8CZ9zBkwLsUSg/BHcIfvIuuQwY2wDhkoMHzotaBTgblZw8BDkGcFHsIMmR4++3DDSlPM4TxIYNPIOJxbTqE0DsAYU4FC5DCkIFEp3YRdTge9TfkEZhCxjkvfX5UW+G3K6njmuiZGTHiFFTFihXWgrFp08bsGU2KyDkvdfGYOTlynnByY5EPFufg6vmjLQkWB6C34T6XnoM0ElxRy3MJt3VxjjQUzBXgDUzXnnlWu+Z43wIW/eARYmmofMWa8PlS6vOgqYU7BNiALZQDvYQn8RJZvPHomQNfCIN8PFEJR8DJQ6kXJgq/+II9Iq6o9BWI0lMCX1mBCCf/iJ2Ao/8N5353Ay9WQr3IigqIuBjBcEUgQeTuJbfULR3CTqwVNT94kqb/++ACXY9gt54jMDoJ1k6OTRmpR+Hwk5/Ld31FozQY3I/H0mBpPHz2AbPueFWZNB40Nq5mvCVXYLkK8zYlrsa424DGiF5C/37FI9DUA1EsmvLegduFU/AwrKLkHAkWHuFOAlciSp0+02cfuLwaz1qg90O9UlA7DhfhxC4Cm79hAuaUVu0Y80csuZACXbq3CZxTXftQ2VkFaw4BOlxPjEukUW+FyKjIOQEeCsCyB4WduqtwZvsiqalDRxk/KON1Io9ECT/5JcR6fgwjeDVF1xpXUtyOQ48Bz0Ogp/C9NCLehhMNmNRjI9QGqS8YEWdAhyA/LRqmeIS+bHuoKbuAL3qFs6FDQA8hOAWLw2lg2TZ7PhgmoCeAxVeoE+oDR4f6SJ46N1GOskan0JXjUVBT944yfpBshKGi7DJs89YBXRYVZLYWZLyyQ6r7gTYwdggNTFNQigLQ8Lkxo8ONNoHav5AyPGJYQyhrFaQn4A7hPt6XiO71V3KFxXxC6SE8kCu1NMrQENkY+WYhSUej5W1HbWAXBvQ6vIfg35uEfZYBjummNm70dmSIwyEBeggcLkg9pMfDyVLvIWCogN/QncFFl/cRws/M+TO0ciIWaS8ok7WNDWXbDiFTcGwjLGISsfisJuWr3LNyvyhgToFX1e+1i11eWCpXWKzpR+8ALxHBWBu/gfQCdM7AhgnoMTRvZtr+eXdDGqyvStRvP6gD8t4JSXj4klY0djzUhWEDnJw7BvR48OwGXq+G3k50CL8S7D0/2yYVdhjdp63lHsgOkneeMVOmLh40pNZCR+hXjFpHXQkoDR0NDj0AhGiMABwI3lWAWXkQ3nkAZ4E0TD5idZ+faQiNShcT8k64osf9wE9yYKJQ8vmwEdYL4NFo2KJN6IGs27VG3vVUVBv0MvKrQ6kWj0FbyZ+6ytXenOUdDkEVnqdC87ItZ7PHHU2Z1/fLQa2TxaQhcWiAKy/nCsISZTRccwYcbhjROWC23ho2yTSWho5G7WFDnu+OI8h5KHza+N2eOyAn5eWEJsrJyU3uaK1ML6Oa8uuDHy9u23ruq7Fw7xNosRBfV7bhEDJV2z+hnkhLKrJbCgxuz1FiRYmneHxpc4tGyHgbAk9GGe8KrQJtyLvn1kNgTwFjeMniB0XdEbB3YL0Ea6C8kkcbiEdqHIERru7uFCJRXOPUC/2w484A+yTXozLqEJw0qcJ4OvTHaJNGfxmv0Roy/hFtAiwzfCmqXGYb1KOkxPyEL+qOWHEILtAJ5noKskL22OZwHqkUwxZt2oy2MWbKO40L1AVNrL10t+kA0EMwh6B3DwTS8JpegTkG7SHgSh0aJkIhP5Eagp5IJc/KQHkN6CzAA/3RLp2COgPIKr/NN5QFUuoRNL9obsC8vUgVWTjAyM5e+ym/pXlOCQNrItViknfN/hKbVnOHsBTTk6MYQkjif8HmwUR24eGORjdhJ4/IFoleVPa3zA8R5ahnQhF4OrljQFu9rFxN0ZC4/Bjkk4WYvINzCA7B30+oV+dwpQ6Nm2WFDO4MwKncuqlPUT79NF/AgseS8el3rC689txzusAIi4swRIED4hBF7IkezA+wFwAbcARGdAoeR7mEn9+Y4N0I0cHboaLHJzw7J0EceQyJKDupp/+dp373BFHuSBUB1tY0OleVwg8B3alytl8TVmFnVo6iY6hMMlgIBEOmFAvuLfEun7uyoVmE2D8SdDNFzx5NVc42R8HtUwMbixAbkzR+OgM0JIRwEpLubUgqj0av4/bqGBgniUYJXS/mH/g5OaxwjO9Z+O1v9M1Gv3mHS6Kv40EpfFsR35m8dUvvIog8bfXOAJOYNpnJx7bhEPCjYIgAZ8BbkupYqAfzIeYUuKZB/lk+2ew79gkgvlOFOkwLzwHXY5sYTTDIaJLtaKwrIprzZw2bDPKzWLiKVo/uxbTFD4ndjnDAEFXUmOZZfAbg7fgX4s5jRNv+g/VkQOn6erhcTy0WihZEmS6NFCCaZYsGIkSHAGegPQJ3BozHGXvoRYP3hmqOYTHbD4IzQe9Arvx8P6M5BDx3cON3v9XPvuNxanEI7Ck8Iw4B7zbAW5lwhYdN0cNeBx2CEB0BHAPubNSQjogrGtEj0bUJ5Q4Jegm2rFrroXXR+hsQ7agc+y6dNILkuVykXkZSLWbAbkdFrqeAoifkdSybgBmGGihkZ8s+bXdpRNkPtex5AtYdgghW2UQLkjLqUIvSFsorP4uGPcojjBQQLDbxgigXiD/AAMMfB9TBbSJcZEc5zzSHUHoF7GZb3K6spRGhHOYMuDLQHEHpMaDxIhQ+vt7s5Ib0EG5ZDwEvXZEewpvSQ/jNu3yzER6nbnoI5fkI6yGInuoQvHfgPQQ4BHEGyIMjguNC76YsWhJngHkQq8cV3nkAsSrL4xAQj1xyFFvZQCmvgOmBb0EdXM+sbQQAQ9upp1OJTKLyb9p3cF821WgFki2aIXcIUaKXxj6NLbMyLCoBuRnBFTTiO3WlB7XDw+PZkEHjEIfAYQGcgHex3SmgUZcrq+hio/fGL/vsEYBUj/c0eGVGw+bbm586XHtWnMGLL0gP4RV9avKdtw83ZNiApybxliO+DPX559Up4K1M+C4lGjWGAMW+AHYxRCHpcIFOAT8w6gF+OILSO5CeRun1iB6fR1g5LCtZq9j6fWZ+P6Dnm5XLEWXX9Egesq2htFJrcgA4Op4tkQD5VSYBpUJVtyaMbKW53NW0kVyFcUhQJPhv6YZ2T4E0pSxX08d581jTsW57ZCc0YjqC6gza3oHogAPwrjsboCSDDw3PXrvGOQK8+Rhva8awAI3+txa+/bZOJL7wAicR+cQi3rWAtyWLk7jx7jvku2H8HFZIiCEGJiHxUhR1FDe1kUvZWCfrkZQaoheAHgHqhB4DeN0poD5xCBSgxynoCRjnKDR3G2t8qj/Pd/sZPF17kaaFiZrj+Rk8T/kVGb/aH+W0wD7TMvYEOMOm4Tpb3bV4kXquJTa4qiKGhY/pbcWZFEgROXJ4yePfjFxElKrSWzoqVyTvIbABwRFwZt4bj/cOjNm67rwyoxFSDjLiEKShosHqpOGb1rDhDBC+yxCOAq9zZ09AhhCYbLz2zNMyXHjhcIJ3Ib77tvIJv8sizjkGvIxFehmwwyctzSGgcKUhoIwoE3oKyIOzolMQJ8feAmRkHw5D4Mff/7ahPNi2pOmzcP5WB6DbMVSylRF4/Rsk+31SgWdYybAZ8IKj/atYEVvFtENQ5dXE0pgXQchPCI+S2gKvoeWzvV7YFcd4Q0mSEXU5jWC8LUkdGDGeAiQYeb5HSSrn+5pfMiuhtfOqaQ3Hutg6n4B0IV5Nhde66+ghuCzH57iTAIfgL2a1HoJf5UtP4R1xCOwhiENgD8Fez4YeAh2C9RBcxuSuv4kewss6nOCtSQwHvHFLMeCoWB4WSdKtTig/nICT14n1EUAkoXh4Iml+s2MUYNkt2W8YoGdmIDJaUMh+P+NS+B4yqt6an8TBx702T1FT+jzaNmKmUwImW74VacS6gPwi+4DquPLMCAuN0EjhMZO1TC/sCMZW4PEm7JRgz2kErYP+4T/DMrmmUC6DqXNSRF6NL3kM0jY42cbGog1HH1ZC70DSvHtNYSkFHYL3ECQNDYxDBun+l9uK+j0HNmiEvNILlSGDOISnntLbkfH1bO/WnoHLYfiA25ScY0APAZOOmB9gA9dTyScxFeKkUF5xCOrUpB6YWJQysm5Wp/44+G+DvxF4CIxSNklbJteU3ik4kIycNtf3LFNjhTytR8yjuYFNheZlLH1Sc3y6TO5aWi83g6FDiMq8kMWYJPCA6n9BXt+QiGgn0+6M4ExL5pgzparj4mGNSRJf1mOp2evv6HYNy5Q+Le49QKuWBoIuNoYMOt62rrb3EPxqi8aFeQYbIpTxvzRydPkxHMCkIRovvqKkdw2e0AYsOuhM8Hgy3tJk30XQdxTgiUp8GEV6HmIHcwS+boHOAvqgW+xcf+019kI47MBbm2zNQr0zgvLCmVnI+liZPZ93GuDN9FjwJG+gqWtgbmSR+FIiSel+6OXvDvSJsh+TlrsVrrBJnICfTBZUBZYY0Jy/IbtykcPiMT2H/BoDbEkSwmSFnzuYDk9HGGkDZFnyjSVdb6QMdlCFlMN5nXLwQOM/ZRnL9XnYYwou/mgc1uC1h2CNi1dTvdKy0aFRYcWhdNsxPLj+ykuHE+nOs4v/G7myy5UcPQR+VxELjISftwzhBP75Dd9LcO+jT/hS17t/+dvhzp/+rB+RxUte8cZnvKkJ71/Aa9ukghgaYGiBSUg4GtyuZK8Bcw2vi3OQnsY13JHgIqQbQii79RzgDKwedAo+N0JHUZ2Bb3P4UXJqwRTL0lzbKZSjXNhSlpGcysTsZleUVWcTmLawYJWEKT16/mrD7ykEFnpC2Q0YOwRBFYAp2dP/Ao8vCmIHhIUshDzAw70wOQTUHfRUIx0hr0sK1BYFtWgTlzKdXUGVMTIe5XfCpmXrGJTYQ6gNiI2nDBnEGeBqinw4BEzmofGhd4AJRBnXn7wtDuH3NkcgzuHaq+4QpKGimy4OAe9u5Jue8UXpjz4uDuHuf/7pcPevf9NPzIuj4JeXhQ+9BQC2rmGpszT866/Z3AQdwrt6q/LFF3TowTUHmGjExKGV2xycOjJzZt6LEAeImusxQJhTf6jqb1HJ/3Rf0cqAsLFMQ5UxEp70N2yA/Y6MGXtL5KlTqKobalUisQaA7QYsU3qsOgSgiDOiCpu0hBC00JQm3XiJpcAU/KRYE695Sy6mYJMQD/giQ1FOqoQQtNCU9VIaFy6WNuaOtx21yw1C7wENSxoU7u97DwHrCvyOAj6U8ltppLg9yO585hC0h4BXod99731xCH893PkvOATrIeAtyPgmBF7MsughiEN4VYYlsIVPy/3mncMJhg64fek9BFuExDo0PRsru/UQyq1Uqdba0fEjmHHxdxrQ6Dfkb9EnB0LQQlPWfneQRxswYZE6hSqVaq6q++yYZgdo6dByyK+xBlHSK3IjA/3L5Jhickxacp4HY23FYAgrMjltvFlORS7Xo03JnAJSPJVzCNIL4Eo+XEHZQ7ArqTUen1/g5CGuxPhWAxoqFhph/gAfS5HuvK4VeNbmDcQZCM7u6vcl8dYiNHg2fHwD4u/vqTPAx2LwkZhPpIeAV8Djxa54LTqeURBHVecTZIgi+k/eeIPzFTrJWOcotAcghHJ7meEQ3Ml5DwHOgvMHoP5oRcSc/Bj22PoNs98C2NK+9RteGIrCaDG3HeH19nABSx75hw2HsI2od2CjIjBs8vYwgTW5Pi/78TINazpnMasjL5MCM/J84AcNhb0DIzQmDCN8yGCNzONUiVWCaPByRcfrydDlv/ePfxzu/vkvh9v/9z8Od/7zvw53//QXDg/4DQg0fE4kSqO3V7Od4kMqcBaffib5H0nvAY7ib4c7f/7z4c5//Olw5//9pw4rPvxIhxT89uKPOglZ7nbAqQVifaSMcGjm5FAnHQpJGuoU0B+dteM1wvxv0WJebpLTWt2sXkfhTwWXiXv1r6H9NUZILPZJeTHz1AyjdKB6M4mMXJvBc9d/tGUeUpxmcYwMgLKlctJ22Nj9asorqfUS2PhDQxOiU0BcjgnvGty9p5OGaNh0CB9KY5bhwP9Th4CJw7t//evh7t/QE5BGLQ3/vt1Z8Fem38cdB6R/iJ6DDCfEAcCRUF70YJ+fmisOQXoQd8Qh4JkGOATWw8rI8qLcINRJCPWxHkJzKzXAj8t0wxP48ZyXUFRbPda1DX9DRzlPxzrWsC61zEXKUGZHEeYcwgYW9nAwvISRBljJamGMq+MhNI6R/YZks6pnhfYgkyfJZmHfGrk1nDIOh0Owq2nTM7CGh/rCIZzhk/NwCNJQ2UP44EP2EO6ghyBXeO8h8MOy3kP4SnoIvNXotyC9hyCymF9AD8Ecwm32EGRoYT0EvC4eDuGMDiHvIWiPB05O64U7DJzPsB4C1yn0QH14fBDvaA8yeaeAblcSJCXyDgmbMZxNN0fClSxINmv2nW8n5FfagRkDGwcJcI49Ze75ZuU2MVHeBS7MeAc2Iu0h6Lp/u5LCQYSrqS/2YUNDiDrgmQb2EO7okOEL7SHwluJ//KdOGopzYIOmQ0APQRwCJhhlyIBGffqd9Cykx4D5A+Tfe+8D8tOp/KcMGf5Dhh0+ZMBn2/HmZAwZRJZDFj72rGXkdIjF3cn5mgo6OwwfWCfJE7aCrd9j9thv8Y3y954PGb+kldSd6nYjtW/hEVh3CKbY9TPEhgQvjoSArHDHIKoJ8UZ7POgAdo61H+WoR6OrgMwa31a+I/JJnG8kwpUWjzKjkUlX/OyOXPl/lIaHV5rjwyd4pbk0XHwJCVd5NGD9ovLH2lgxWYhvJ34qabibwO86CD8+mIJGjCECuvrSK+CXk/ByE3+/gew/wMdi8AUpfFNB+Ok0ZCjBz7DBHm19crj3kTgNksT5DQkpB3odsIfy4bXrkIce2pOeBJwW6oUl13hkm09p1vpPYYtvUs1Cz6z9HlFOoqmWCdVggapO3TZcgMKdTNy3SL8fse4QIhJhJNauXcqgWU6FxSMlYRqNhCikTt0w6WhAB1Us9bj2nrgtCYgH8uSElpBUkeF7BHilFwdwxxolrt7/kkaMrznh6v05Ppb6qQ4H/vYebxlyjP+nP0sv4M+Hu+gJ4CvS4hjw/QMMA9jIMcbHPANsSU9D31akV3Itk5WsXOGN4KBsfqIZjmDSEb2HP4l99DycUB70QN7/hzonfo5OehNwSHAQdA7aq+A3GfBwVjhm03CZQkgz8roExOxIVZZ7CzhfpBRWDh5fR8/s+4mSpfmoKRHoYQqGnJKBvC1Nkw6hVjRT6LmFZMNxrUYqAYxrlIjxACZnfAgbmc42SDZL0vK0JOmNLP7CvvEpYyADYirTyRkVUA6hUlFVk0h4pwFfbY7GKw1Gr9I/6Oy/NKb7X3+jQ4FP5IqM4YA0vDveEDE/4E5BGip7CXKl9s+llbsAMMzGjq66hOyvd88TSLqP7fXNzug92HDkn3YHQxo75xeKM4BjEIJDgEP6QBwCyoCeA4YX0sM4++Zb7XWgXugtuJOScvkxKCSbluTYgHq+QvEvpJucKTGSDAOiSxnQQC5PKlTQ7ATE9BGPQLOMQQIvT0vKUQibAE1vOIzGWHEIKtiKq8KSprtL0k0DTylhYVnyRiC3Z2UQM/oj0yBNNEi6Zy8ImyWYuvglepJNICRpRgckFRI+NAybCzi7jWGCXJHZQ9CvQvP7iNIY0cjgELh+AHMEuJMgjRKTf3fhENAgpTFiSMEegjiEA15vJo2PZUJjDz0EgsXzNCGM7QGUC41WGi/nGdBDgFOCQxA7cAZ3sLAJjoCE25rv24pHcQi4Y+E9hG9lyBJ7CHAIGDrYcWqOR4OQUHidkDYibFpolmwLT0K6aaApy/QiQ5KNl8mTQDVpAr0w9waQzJ7P4nAYpf6IasyAvTbFMXAIehJTJNamhJLv8QXaDOxV8Zgn8Za1BbONIWEt+6UgPccsMrllGlKipbYujsjV7mm85lUELjgE9hDkio4GY0MGzhnIOP7+lxgyiEPA/ADvAtik39+kEWKyD3cQEL7/AZ0GGqF+HBY9BIzZYw8BBKPctCj5QiyT9RDQa5EGfYpyoJcC+xgeyNDlHpwDhjAI38dtTesh2JDhPucw0EOQ8ki96pBBdJ/rNwzHr8EyLabkvwXQpmPPUzSeyUUuAFyW5skh2qOkLyOCcUkVfa7bNiyzV7ExZGiluVeSOsPEhjXDVhUbNPbqVmO9nq39ESLfUmasZV0uQyx/L8NuoDSQs3v3D2d3dchAZ/DlV9or+OAD9gzYDcfVH0uL0eDRk0CjbxqXAA16E7EMbXmAkhJ1MWoOA2WW4YhPfHLCUnozdF6ffX64h8lHOAV8Cp7lxW1KKSsmF+H83EkVIN7TXixlMi3b50+OpVwL5mLTRIT0X1EiQLNjh0PT2pwRjAu/hcYajHUsczYcQsBAK4vAGrQMyxRBl1iLL+GC2RGFLAy8S7GOdxrgH2vLoHnHyiXgeB3DBmksmFiUhs5biMUhYKJOhgrSDeeHYDGMwJBC+NjAvPsd4Vf6iJ5nUKLGufRwlZj34DBHyitDgVNxCPpRVykzezPivD6RYQMmOMW5aY+lDhf4Utg1O9OADqcWa9qbczAg11ShckuupCkEDDMMojWwjMqWw7ixadg9QahJzzHlEGrli2qF7TBAGKgwkjwRu4iXXWa3CCkx0+MiyCg2lubqKwnPYr9Pm6E0Uchsx6SOIk+bOZbDRrvnevuPV1zctpOrKyYS72LmPvQQeBsRV2Q6BPQQMGOPf50kXCXYkkil5f4CxbkYSZxyuI1YeggypJChARc4WQ+Bwxf2EMQhcGWj8NIh6ERna7cnlCtSxrNGaaKQVMEo0xvza0abHvmdKkQnGRENGWTUXEYGYI5ng1/k3MaIGjCtlMCAvZ6xxXwPgTCF+F/XO0AutNSFhJDIqGwKY6hoYMsRGTaZA9Z4z6MH+5Eq9KtIcAjaQ8BYm5N40pj0VmNwCLjX70OG2zImBz+uuOUY+SV8Da39ilG6ofgE2eCkQ9cfV30MXayHgB7BKdYs+HoI9mh0yMCyeg9hMWQAsO/UY6NsDdZ4Z/VEvnkZ5/RG2TbNCT1FQeSekCNgbZa3ReoQqKro00irPksbYcnl0jwP5pQkOLbKM1KPiAdRHBSfyHPngOcM7OrLMbjEdZEPGpY0xgvtes8iOBzeLsVQR8rizgwTkHAQWNqMuwpYBMVhjfBIvXSCc+QMtnBRPMdgW2/KIYmePtKQp/epI2lH1y6wY7QlCaz3EHoNrjxg3chMEfYhK9IYo9yLKteanj02Iu+KXD8XsIqLquMIE/pjcYdln6z7LjxsPWP9x16mGgQVubY1+zk8neFYfN+QYc1YS/7Xpp8XSx2aUu31f9X2krbyZ2n0l/G21GKZWngxVo/70tIeoLfO+Ogv8i9pC5nMkkZ/gQdlX5S/xzI18ua09pfx76EZPfnfw0Juf5ke4fuj9AybDoHC2JiWEB1gnNvkrCtZILK3ojsVNTiP7PmxZn2RhytsIUs7B6B/ZP+nOCq76v6T4uKsH6UpCG3LDzgk2Yfj2zpa5A4hasmUHmGoAIJHC1dcgArDxWk6Bpn1n7ZErbWHeZXr8ejr/vDg9dhVn8gc4us6ulzZTfmR6IQgZUodwoCzBzS6G+qtjSDZyhH51mSce43nIgD9kQKYJJtjCOsKImU8QggcIZoDDJ18Sr3tAeFZBd7dMMp4hpTZdcr4E1L7Rl3eKkVbu0gPowI7nhDj5wO1uD3fJ6SOFhsDHEbbzAbnTwQsq0XCZ1gZMiSaMuVZGuDpkQK63TG6SvK2GmlDBzLXaISODz+hmqwnrZI0IMyUD4j5oaGRXDbUQaFpSGLaGmHDOEIhNA7Shu0BySboEGI5ct4FBZvH2BdGJZeNaUKZTCGX6Yi2C9Xj7YdLYti0pJsWPU9GGdxQA1o9AtCFwMNA09gnNDmpOKGQLLIpB6SS/+HfNoYYz1E4RCfVFsgObSHq8UCaQSr2IzX8IYsIMkyz0BqMnGUWCseAZKPkDY2yJmcnaeEpQFxp+AcRD02PNhKPI8Mo2h6QNzCUrcQTvoaCjWh3r/0Fv+17Q85kSJG3I9kEqr8TSY6b/lucFKI9r1H8i+kNf5ELwC7TdVfDjmcS67YtOeaD+vKUvDEmHYLDFY5oAMtmpVbYgFG2pqt8W8+RhIK52CzkIoyhUIzKhnEpPUkbH5WtkZ28zckaTmaqtZD7AdxjekIA47IhdSc9KDScaL8n2TTljPE1cj7ZyWmnnnIlt33JbGgkh7w1KjKFVw8fQuwqEHEaILCscLUw3sov5bDYHlDGFNUy9zAGR7ebI2e4IgesycHLOO5+8KE+rYYn6vAYKx5fxbp0I6xG42w3XrThM98J+grgC0LXnnrqcO3pp/gO/+svvXS4iQ+L/O63h5v27UGuzDM7fFEo1vDj7cEsk5CEWNiirxHbZ98xYFeITPnpEMRXfiHEq8BEAXUwHNi2sKhCYXhi4gqsV+EHZ6f6tF9ZqGOWi7AhViSUR8PrUg5kyMbK1Yj3uiJC0RHdKxfEG5xbj8mkooE5s08ZO9Y85vjHSkosk8YCLlsurcJyvDRIEQ97xLqM2oYwLh5Xn3jycOOtN/hqfH7LAl/Uwifx5NzX8EU5D8746PidP/9NHyH/698O97EsHe/BwBuu/vUdX07jGJxyrKvaVfsgfJfD7eBTfCf2/Q5+ectCvuPSMO0Q7n8mhBddoKGKQygNESchnq03tNpauEPAF36uPX2EQxC6K2VCI6Jd2HenAATbK8VYwMV58uhGSA8svqTMcuOT6eLE8FFUNkq8IJQhHISK92AZrCBcTXjv3uGAR5uxYu+uPrzEVYdYhYjlx1xtqPyO+OMCV/GVZhw/KQuPpZStvFsRIV5mKgVSbsgxMkSpe4CZGkNkBlUuoIojbBNBLlWxYp+9ATpZ6cnhFW1y3Pm8B1Z54jkLvB9CfgfKowD4t4Js1jtgYd8SvDfiQy98xwKf1buxwyHc+cvfdJk3nmOBUxDCytQRmvPXzxWW4cHhOr7J+bLaIYlDcEdwvEOAM7BGCsL6eZQiOoUlGrUsIxsVPipiJzQ+9kFHIE5h2iFIefAuPrWPRpDZ7oDjI8GymIlsOJgI8QESHEh+SBUhPn5yIldm0gnDvP4Csws7WOt/9sNtbfwgLOnFU4F4EAihEK9eKkDEHxeE/WvPPH04efll/ejqK0LPP9/0XrTHUMvT/bxZjdvElr3fJQr7oNoEimzRiFX7mYCgTyb7yLY4Ajw+zidGEUrjj+cTLmpYSq3njyhxarAsCA7jgi1D+K3UITwhjU4dwapDwEtu8D4LdwjSQ4AjYC8BoVw8lvaTAkX7QvyoDmy5UziXQ+AVeewQQOWgFqi6VquiOgS9uuGkZu9gwyHACfhwgQ4BPQQ4gtS+oLOdFIVQsU5Wfhz9MbULr59Ux4GTH/PtN6XML+v3C+0bhojnTknSRI3b5oNK6PrhSoUfma8iwwtShRBKXdFrcAH5STXel0d+1BvvvC30FkN8OUk/nVaJr0czRdzaj5GVcpGorAvEZIqkyjqI0EKux077W7bZE+OzFNIDw3sX7tyxiwkuKjinP+CVV9/2LOePhRVqyQ7ZAo3prBwiqL+XOXA6BGt86ClIuOYQ9M1TcAjf6PmCcwXDhjBkcKTnL+1r7wT2r5chg9l7VRyCnMtelnmHYI2wdwj35ORFF8wPZN8gO3UN+BkwOAPOITwlVzpzCOYUVh2COSeEwzmExPS4NBXUAfBg4sfEAUWX84zO4OYffi/0O4bYZ7cdn1DDtxUlXl431kFtq259LFi8/tfyQyP86it1cngVGd5xICG7hSIkpSgFRxma8rzx+uHWv//xcPPf/sDwxm/eFaeE7ym6g7qp5UFdVAO3DqvpLrQaFDN6erljbAN79KBXgMbD70z8qA+F6evl9H2TeM0cXlZbzl+E4fdbO38dC/sxAce9DBu0hxCHC3sdAnsHA4fgKOevgOcL6mD26xyC2jsRh+A9lswh5GeygYemHB9Eyg4N0qjtAtsHU/Oda457BcJAHmwS5k15Q1NuizayVldvmOiW6ivEpZEijh5LID6lyPSaV/hMB2Vx/KgbNpTaI5oBTEI46awsnJQ03Wpby6a2axlAJb+jrbyejsnz9J7W8kAjPX06CcNJHgccY+HDcSD5cdUQh5ChBsT2+atYcCHB9XnoG9t3LJK6fADngCbLVv9XUcodyr+UcR4NRlh1CA1EEXX1elEIodmDOcKiIXR2RmGNtBgkD8HGqbFWGHHkoQtmJxdPNDY07Gs8UusInFdPTqdyktrxU1Nm2IIUyKMMdEoIPbALvWwQaqvYM/vL8rXEMmXpCZV86h/nr+VFGqWDevnIu8gr5bHjYMTfzo8zjx+PZIO952/KHRNDPOPt03Qf25qjRWrTRqjnb4cm0XfG+hYOIRPx4zjSs0imQCUWlnH+2wZAxCmg2y0YsuvBGGQH+x0NwByw2J7K4uSSuF2B9ESzxu4nH+JGfpLqvjdUIed1nX15LFgFeN1BRd20WR1Bn1d5AiHfeChH2Uq9bOTjPkKPe75RTOvzIs3kRVrkxTJY3B1hyZNjxt+xQPY91qQLsB+oOX8CsFdJ/xjr+CxZxUNWx7WKYj/SFsgDXg1msNlDmNRTsVLQmrNSwphsbK7Ssxh6eiGmLhB/nAXHsKyWLkGxwauMnFhykukJiQaHfZx4RnQQSmyMnu6EEzWSKNerl1nkZgNkNoKOUhY0/mqXjcDyRuT8Zd8p1GNBwUaf7vGix/Yzyni2ZEALuaSs1TFYGp25EI43Dp0dSqLZEYBhAOaM8pHsRIgtiy0QMiJPxs80y1jkD8si6U1eVDCQMSwmFTGJ4bP59S6DzoIr6aQiZ7L7ST2gK2Tc46Ti03b//OnlpCJCvHev2tqYVKTpzn5TFvwvD0DgULiMlJ2HQxqpnGlsrCevvnI4wYz+20rYxx0GTuRZyGOxApSAtxkxY4yZY9xf/uc/eVzxwlR+u0DivMsQgWL4yYzGL3Hccrzx7jukm0KYZCx3GTixiLsMXh+1PUJzHLATmKflNjDSs6Vjt5xl8C4D3taE17zzTsOdw933P9BXxr///gGvrsfEdbllLWFZR9Odu0BWjjiJRwQ5nj9GiOOcH04q4lbgiy8K75l+W4NrEbAw6a868cx1CHq+NAuTLCwI56/b9Xg6qciyCNndhtW7DPMOQQ8mwtEBbffgEMJKRSEU0h3BtkP4h5RFbz1i5VlxBLCPsIHur/jo/KBK+fsfFAs7eM/fCAf4Khrfia9DCA0wgxWBJyjXH9g6hO+/tzsOQl/Ljy8h1yEApdixPOqgruO+Mm6FvvIKbyFdf+GFumLRQ/wekMkQk1eK3eAYGSCVCwosGlUOSr3AqBjseeE1bkZnd+/p+QvCV60/lfNXnHNz/kyevxHlnOtlyu8lv538XnQI0ujW7jL0DgFhXZi0dAjAov4oD2wG+6A1h+B3G6Ydgq9HaByCxOM6hEJbECtXn7KVilyLoOsQ9juEf4Qewg77PVDrTIxHQw8my/zE46W8CK8+8US7ShGLgoanpwGq8C5B3B8nYaUiFipJr+F7W6QkxO5uD/9xLX718ccOV595WpyqkIQ44XjrDOXhLbTxyskCqNt7yKwIR8kVGYkEeWmKHrk4YAiGYQKWK+N4CvFKizc+I5TeAXoOtLnn3Jk9ZvZ7wRnw94oOwdYj6CKhDYfgS5cHDmFYHrPPMgil6xCOdwjSENEI6WGlgX5RHcKuBmkW2EOw3oE6hBfFEfzuKIcAm00ZIkYHyxFrnPGFQ8IrrvUElHQlIG3LlUWvFLmxogUR+dHZ7bfxLcfitrbeKdolGgUasjdwokMDL1M5Bl4uQ6etAhmhyLH0QxkgyEWZDEVPtOVlk6A4A4IJFwMcQyGe1jzmEhcnjJ6CO2QOwYhJu6Uygi1+t18cAtYhaNfcG+LQIdAZ4NN4caVi4hDWyuP2Lbwgh6C9AzoF9hDgCLyR2pDBG4PTCEF7cQgcNvjSZXEIcAa9QzB7dAicO5hwCE1NDH3RZngC0AXVCSwL/WTiYTNl7SEcQIzIFbyUGXFe0ZXK15iBqM6SCMTpVFAeXP00TvAE0Gir4OcAqwTrrlFGym5JvBgUOxaGY83Qj/MMskO5Jo7fAU6Iv8fAIaBhYgg65RDQq/mOC61UvwYNYnnEptsGZUOG8zkEIW2gddhQ5xCkUcYTuUdX+HM7BBvCuEOgfQuJ7GA5wLKVD5AnMPJE0oeZSrecvLAr/6O6O0xV/JFA3IdzQQNH6Hlk1kDR7Gh5bMhSymNlwcaCMaK6jaI3OFZOwKsl6ym/Gx1a72SR3tXzWPgB8DL6OWKOYJdDWCvSSAV+W+sdSKQ+7WiNcJdDQM8ADkF6CfjmxSpQHthG3M8loWucAwsOwZ9lKOU5xiGwceYOgQcZhekPcqNVAYegzgBO4UneZeCQIXUIaq8OGaQ84gwQ520l2DNnxB88sbcffkBtI/+8k3Dr1uEKlikjxEw+TiohDVl5CKyDDUAIwwMPQzcWE2B0EECpS/iBCRkyyHABy6WvPPZYWT7NY+Gz5Rt3PB4JpL78UlOkWHfE4RQuBPZblJ/EHQKOjdKmEwfKb7CCRE3j3MUxtJOK0SHURto4BH5NWxwCHnhzhyDh2tOODp4tblv+EZYegtnzx5+9LOd3CBI/LXMIImAHeRNipTzcJL0Df5ahOASbRxg5BDoFGTKoQ6g9BHr+iwSPBg4oSNRjUtGcGCcWZV8ff66UnRg99Mm7MJbFLTFOJtqk4o94/NkahZeBgZaDG4nzcWxOKKJMNqmI3gsdFMqD4xELZHp+ctQywPlhDMznC/DRGcRxp4Wkj4AfMIdSMHFAtxBV8PwUYnCkbhzGGVH+XkI2bMA5H4cLaIB0BFsOwYcM4gwYxjmENbh9IdjH07B0CHQKYs96CPsdwvv1ikyH4A1U6Oz773hg1SkYrcEs4OTVhqWOYbdDMCeFhlOGKjvsExus9WBqHDP51194XjytHFiEsu+3+XjrEZOOW/YFuAriR+V3GBnal51xFbAfnROLZA4FRtxOLpZHjhvuXV9/8QX5kV/g4606fJCywEHhrgfKE1R0Oz8B7HhYAAfIL04JnfLOCt5PoO8o4Cy6hOwhESIUD+eo6JEnQ5QjrwlsyWVY6FqB/U4+bODTjtbwvBHOOYRv5Nywh5tAPmTYax89BBuenMBemEPIHMLk5VWPSNkiYsEqjK9ikSDY1FIQOVHvTRxjTvKp2w4s5w9u3qQT0xlb9bJcsPTqq3z8+OT117fpNeHnDyONWPTgPQtwkHxaUhxLcSqxfFYO/NXySE8Awxc8Ncof+2UpD8oi9LqXR+gNo9nyXShF20JynHBSXoMTe/ZZ7dlIT+sKh2ByMqJX444dh6HEL4iO8gICHn+NFvT7CfAzORgNCRPiAv7iDGNArClAnlC0T9j+mqgjdQgq2IqnyiQxNe40gGetsBDLfD9QioXtiK28SA5RGBsfrspccyAOAesP+LIUOalPcIW27hcWCHGxx5C0sbLhotsmPQ1c1XVNgzQKrHhkLwP2WQhsDCgDAiuPjE8xb4F3MGA+Bo3rRBzMiVxtTl6R8aHY0PIYbZbtYZHbVuKLXOAMpN5cO4Ee4mOP6XwMh1xdg2V9EepuivPkreneygdW8vh7ERLxeviuRcfg2bfgW8g504IZ8gtugadleS2GPYQoWuO5MTScQqM/O1IWFGQaAU9f5iOlpnIv2nfq/7I0/ysyptDS0JXDFRnLk3mHRBrg9RcxJkN3XRshumClAaZkjcQbhQw76lXyieoQxCOwLLAO00YoC/89AT0E9FhQHqxa5JucRLc5qFKe4gxiWX4q8jrbPpyh1B0z3nAInEvCXAheLmNDLlZPa2vU/QnD4g9pGcW/fj/+9XJbvPGvlzOqNWgRU5a5OZRP9VH/6M/tkx8wGd3ZhdUhQ6vQ9iSo6SsmkRVpFesMTa7s8Li7Yt1Zh7OYSKEUOLgIZINxGHsIckX2HsIL0qi9h8ArMrrsA5LGUIhd5hfLcIF3WtAocJcgnYewAkrAE83JHEIpD3odJMwg6yyy2jb7sTw/GXm9bR/HCscNPSOurhRHiDslpXdk3SP5HxLg4SyiXKQZZDKzsoDw7hVL+WIi4pFWUM5hRjxhG5tzCL2f4b4oH/ofJI+ymK4MKj9gTNDXZ7J+6yb6IqBeTJMN4zJksDkE7SFgyKA9hBPrISyvjoGkMXhchwzSKGzIUMbRN6Vh+JABYHlgn3ssQywPHBSurOgh8LkGDGFQFh/CDOz/tKSO0vfpENBDgDPEHRLrIXDI4JOgWlsLVzDBQqzxIW+Uv5YHrOU5hKeyzQhkUDluRyqQ3ufJPk6TMVwoZ0rvMtx9X2f1sTIQT4r5bcd7FjYLkyycARsV7jLg6hhuO97CXQa726B3GdwW7jJ8omVhmdqVirTvdxt6rB6UEaTRcXZWhgqY2ZcxO9afx7sg2MdVHRNiHEpIiKt2ilAsHLP7UjfeThK6//XXfG3avY8+Jt0V0nvNsK8yxQng3rYQy/P6a4ebf/z94RbpD4cb776tDUvoqoW6NsJw1HG4AJQiXOFdhftffNnQvc/wlCd+Z33SE7deK5LfM0PGdkx9oedYuR44b/Cb2e+G+ZJmVh/v5URvLt5lED48v3AbdxjsboPeZdBFSemzDClgF6bNvhAnwuGQ0YuUEM66luctoYnbjsUh8DafOQT50XDLsXcIbJQ8MNnRaVEcAu7nSzjtEJrydOsQaH/b9gzkp+QP6gcTDRBXOj76zNtGb7Eb7A2PL1u9gXcYbtmXRvHjD1yXjh+YhHdH4tYqj6uGuD1H2C8STywP8aPi5ao3+ZJVPP78Gn/Q5ulLL4/peWSw3wVrLXiCwxl+/c3hvsTvf/kV3yuJ8P5XX9eluQUX85v+1NDfTC8o+M18YRIcgTZAcQiYBPZGKk6BDkGcQHEIfLjpOIdQnQF2w7MMsAeHwPP53A6hNlDERwuTuG20KTzJ37asi5NmHIKEWIcQyyNxOoRmHYIZ6DAqD9AkuzwSywFVDnRzcRDZHUco+97wSgO0+q+Bz+jbQiTeixenysYhPQU+Bi1U78VrUZqygOTEwcQcb2GiO/7aq5zPwJCDXW84hTgfQSWPCOWQXGHd9X663lfXkxyvnzeSON6QnCE9spK4VjXKDBia5E75SC4mkaeTAwoPfychCdG0MDzSi4k0QGuIbJicCB44BO8h4FjBGeDYhaXLiyJ6eZDh54oRJ7HdIaBn4j2E4qDO5RBwJdOVikC2MCk5VqUCODgcLlgvoTiEP3QOwa+a6CF8XBcmuUPgwqRoOzNqWCtPCj8cFtKJYcyPOwMIZZ8NkIuApPFhQdCKfS/BGT7QYi/swGo9XBFP+Up2XZgDwss9AFqO5XASoJfFdzRgPA565hneGvXVkwxZIJfX4KeF2A/HBMuW4QjrNyl0deapLVY6++F7ruTMkB3amSo9TLlVHvut2KyEMNejV+MjHAJ7COIMuh7Caj3MrhNXKvrwBHYv2iEgxMnrjbE0TEN/sKLyulKx7SHcFIdwa8shsEwoT3zaUZR29jPE3KayGeLhkDjfP4BJMAx3EGIhERpdeOBpBv7lprqWX5yDLdvFgytcvisnBnm7MtRQynNLygMnhbLgOGIpNeYwcDcEIcgrvFnZhwX8JhYV8LkNcYZ8BwRCd4oMsXJT4vhNB+h/3dlq7frdDTO2VnnwOwlFh9A8OyANUYcL0jgzh/Anob/gU27flBWscAw+pNqsh9l1Yg/X7M04BDl7ttEWYr1IMXfJuS67gLBDwqnK15QZOPeURHQuEsc8AhuwnLToGen4Hz+SOC50d22ScJO+FcKPK86UenCVlAZB3WwMWrrOP1ewWLhfj/Lc154G9FhZtPvd2ez3fyr6p80XlH0pG+v+PXsGdAJ4nkPqzke4N34Z/+2cZnGsjGMkt8VT0wY120h0qciGeCq2AuffIzflEBRbP1tFVvgqXXPjNoIpsik5FkEQS1FjFwxzCrSHWWM5cXEScy0+PfagAXaED3YqoYEIP8bKGCKgm4yeARqGOwQx1jsD1PWBFIXlgDOgg5K0+14eOCiURwg9K9hI7feEiT2NR/51GdBYrqGvnVfJn9xTh2APNKGngAe+8JRj+kOmiefGjFY93i3ieQdkPC1iboivCy0wZl/P6XN9fyyl2OEQKraU9ugPJpClpdhrbIDdZYZTAEkPgWPgvgGaU4iNpCU4ASfZL41Cegh+pUQP4S6ukjKcSJxBAfyT+ijJkBx+nQg9FnFQKAfLIvqFSnnwnka+q9GpLY/HvdF6uSu/05qcyixJeGyilLwomxw3DDU5b8AegtQdQwk8yr7oFfn+3l9tCWio5Fv9m4Xz7pEBRtxZuqeN8tr0Ne6KXm5GatMh5ErWVLboDyL2asreQ6zYIxPtzcpFPh0yxAZYhwzeCJckDcHiaAzqDNBwRY49BLtSYuxcegjVan5U1EGhPHy3gDsoLwvLYySNsrWvjTIj54tU83O5ylvrmRH5WRaruztC6yGgHrxj1DiEvu56NCLNYA/vGpbn74zWyCNx7s7IVWR2NKVPb/czK1naCBsOQTqq0OYacXXyKGPrh6fPG/KuKWGmEE8aCwP55E1PSM/yRulOa3nSGo2ED1133F4i4b5zpEH+Qp/ac5s1jqo6jx8C31eKcmoDpHboxIy8PC3V9FrOXmYkV2VcrqeaF/K9rB019SBZfS3QqCUY2r1ZLKXEssVyjHKXZa6k6Yj6Pnc1xKbAMlaxZEBKnoqg5jQ8ZSekMtpwEfNDBpdtKgXI/iLN2ZfpVY+Fa2h4ZYN/PbIlZI7tR5LNKmUyINms8HnyKL+SbEK+7y7znZZpWuU2bUlRp5NsNmipO5Pr9co/Q4sMePo8313mR2Je/JNkCSrppqDdqyjsDUbcyMnzNLXLw64neZk7ko2FiOo+yeHRkLQA8lK+uuMslfCHiGwbYqKSBT76zDB2CCacwvJYT4QIZCcSMy0/8jbo9zOQBzqhw5SYfu5ZfESxTFu8TjP8DzPf89ZINpuUyfUkm6FcTIt0UfkND39XDUi6qWC6bAJFPQt9Dbl8TWrTRno6OUQ9Dyh8lTxfQ002QYrUxARpMoVVxqJDSmEZEsSpqBGWDiFT7LUKwR4s+KcVKKMeP9nYQeHBZpKmYX9Esmko4+lJNill+VEukmwWPDHNKcqs8fWUyfUkm02alcvyY1ok2Sx4YlqkKoddi5efFrGLQ9S2R3Pl1Vgt85Jk04Yigz8T1HAWzt6JqdZFcgsrA8Bh/yQmhgymLSqlMYtqMMRWfoPIzFl+Kd7VK1wA5K8HqysEbZ/Ldh8u8fHklf0RHSv3c6KszDN16OUyPQ3h9zTi4iousNq6ns0jOw9nzs2WB+ekkJc1qceijvZqO9SnhGXZvaktaK3NlLnZNyegjsiAJI84aUKK5UrFb/8VVgaCPuDnr/CxFjzchNBXKvL7eAgHD/cUxRbBl5uuP4WvDoWVin/Aswz+PMNveXvq/udf6oNUeCru0890hSKevPzwI4bx4aZ+peRFY+XYbXa/ziP7c8BPWnecyDb56GEkveoq68zPDfZNmJ6ROqqIemw1KFeEIs6CRCVYOIZyKiF+7Ql8l+F1PiXrxMfn+WIboRdf4KSrr1JEeJtLl/+pd2bsNvfWOxWZbDajfSxdRjvjqkiuVHzlcBMrFLFS0ZZST69UxLFwyqG5MJyRbJTAA17+W9ykfaMpgFQNDT164Rsn5VFjvHqLhCXFa+R8eFWXUUwjZXKBriDM5Hrq5FKejqh7hZDv5e6p0dXJkUJ+Jk/K5AIdXfcJOdZtIYNXyttr7uUE9aspeolcE0LgLJFzJZxjI3LeVQJfJxdJNoUXf3AA7JXyfLRX4aPcLH9OPNaxXtbLhUOhZ9OWrGYyeBE84uXqiGUGmyHGgT6vz3cMHcKWwhhugXwdcy1+l4GDZF64DAlwMPGoMRyCHPwreNPQY5GSH8NONP3RlBi3dFLIi8Qf0fdHvGt6ZvIk3tgJtLDd6WF+kl7I8ha6XcbkMttNeuBtqNMzzN9Ij/av3BLCG5TYcKTrbRcEfZTbHcJ+dO1GyfJmQX5s2DOw8xEvusVbn0IdSv0iIR31AtEh6BBCexriYErd+gbd/u1B4ZYI4r4/o2U4ZLhjQ4Y7eLjJhwx4wElCrLbzcdBWlz1q55ODNlzwIQOHCzJs8Meg+SKRr77mY8H3v/pGhg32gNMnnx7uffIZH4fGQp7G/uCEGR2AcWkVMwcOeFh6HqX9R2WbH2fFgis89IVvVyDOlYz4qI0QhokYSghWTreC9qzOsVeP9lDRkzFnwK62KCnnofFjI4SmhTdD3XjV3h712isSf4UPHPE9BaDnnmM9fahwmw83/VXO/2/SIcNWmdmcsf7D7OPxZz7cJEMGDh3CkOFmMmRYcQgfcOyOUJ92VOLjz3AIKBkOhDXMEaJ2vhgUr9CKDsGdAecSxCFgRaCv6gNhKSxeoiF0z0KeGDS7bjsCxZjjrGgOjEMSJ00W8BgkMltqFvaPsA1k9nfbBo61b2FErwaOQB+H/l5IH43m05AkfUKSTsGwVY72rM5BFSt6qg6N8OW4bMTP6vshpQdQz0ELyaqNkcdLnMcJHkHGq/fwbgJ82yO0ARCeBKVDsDkEPPnIFZ7eBoSw3NsxrDtM0q4SHYI/7QhnABKndA6HoD2F1iGgh1C//lwOSFLIVrM7BDkI4fFnOgQ4gz/8ng4B3pLLW/GZ9B9/pK1yYMxbHrBakD8ATCeGA1gEL4exrktU9gWO1dPJ9eiTZ+xv2QbIHpUlQrttAxP2C7tHBgKejN+az1/YcxKcVKODUCeBl8r070wY/vRic1iPgCKe6GmahUXx3Qu8ws4Jb5DWcz+0A9q2AogODC/wpTI979UR6HDi8cO1JzCkeFwa+4/qDJzEKbSTit81DgFI6w6zKLdR6hDQQ4AjePutcziEcpdhxSEE8IAk4AtSzBnwwyevvKw9g+AQWCl2G/H8/D19AAjr9kFYA48DwyLDruq9xC8fGCqWi469d6M8nyHh/X/+i72ErCVkp4Gegfl5qJBz12I9mvOXUU259dvf8By9aeEJ7hD4+d+3A5PjbcfHbELchhxwElcxD0E6ocOrDuHPQnaXAc7AhwydQ3D0tWgdwlm5y3AxDkGcwR2J3/9Uxu50CF/QOdRXqC0dwsgZAOoQ7MUepYcgjgAOAS8NlaED1hz4evoSYhyJ7iKenUd46RB+dUAD4G1lvHjWwvtfYh5J37kIqrfe2h8+Ow30LByfi0DmEhbnLxqWhY//r/95eOz//M/D4/9b6P/8L77CrraBqzYBCl4NGJH0+EYrTJT7pLmHaHN0BP/lDkF6CHhAjD2E7+gURg4BiPVQh4B2A4cQ5xAShyDOAEOHCYfwAXsG6hB0HYIOG+KkolTInAEPiEAVNeoa4LXjdAp42w/eJPPSi3ybMbztLbzV+He/qYWjylrRS/y6gaGCvxGLa06E7n2BOaMvyxxSey++PTfi3tZ5GNE0prAlijPQDZzA4//f/xH634cnJMRn6rgWh/No1h6mIUrNFHpBt/+ir05jiDcmSdoZHheXnhNC9JTHsFqgvHQINVSHYGsQikOwdQhvaS9h0yHACXBh0sIhKPlbl0vvAM6BaFRVWDJnaMvtmcc5w3rz3bf5KvGb9iZhLRz0ImA1L/HfADjv7n2M19F/wjdt484SZtr13Qp4jPobvrWqgKfG6PxYPw8LirhHWobSNBg8ODz2b3883Poffzw89u+gf+NLd7mSlk5hj0MQhdDJRit1lx7AnffeP9z5+/uHuwiF9FFxnUfDnBruuqxDbJsTcGcAuv7Cc9UZmEOow4WdDkFvPdaViu4U4mvY+yGDo1FKPJBxE+7H4vXlMqYSwqTMjTewikvojTeEXtM3B1PnXo97iV8y0Ov0uQN/3T+7zIEwr9Rj6wyxa3yD2CsYoUqhYWns5m/eOdz67bsSCkmocwhwBqIRDqFcGAOW5iUNOpXQ/DCHcPcfOkzSFbkf0xHwLou/h7KbUAWyWkRnALomDsGdARwDbnteuEOIk4qFVoHCCRsWZYhxDa/zrgO//4dXnONerYTIU526cKPVHYu6ZTPC5fbIZDhWz6O0f+wx63GsnpkyP+A7Jk85V4A5A+kZfP01LzyYr9LbkHgzM66Sx9a9x6we0WFqcMHiBcwIX/Lq5wPWYYpsfM9Ge3bGngCW6POTAwiF9J2T9w94XZ6vx1BslNv1CnFS0eYQ3CH4kOFoh4B4XZikTgEOAQ21cQojRPXdwcOs63Xen33hcGL3aOkQjIc2fKKmAPo2DkqKY+V6HKPnUdoGfu51l6vkj7r+5H5Yg8Lu8u3b+lZqhNIwFDNlgN0OfdLaeesI569/Ng/PICC89tQTcp7qqsM5hwBIQy0vjpFQGi3mRrjOBl+1svkSOgFODtrkeinHRpnBJ3LucPJJxb0OIdxyRJw9AzgFdOkkxCSHOwIehOGBRaEsCoAPB85C3Hrh14CFrj/zjN7XxUws86Efuk12iIyhqdIKNpUb1vSNdBwj02OrHmt6ziMbcdF1ByDX8ujCJEygSW/gB+0V8DsWePciQxkuhIVJ2+XvyjAq0vDcBUQoyPHbnvhQr4WYByvnNNoBCGhsJYbR5MwZ8O1SUj+8lZtv8Tbyu2l0Cta4WyTlBj/LXEm/y2DOAISFSUc5BPYO1CHopCJuPeJpx8+aOQRQ6Sk0QIEs6uhkMGy4+vgTevcBzyf4NwaYH/h/VkCl9pbpGJmfIx5ePfS9lXjXovQEbsu4Ge+bRHcZ3WZbxsyraoNRWboTrz8Pe6TnmAh1cjg/+X2OJ3DOCt28IbJwBKM2MIA1Vr+Ks+5YgPWDrtDkJKL3Cpy2K1H0RUIPYeEQzBH4XMIRDkE/yOnDhv1zCICYET78OT/vy2JxBiYabaGG6kOm6ZzS/VMhHqrZch0j83PEQ667XBHLmNlCX3fCNzOfSYir6rnhOvb+Fg/0ISU5R/VhJTlffb4LuhhM6mRjZURDqaMuxFPCJCJ5yOJXfd3dBHUroWlzYRK+Uu4OIQ4Z9jsEXY+QOQRUvnEKq3ATxsfA5NnVknjscjmK2i39PWBvS2aGp0dXj2mcR26vzAx+hnX3ExljZgs1DYFsGFHW49ErmK2LypVztMwbuLyEQ1WQTTJLUSTC+koDRp1Rf4QO1r1HTOt085ipM4DOOKlIx0CHgOcYsBZhl0MQZ2DzCJwBFUfgcwm4RVS79jgYw6MhyCoU+L3wFm/h+2v6M2zJRTt7dB9TnvPaAvbWfws/VT12ygiL9iBtn/D9JvEIxLI4ZnQGOUZxviLI9PVwngk71o60qmv8mV3jt3KxPRlhHULrEF5ddQjdJbkiM0t7Gi0GO3/SwfJcsLBWGcb8APCgIHTC/iitp4RnhFQupnVUgHjY567xLEhZNOIUoqkMKMkfIfJklAHJhcf3Y1okyyN8xxIYlU1KyqIRJwN3ZZORZNYzA0CagOeObJxmsSmzpcvyETAq5zsCICs/CXlOa2kdjRDrsFkPlA9xpxr0GCTPvFPRUGwsVcEp5IQ8F8Wf7ZOUZwkcnDUaIeHNDjwo411DpgO0Kud8Gi1UIwNEZqPertMWUpkRZbC8yEbyyAiSR3sareSRFUi2ni/qHFKyc2eTGpkRJXKFjIc68DeDUtkBDcBjY7ZiGTyt5I1oWT5PwZbUMyRYdQitfN2b0NvBJVYkeQKBEN8i2TSU8MxgISebnmawKoP9SIZehoT0QDPI9MwAbA3JZqgH8UgBQxkA+5EMvUyknve8mGkFmxAdUONUiimbBcX8jGST0QWDtWaxGWuwTKnY7CFA2CmqWlPaQjhdAWlLEgdni3okPGsHuuT1lGDIK1TyOozSgbW8Wf3AufN6SjClp8MxMlvQS2ClGUTePXI9KGvxAtRhVA/PG9FOeNl31AG9BeU1/iC3pWHdIYh08yk3gPuywX9MH2GG52EhtX3Mj2LhRWDqoE3gUR7XKSTH+Zi6ZzI/+7pfELJ6rtUdeec8v1Ydgv+k0bctzG0VMMP5yjyHY8qV4Vg9q3k7CrDGO8pC+jBvp+0R/5qa1byd9kc4xv4e28BQj4UPE8fUbw0ms3U5nJ9UFAyPJ9IzClgkRb4BNZMrHWX8DQUkSS3vgGgr+WvQyRQKyLK36lDqmmQ32GDIsl13nql0tG1QQJY9ZfsC7GdZrjvP7ChgkRT5BlTqkVDG31BAktTypgyW1KfL/ppTGDqEhVBQnNheReSflZXDZrEcW/mOY2wDa/pnbQNrnCM923WfwxbfMfZnbQNrvHuOYcRxUkvssX+MzWPr1yNqmdFYeBAZCUj6yClM9BASrSFpZNOxlZ9h/mDu1z6j++J4trHUMyMFzPLtw8Or1xIZz4zcTAkurowtLk7vnKYem3LIFnIuhulOjqFDQK9GI6BQDItot6ekBlCANCp8nr4uk0E5Vc73Isa6jpFZ4uLqoTIjjRmUr8r1mNXU8s3JALl+pCFnr559cspV5Xrstx9R9Y705OnrMhmUN1LEWJNa0b8GaXt0tHkjzvUegklF4awQ7fiISSSyGvXjplamykUeJdksqOa3Wa3OyBdJeZ22ZJAWqc3v5cnS8Whin9ZSJqfl6Wkpo9SWI/IZQ0dRTy17TK+8Sr3eKlflQZFHSTYLqvme1KfF/Z6KGlJbjpaXDB3FfCRFeewr9Tz9fiYXeZRks6Ca32a1+iLfiBoZSVqAihBqUJAybziERgY7ne6BToMLoKDKOShyh1bO91pUnix3iZ7faQstj0rNylU6Rs75l1KVJ8tdouWpkluySzkNZ+Qq1Zr0aPkifK+mRr5IW2h5quSsrHMr/zFyvtei8mS5S/T8ThtwZ1Ag+/o/xMYcQjwEXr0tgCdKtRjrWJdbRyvbYk3TvFzcm60DcIzciCtHK9tiXdN6eSp6rlwKqWO5XCZC5Xu+dTmVybm2JEf5rb6e61H/hs6ppH890FuIzoD7jPA/oN0DticVTVkjKmlekDUD7V7FshLbckgb6atY1zuPKjeyu1UH4Bi5XCZPb7GtN9OxVp6RjErlOY4sd6wvoufYspShlRjZPea3AI6RQ9pIX8V+vQ3QLoMjiECq5ngs58sdQs+bGaFO2ZS8lieRaFAP6l65lpbwVLUwohY1FVJjvhajOgBrso+i7mvw8iCclQEuuh417rE2pacWnnJc3XvOhyfX0hKaCv3bvIrIG9Huh70VZds9BEGUrweipuukBsJKzAyk3ZhlWpQBtTzIVyoMhVxHRqq31xX3K28kbHoZJS9Hz+O2eup54r6nRX5QyxPt9eQ6MlK9vS6nqrPlWaYxsdCanLEUWua7bKTIoxTTep41uUpalsgTGdqyVB6XixTznSdLizKgZb7b68l5MsIm6mJil9YTNhW+J9ZLvKaOseIQRLiTr0b2wYsUi7aNlhvxSL6dQT0o8zIqpRK91J56VMvzMj034pF8OwNoamUV6+VpZeblWvS8Ud8ePc6tEvNykHK5XmqPfec9RsaBvUh7UGXmJJ03lqH4i6giUTd0COB1IqKXCrnjg5Tn675TBpUZ5To0f0ZPzVdul9mSW0fVM8JSi6asyVWONaiGGT3rmqoO55uRinIjzGiZ1xM5VGJNzjlG+RXH6KkyY7leJsOsnqhLuVdkpH16b8Q5sFv4kVX3UkwNGaBClUCjUukG4cWX9i44J7wTjq+XZt6SPE/5eur5W91Kx+ipFOV63Uu5nqfmKW+bP28/8o5kWt1KNf8i9FTeGbmaN7YNijpAF6WnUpTrdbdyfb7yOClvzYu2R/Y9r/K2ci1/tOt0jJ5KUabR622ytMuwX9rwOuYcAvVBsYVuzAz6OMkJaS1J4eP75XdQrzvXP0O5/XXdKHef3+pZ5i9J676//r3ukf4t2tKTpWV1P+43vDg9eXqvez1P81tdbV5Gv6zzd2nD2vAEJnsIBjM2NlxJ+fRAVv725EBaTzF/9CMco6eGTrlcpIxnVi5STVu3HWXAh7SeXN4JaT3F/DU9fVqkOd0Pm8ePl9d5u+6Rxnrz9Ehqo9quaZWQ1lPL8/DOX9lskvPRxqRHmHcIbih2QxLygjceretRONUKV5JNpSjXU+Dbpaek+8GNaZW0OybxhJiXyRjFtNhFrOn1h3WZpdwKBb4ov1fPgteIv1/Cr9TWvbfd6jxWjx4b2VRyuZAWZTzNiWlrv2HH76T6YDvYL3JrZVaSTaVgb0GBb1pPSPNj1POWfa874my/ZbOK4WvY9buO9qGWz7+0785piK/L+OvXl69hl0JZjMjKMPMarbZYOY7VE8TsxdctTGZUApWQbSZqIbFhWzG2v4oLOIbU0OuhSPcbZtiyb3o2keoJcqkKkQliaUmk7mvWVabVo/iFn7+oN2QsvP7ss/xKNQjfprzxykt8Bbu/in37uwz4Vv37H6ozELr7wYf8Nv/9b/TbcwjxyS06AkH2XYbmkGbH5VEe0EYkdQcCkdH/FJQZ2G5lEiWd/RQPq+4dWPtMDYu9IkuZ89snhvUIsr2aTibVILbXrGsVctu/5PPXnQEKjuD6U08erj2j36K8/szTdAw34AzecnpjyyF8d7iDb9SLI0AIwodZTr/7gd+xR+8An5vyyrhj6EvW1wMFXDD1tQFSuR7H6mkZF79HJzM6pRY/Q7eb1x0IjL1tYCgXsW6bSPW0jJlYxNKyp2zYT21n2NADNKKJfYkuxDpzU79hYvtizt/c9n49wNJ+dv5SzAsv4dXHHjtcexLfTdVvUl5/7pnDzTfVEdx48w2Jvz7hED786HAXzoDhR/zwJr7Ci2/O4Uu1D07xWW4rjQTj66yXsAPZR1LAQK6H6cmg4okeYx9b32MbGNk3Jee0PywKxXMtKtPqiWikxgokGFqn3KgO2/YDuDPSUwrSwmRyKWBsu8Gqbdtmeh6lfWMfH/sgI01bv0WpdOXGzcP1p58SR/D64eYbr6tDeOO1DYcgvYC7H31yuPux0CefMs4PcN7HRzeFJOSERVOevHBNbRCdkgFMrilZhyK+Q8+U/WB0ZP9YPYV1JAMY88g2cG49JjchvlDQyIwUBJnUvuBYPYV1JAPssb9DT8M6IbdpG9ihZ0ouGEUUH1S+LmThtcefONx4/ZXDjddeLcSP1hoWDuHsx9uHe19iAvErCb9iSGeAr+/a13j7/tRE0RZYOwwXhUdp/6JsH6vnUdp/1HW/KPwS7fcy/CjttasSwilcPVy9detwgk/EY6IRoRCchWPhEDA/cF+GDZhcxPABoX6O225x+K2XBlnx1qrjOFauxzF6Zg/pFo7V83Ose4+Z8vzc6vFT2QZ+bnUHOrkrcAbCK44BzgHDg2uYaJShw7WnQE+q0zAsHQKGBXcwX6BzBpg/oAMwUnbQqEAjHCuT4Vg9vyT7I9vAMXr2ljkDdP2SjiFwkfZ/iXW/ohP/RugNXL1183CF8wo3SXF2cuEQmobvxHQNQuQSl7jELwLW4L3d0zlYzyE4A2DpEC5xiUv8t8W+ZxkucYlL/Kpx6RAucYlLFFw6hEtc4hIFlw7hEpe4hOFw+P8BLcaKFDdIe74AAAAASUVORK5CYII=;" vertex="1" parent="1">
          <mxGeometry x="250" y="10" width="109.16" height="110" as="geometry" />
        </mxCell>
        <mxCell id="NXNr_8BULZLECcc48SDQ-3" value="" style="endArrow=classic;html=1;rounded=0;" edge="1" parent="1">
          <mxGeometry width="50" height="50" relative="1" as="geometry">
            <mxPoint x="280" y="240" as="sourcePoint" />
            <mxPoint x="280" y="130" as="targetPoint" />
          </mxGeometry>
        </mxCell>
        <mxCell id="NXNr_8BULZLECcc48SDQ-4" value="" style="endArrow=classic;html=1;rounded=0;exitX=0.568;exitY=0;exitDx=0;exitDy=0;exitPerimeter=0;" edge="1" parent="1">
          <mxGeometry width="50" height="50" relative="1" as="geometry">
            <mxPoint x="340" y="130" as="sourcePoint" />
            <mxPoint x="340" y="240" as="targetPoint" />
          </mxGeometry>
        </mxCell>
        <mxCell id="NXNr_8BULZLECcc48SDQ-5" value="ome certificate manager" style="ellipse;whiteSpace=wrap;html=1;aspect=fixed;" vertex="1" parent="1">
          <mxGeometry x="240" y="250" width="150" height="150" as="geometry" />
        </mxCell>
        <mxCell id="NXNr_8BULZLECcc48SDQ-6" value="" style="ellipse;whiteSpace=wrap;html=1;aspect=fixed;" vertex="1" parent="1">
          <mxGeometry x="150" y="520" width="130" height="130" as="geometry" />
        </mxCell>
        <mxCell id="NXNr_8BULZLECcc48SDQ-7" value="generate/store" style="text;html=1;align=center;verticalAlign=middle;resizable=0;points=[];autosize=1;strokeColor=none;fillColor=none;" vertex="1" parent="1">
          <mxGeometry x="210" y="158" width="100" height="30" as="geometry" />
        </mxCell>
        <mxCell id="NXNr_8BULZLECcc48SDQ-8" value="retrieve" style="text;html=1;align=center;verticalAlign=middle;resizable=0;points=[];autosize=1;strokeColor=none;fillColor=none;" vertex="1" parent="1">
          <mxGeometry x="330" y="158" width="60" height="30" as="geometry" />
        </mxCell>
        <mxCell id="NXNr_8BULZLECcc48SDQ-9" value="ome appliance" style="text;html=1;strokeColor=none;fillColor=none;align=center;verticalAlign=middle;whiteSpace=wrap;rounded=0;" vertex="1" parent="1">
          <mxGeometry x="100" y="210" width="60" height="30" as="geometry" />
        </mxCell>
        <mxCell id="NXNr_8BULZLECcc48SDQ-10" value="" style="ellipse;whiteSpace=wrap;html=1;aspect=fixed;" vertex="1" parent="1">
          <mxGeometry x="410" y="512.5" width="145" height="145" as="geometry" />
        </mxCell>
        <mxCell id="NXNr_8BULZLECcc48SDQ-11" value="service1" style="text;html=1;strokeColor=none;fillColor=none;align=center;verticalAlign=middle;whiteSpace=wrap;rounded=0;" vertex="1" parent="1">
          <mxGeometry x="185" y="560" width="60" height="30" as="geometry" />
        </mxCell>
        <mxCell id="NXNr_8BULZLECcc48SDQ-12" value="service2" style="text;html=1;strokeColor=none;fillColor=none;align=center;verticalAlign=middle;whiteSpace=wrap;rounded=0;" vertex="1" parent="1">
          <mxGeometry x="452.5" y="555" width="60" height="30" as="geometry" />
        </mxCell>
        <mxCell id="NXNr_8BULZLECcc48SDQ-16" value="" style="whiteSpace=wrap;html=1;aspect=fixed;" vertex="1" parent="1">
          <mxGeometry x="390" y="800" width="440" height="440" as="geometry" />
        </mxCell>
        <mxCell id="NXNr_8BULZLECcc48SDQ-17" value="exterfnal&amp;nbsp; system" style="text;html=1;strokeColor=none;fillColor=none;align=center;verticalAlign=middle;whiteSpace=wrap;rounded=0;" vertex="1" parent="1">
          <mxGeometry x="410" y="810" width="110" height="20" as="geometry" />
        </mxCell>
        <mxCell id="NXNr_8BULZLECcc48SDQ-18" value="" style="ellipse;whiteSpace=wrap;html=1;aspect=fixed;" vertex="1" parent="1">
          <mxGeometry x="470" y="1000" width="130" height="130" as="geometry" />
        </mxCell>
        <mxCell id="NXNr_8BULZLECcc48SDQ-28" value="" style="endArrow=classic;html=1;rounded=0;exitX=0.5;exitY=0;exitDx=0;exitDy=0;" edge="1" parent="1" source="NXNr_8BULZLECcc48SDQ-6" target="NXNr_8BULZLECcc48SDQ-5">
          <mxGeometry width="50" height="50" relative="1" as="geometry">
            <mxPoint x="650" y="430" as="sourcePoint" />
            <mxPoint x="700" y="380" as="targetPoint" />
          </mxGeometry>
        </mxCell>
        <mxCell id="NXNr_8BULZLECcc48SDQ-29" value="" style="endArrow=classic;html=1;rounded=0;exitX=0.5;exitY=0;exitDx=0;exitDy=0;" edge="1" parent="1">
          <mxGeometry width="50" height="50" relative="1" as="geometry">
            <mxPoint x="311" y="400" as="sourcePoint" />
            <mxPoint x="245" y="528" as="targetPoint" />
          </mxGeometry>
        </mxCell>
        <mxCell id="NXNr_8BULZLECcc48SDQ-30" value="" style="endArrow=classic;html=1;rounded=0;entryX=0.685;entryY=0.969;entryDx=0;entryDy=0;entryPerimeter=0;" edge="1" parent="1" source="NXNr_8BULZLECcc48SDQ-10" target="NXNr_8BULZLECcc48SDQ-5">
          <mxGeometry width="50" height="50" relative="1" as="geometry">
            <mxPoint x="225" y="530" as="sourcePoint" />
            <mxPoint x="291" y="402" as="targetPoint" />
          </mxGeometry>
        </mxCell>
        <mxCell id="NXNr_8BULZLECcc48SDQ-31" value="" style="endArrow=classic;html=1;rounded=0;entryX=0.394;entryY=0.02;entryDx=0;entryDy=0;exitX=1;exitY=1;exitDx=0;exitDy=0;entryPerimeter=0;" edge="1" parent="1" source="NXNr_8BULZLECcc48SDQ-5" target="NXNr_8BULZLECcc48SDQ-10">
          <mxGeometry width="50" height="50" relative="1" as="geometry">
            <mxPoint x="353" y="405" as="sourcePoint" />
            <mxPoint x="447" y="523" as="targetPoint" />
          </mxGeometry>
        </mxCell>
        <mxCell id="NXNr_8BULZLECcc48SDQ-33" value="" style="endArrow=classic;html=1;rounded=0;exitX=1.036;exitY=0.436;exitDx=0;exitDy=0;exitPerimeter=0;entryX=0.007;entryY=0.443;entryDx=0;entryDy=0;entryPerimeter=0;" edge="1" parent="1" source="NXNr_8BULZLECcc48SDQ-6" target="NXNr_8BULZLECcc48SDQ-10">
          <mxGeometry width="50" height="50" relative="1" as="geometry">
            <mxPoint x="650" y="430" as="sourcePoint" />
            <mxPoint x="700" y="380" as="targetPoint" />
          </mxGeometry>
        </mxCell>
        <mxCell id="NXNr_8BULZLECcc48SDQ-35" value="" style="endArrow=classic;html=1;rounded=0;entryX=1;entryY=0.692;entryDx=0;entryDy=0;entryPerimeter=0;exitX=0;exitY=0.653;exitDx=0;exitDy=0;exitPerimeter=0;" edge="1" parent="1" source="NXNr_8BULZLECcc48SDQ-10" target="NXNr_8BULZLECcc48SDQ-6">
          <mxGeometry width="50" height="50" relative="1" as="geometry">
            <mxPoint x="410" y="600" as="sourcePoint" />
            <mxPoint x="289" y="580" as="targetPoint" />
          </mxGeometry>
        </mxCell>
        <mxCell id="NXNr_8BULZLECcc48SDQ-36" value="" style="whiteSpace=wrap;html=1;aspect=fixed;" vertex="1" parent="1">
          <mxGeometry x="710" y="190" width="500" height="500" as="geometry" />
        </mxCell>
        <mxCell id="NXNr_8BULZLECcc48SDQ-37" value="" style="shape=image;verticalLabelPosition=bottom;labelBackgroundColor=default;verticalAlign=top;aspect=fixed;imageAspect=0;image=data:image/png,iVBORw0KGgoAAAANSUhEUgAAAQQAAAEGCAYAAACDwOsBAAAAAXNSR0IArs4c6QAAAARnQU1BAACxjwv8YQUAAAAJcEhZcwAADsMAAA7DAcdvqGQAAJXlSURBVHhe7b0Hm+W2ji26O1R3O+ccT5y56Xv//4/cOzMn2j7O8fg4dKrqh7UAkCAFStSuarftqVUFkSIRSG0RIilKuvJAcLjEJS5xCcFVCy9xiUtc4tIhXOISl6i4dAiXuMQlCpZzCNg9PRU6Ozw4Qyjk6Y7LWYdLXOKXgSsWIoL4Fdlcu3a4clX6AhKSApYOQRzAg9t3Doc7tw8P7kiIOFgKnRljBCz90r2EH7lfej2Oxa/hNzwWv+bzV9LhBJzgDG7dPBxugm5pHOmGpUO4e+/w4LvvCh0QnokTAIHVQ4B6rpSiVGh+UdxaoNxSRtGzbmFTT2I7BIJWQ8se9jb1tFizP5IBevaCY+wPZCpqAmIte9g7xjawaV9xrJ5dcgvmmrDUo4JrejZtT2JTT6+wsb+UVnbZutxV4bkivQHpEbBXcHJyuPLkk4fDk08wZBzphqVDuH37cPb1N4cH33x9eIBQ6HB6Xx0BCEOIIgJjFh3BWBE0rFtyhrZwiknRXBiYVmAqgp5ddTin/SJ+jP0g0xTDZGaKQLlGOMhtKbgA+0Rnv2DS/rlsA0FPkduhICv+tHgmDGwpoNwDLTMaOwnDA3EK0jO48txzQs8erjyrYRw2LBzCgx9+ODz4/PPDg8++OJwhFDrcF4eAoQQcAxzCmYhIobRcWemqyhJj6TS6VR+gKdQAu/Sk9nMN1XZSilRPjnXbYyRWFcfqCXIVmtAnV9tJKXbYb2wDA4EtPQBVBD3TMgAiqUDWs3UU6VTPLvsrOLYeVS7XoK4AEQltnuDKtesaf+yxw9WXXjpceVlIwqsvvXg4XJc8Q+4QPvtM6PPDmRDjmEsA3b1zeHD3rjoIFIb/KBSoUVOQpebVaJFra3Gsni25GdvAMXoedd17VD2IlVNpE8fUPcMxei6q7oDq0rpneJj2j9WzJcdfkYKyObkhvYIbh8MN6RkgfOLJw9WXX1aHIOFVCbcdwqefHs4+hVMQQvjD94cD0o0O9+4Jpx1KTkh4EZfFX6ZsVwjI5HocqyeXq3WYsQ1s2f851r2H6vlp6p7hWD0XZz9qWkplen6qugPz9j1VfkNv0hJeeezW4fD444crQgyfflodwSuvHK68Aofw8oZD+P57cwif0hmcffLp4fDtt4cH//qX0LcSlxC9BZuZbB0C0Fah7rXVqHvLKo9kKrY4NHWkeSnTpsw2C5XCNucflbLujUroaOUqlCvP1dQtzRV9kxjxAZWztb1mLS+lc4xyPWekOZfz1D2OLWoaWQMqX2t7TqaFcoxyPWekeSkXU9whCMn/lSeeECfw1OHwlDiCp57SuQNxBldfhUOQUGjbIXzyCR3Bg08t/Orrw6FMMkr4448iiULI4fRbFstSavEb7QbhTdgFYL6SioyQ61G0NQugfbXVoxUJe02GyVFPBpyQkpPZX5FBTiaSJwo3FalcD4pkcolxTxqYGepJVAlW6g6s2M8w+g3n6x4UFNYqs2q7bDqIUC4H5kd4/koSXSEEKSu/BHoEcAKYSMQk4gvPH668+qo4hFctnHUIH39ijkHCL78Sp+D0pQwfxCFoqYS4gWiAq+zTtwC5Y2SAh2GrOTQBM3I/p3r0mLH1cytPhhlbrrvHr7TubM5CdAriEJ4VZ/D884cDHIGEV158kc7g6mvuEF5tHEK9AZnAi9rCCsEAGyE4hUJIivG4P6LI5/EtuZ5nix/kMs4b4z2N0kFrMp7n8RFvpMgzI+M8zrfF7xRlfN/jkXqeEV+kyOfxLbmeZ4sf5DLOG+ORRulOo7yYvqXDKfJ5fEuu59niB7mM88Z4ICRa3NzDAm03oCJ3CANmB7qEJBgsJOmkPj3mRYp5kTdSLxNpjb/f79N7ymRifkY935qM82YycT9S5O9pjb/fjxT5e74+3pPnZTwjGVAvF2mNv9/v03vqZWLeiKLOGO/J8yLFvMgbqZeJtMbf7/fpPVke2qbzsp1mWG/cqUOIIq6YaWJUCXGjgjTREPN6nizNEfN66pHlxbSY7sjysrQeGU+WBsT0Pj9Lc8S8nnpkeTGtz3P0ef1+RMzr80fpQMzrqUeWF9NiuiPLy9J69Dz9fkTM63myNEfM66lHlhfTYrqjy0Pb9P2+rTrW/cHE045BQXEMhFkqhp2QnKVFQlqkrfSMZLPg7dNAWzJ70p32yHlalgfaSs9INilvTANFmVF+nwYa8UZCWqSt9Ixks+Dt00BbMnvSnUZ5a7qckBZpKz0j2Sx4+zTQlkyfbmkFdceHCWv3YLYdwhDuHnqawTEyM4j69uh23j0ygPPukYu8szKzcN3RxhYi7zFye2RmEPXt0e28x8gAx8jtkZlB1LdHt/OO+Wc1ncMhTCCWM6OHBlHe2+rpwjBQ1tvrSTcPB72tnlIkGb1cTw8VYqC319OFYaCst9fTQ4Mo7231NInCPimzzyGYdjfSk0JidsvDc+KfphkKi2wSwh1R3hVdIedRClk0ACC2pJGcZoeEQM5f0xqVlmYUMvxP9w0l2vKUP9HR2lqS81SyLFUsQGxJhZ9/ba5CYlAUcuKfpllQSDYJua2YVsiE27/AInGF8kXinzBVklQjZQkJgUYyoIWcJjR/mmYoLJKzQrIZUssbsmgAQKwl/rkM/2JO4Iw7k1hxCK5lS6PnW3Ey1spi2SHBUnrE1JwjS3d9Snp4yq5SDQIqQ5HpEFNrvMq1HBXxR1GOmFBTGoSERZ4hT0eq0lTduRMZjBAEcDdkK2JCSWwQU3OOJL05i52W0SWcYe43VFSZSglCtnKEBEtZw4hjmR51jn/DBkyLmRLG3Z3YOWQwKyODSZqd8xWZXIcZ1RNqiN7+ojwJZmzN2M/qvkhKeHpMsKSYqvsGD3dn9HTIWPo06omJiVDKk/D16FkmRFKeRV0TpmN0z8gAi98jE/Q0hIxnTHPYPYfQmELpvBCWEfPTwgtG6cBKVm9qG8a4kJtQsJBJsJo3ypR0zyosiDgNMMHSwhgXcpmCjqnZtbQeF/obLhJaRJkVtgWOlXHMnL97dTtNwRin5KaVClZ41x2CC1ppdHfUIasge8fUyyA/IxWulKVN0xoy/iOoL79TRLfLhJ4nA3mOpRXM2M709GJe156KrFGWtoktvqhrB43KGKnwBHS7U3pAMzxDGmErn9B22rbWTijRMXYIC1lJQJqlN/sZBfhul7yJKBfpGBwj19t12gPnT+Wi0o78hOySj0KmY+tETZIID2cR5SItEnrqkCRNYaR2jz7n3SsT5SIdg1SuVxxIf19EQjrg4QDbQ4ZMgRuaQM82KbbKh7w9epz3GJkMe/REHCsXgbw9erZ0ZdjSv8f+CMjbq2evzCzvGnodF6VzVk/k3SMTUfYnFGw4hHUNW/pH+cfK9ThGD9Jm9a/hGNvAsXI9Hpaen9r+GqAj03MRuoFj63Cs3F5kepA21r9mWfPWOIChQ4iCNb6cPxiZWaa0GOVvyfU4Vg/yewI8nMGId0vHsXI9LlrPo7AP3hGtYZQ/IxuxpmcNx8pFgPc89nsCfOagRb8PZGlDh6DMVXW71RBQDt+WPw4pWhql9SSbRX5MyyjKz8oUkvI64S/u97xFd+BZ/AV+p6xMnhZJNguePq2nXsceGdlp6hH3Iz8okwE1f84TKEu7KHLd8U8yKgVep1KewLf4C/xOo7SeZLPIj2kZRflZmUJSXidsK2K+b4GWq8f2HIIroHKEHgwUJ8meNJBIEXn3yM0A+pyGyrv0uOuHYoEkfcS6BZc7Vn6EqG+2HsfIAI2chTMAr9NFoinPSHmS7kl7ytPYsvCiAH1OqfKSGUJBxtpjwiEoqKwYkYj+t1gkLJMSlgUynhm5GaTlwaangG6X4AnVU4c+acC2QCZ3Ecj0bNWj2yWOqTuQpfXoeQbqWzhTTwHdLjFT9y5psZ8h45mRm0FaHk9EuGpoNZOYcwhBT6NSdpqD2iFJIpp0KAi01l06pls1I5Olb8mAzpM30j2SizIjnp5mZfq8Y2QibeVFQprTrJynrVHkX5Pp846RibSVFwlpC+qAlEgZmF42orvEQvIkpnsIikwzCpD8dRXN9knUYBTynbI0p6JjhWSTUp83K9dTL+ckmylak1vT08tlJJuUsrxj5KJMJNlM00huTU+UGZFsUsryjpGLMpFks+Dr05wa2dAGIslmTKH16J/u1XQFc8gf0O061h1CJiSKoynuZBTgu11yRamgwfb9gOw6SAPKdGzp6mWcZLOLMh0g2QzJ8/fIjCjTMaPrWLlIvQ4n2QzJ8/fIjCjTMaPrWLlIUS4S0go5YnwWEFkh2uKOwaMhqcd2DyEoKXrEkFbM9lfQsyxE+oNi+4sDFyg9sAPa4s3yjpEZ0TF6tmRm7W/xjvKOletpS0eWf4xMRlu8o7xj5Xra0sF8PdGVPN4BKZFmEHmLag02laSvYT/7+GO+hl1J4nj9+pdfaQjC15vslU38LgNogMx+/ZaDhPzunH5/jrSi6xKX+FXiwdnhcB/fTj3Vb6eCDF3zJFZbiPBTxujKM88crtor2K/aa9ivvfYaX8N+1cLN7zKsOQQQPuvGhiu05hAyZ0AZVAkicAY3bvBb9f79OdVLRgvXscWSlqFDpmNL7iLsRri+Y+UyXNZ9HcfUHTiv3cokEcTxIeW7+H7qXX5Dld9PtQZN1raJEsMyQMZkQXAIdAbiFNwhuCNwx7DLIZxKHL2CM/tYy4xDaDU6JLGXuX7Cb85decK+O/f4YzKIkVEM9TmfSu8BRNIibOAYuWNtPSz81HUHfi71/ynrDhwrp41WQ2q4d0973UIPvrfvp+IL65JXGzcEIzSh9LYN0Rk8EB1Xn60OgeF5HMKp9RAah4Dwxx9Ko+4dQqvNYYnkvSr/JiO9A35qCt+cQ/i0hD5siLQFsFm0IJQjLZIJjORSmYAi1ykoctMKArZkMoieUR2ANZWNHHaMebroneEit6Ugw6ISgsmCNKJB5ph6bNWhsbVDroE32rMzCSSUHsEDfDMV31C176geTmUYIXmxgVfEuBQjtBHyw5mY7BVxCOgZZA4B4bWjHEIYLvCzbuLBWAhr2F6gVpMjJOLqfxVzBhbeuqXfnHv+ucNVhM89K4WDQxCnAZ1OIyRZMSkvj+BYuQ6xaFtVL0hsLzBjf6sOZbONph7HyFjYYFLP5vEY6enkejUP+zeM9hYsW7ZRuAfiDLzh3r6t30wFffX14UzCw/376jCE3DmYsIURaIMSUJ3ptLCZQ8Cw4WE5BJRgu9F2hRfDV2D8RIYKiOPLtC9JAV98SUMhn1iccggDQKKzPIVj5I619bDwU9b914KfvO5doz38+OPh7PMvhD4/PED4xRfaa8BQAo7hHpxDnWjMYbWgTgQazx2CTyjucQgfiUP4RB3Dgy+/5FDhTLxXfpfBhANarYAUDkOEmzd1EpHDhaf0w5P28Ul+sx6FcydgNi5xiV8VrLGiTTCQ9oR2hg8rOz34UXoNmFy0ScYHcAod0qYhCoujkX86BHEG+Oozhw648BaHoPMI2w7hIziCj8UhoIcQHYI4AzoE+xw8CzTTaNUEhwiPPSZk4bPPHq6+8cbh2ptvHq6++QbjVzBkoE5KWHiJS/yKwOagDRabB999fzj98MPD2T/+ISQh4tIOD3AK0nvgkOLuPTBvozgDJZ9DUIfwgjgEIesd7HcIPmTAcMEdQhgyNDREVe93FDhUEEJBr73zzuHqu+9I+Pbh2ttva+E2HcwlLvErgTS/B999dzh9773D6d/fO5y99/7h9P33ObGItqj0w+GB9BQUG20jOIOlQ7Ahw+tHOATcbmQ3BiGcAJzChTgEdQZXnjSHIM7gqjgFOAY4BejSBRpnOm7Cgo374h1lLFXGU9S5cWAucYlHDjlPMZEuDY5DYdxmR2iL8Di5LiHa3CkcgTiFM3EKdAi462AOgb2F4hCAwbnvTTk6hGwO4SIdAuJxHcK6Q2hUJw5Bui/vSs8gOATOqmLMhEUaDGUMZd0mTL4grhWHXWrF5hKX+JnAznkGsoEzsKHygcNlIcyfcUGehjinM4cAR+BOoXUIQHLeB0fg+1yY5L0DOAZxCNfO4xC4MEmcgPcOGEaHAAwdQgsfLlylQ3iSBXVHUBwCF2mg4YsNhCgPuk/wmBIijtsxsIm/S6dwiZ8XtEGyUaFBovFjnY3QVayzQRwXRjgGCQ9YjCeN3R0Chw3vf3A4w3oEdwjfCS0cwgBozoGuPvtscQgMj3EIpzaHkDuEL3VSEXCnMOsQcCCkZ3DlCXEG6CH0DuHtt7RH8K/vdAwl4dk//6m2v/6aIe50uEOQjZmes3+JSzx82Cw/o+IQbt3kWhteoUnPFQdx5Sm0g6dkOHyvOgSGNofwnbSDczoEziG8ID3x4BAwZIAjOKdD0DsNiO+bQ6hYOoQXzBkEhyDdp7Nv/nl4II7gwT+/5SIN3J9V0nu10SEgnLN+iUs8fLAxeYOUPdxRwzqbqy+BpDFKyG48GirCZ57mswwP1SHI0JzOwB2COAHtJcw4BNwCoTOoDuHsS+kVhF7CQ3MIEmJG9eybbw4PhOgYxObpp58dzj4TglOQkE+DFbvz9i9xiYcONqfQIGVocPXll4XEITAUQjf+uWf1OQOJrzmEMzgDcQrLOYQExbbFYb/cZZBewsNwCOwl9A5hEpw/SB2CDxvgEL7nsODsazgFCb+QngkcwqefimP4lGHfQ9hThktc4qHCGqI3TjqEV14hXXtFnAEW33EIgeX64hiefY5303qHwHkz9BDMIXBSfQZmV8twoNMpwwWuQzCHIM7Ahw47HIKtRWgcgs0hsCFCYr5B1jsMT6pjMIdwPToEeEU4BPRGEH7xhS6QIolTkLDpIVy5atovcYmfAZoGKQ5BesVYiXvtVXEKvirX5hP4DI8QLnDuCNwpnPG2ozkEOIY9Q4Zgn70R2KNDEMLQxXoGxzkEzCdwqCBXajRQOoR4l8HDbehdBvQOlj2E67j9+Pbb4hml8jZfQcIwwcvxiYbsIcTewaT9S1ziocMaIh5eQogLIK/GaICvva5ddWmcV3C1RiMVwtOJ7gjuW6jrEI50CGzSGurjz2YLDiFOKiYOYfXyCrUEdFu0QZq4gqhwB1g/RjxEJOjwg3BJl/SoieclyCBpTCaUR/cDz8OAqS+2J83t6m/XigkeYn0Wqq0DUNOREHoFsaeQkSPLW6MRMt41GiHjdVpDxj+iNWT8TiNkvGs0QsYbaYSMd41GyHjXaFamnJsgBBZa2gPy+f4GeMLbmoZj0Alid0vXpkMoCiwCp9A4hklgZDIlZgeLvBIvMki3A/5Ag5C2DvwI/CF2wuV62otMB2gNGb/THmTyTmvI+EF7kekArQG/eSYD2oML16O705ABg8pkspNFcLluZD+FIiGRXnqkbaqHkAmPFGZoKzMvSU7+eDigegRV2vftqIInI0FqOeN1MqyVssnLdIAMu/UI1mSAkh/t9SQ4So9gTa7Ji3I9CXbrEazJACU/2uppAufWk/EH4kWLKJEQDWlDWAkRWPvZ4xTIajQvteIQeiXc9wIhEOp5MvTOYCgTM3BQ7e1K+nDINX0oBC9W4TpwDfEKNpKkp0Tellb5QcZTZCStoR22q54oW3Wkeiy9yEWijiDnMhkVHUKyv9BleQs9LkMK/EWHyYCiXE9Rh+w3ukZ6ikxnG0Qdmjdju+iS/QVF+7I/pF6Py4B63o6unFQ5puH8tYea/E1jpIC+bWRtZdUpIEsosqQ6LMwwvMvgqxV1HYLebhytVPRXqPXom78uTMItxye5bBMzn3UNwjuH6xLygY6vv9EVilicBNtcf/CZLlCK6xCKfTMQQMujmkPMohGFfSTXo+hptZV679DTYLf9FhTfaRvBcXJ9Caz2O/UU7JDrRYFdtgHqWWpiLdb0jOTQnOwOA+jKY48frnL9wcuHa1yPIHG8LhDvAsF6BLw20BYm+R0Gvcvw7eHM1yF0dxlaq3FPSk27iJp9rEPgHQa704B1CHZ3AXc8pm87wiGU24/BIYCWTzua8BpQuLIGIdx29HchmEOAs+HzC7Z8mY7hM12yjKXLp3HpMs3DeCxArU5bMSFji9z9HlDk2kNTUfQsZSMWjmHBrgkxuchkQFZgXrPeaOnkesR6VLmkHEHPw6l73S4QbAOtunav0ZD9ho2eVrZHU4/CuiIl9rRRKnFhki1Z5mpFxJ+xVYp4NNmWLt+nIxCH8HcJ38c6hG/VERx721EIAZZH0xFIW+PiJLEfnQHCXQ4B9OALcwhhpWJ9dRrC4eExqAl3CHQGcAxchyAOwR6Bvo5nGW7f1oOBxz8RimOgbaxYtJAe2O2WcgzQ1E6wVVSglynwDFOypavo2SlHhELUAWlFScoKa5lpVkycKEhh7+QmRFXkCLkos1n3gcJotuCIslBkh1xokBS7dZPn+dUXcYW2kG8Yf9pCPNx0/3Afjz27U4BD+Gd8lkHC2/scgjslLEyCQyhLlzuHgN4Ch+OGbYeAoYM0xGal4vfaQ5h7EWpVrw7BnYI6BPQK3Clcf1t6COIJuTjpOzkgeNoRXaev6ttom6cdYTa1DZsh3YvQsHY8GZoj45DE1fom4CEWmZ1iizJ6eRo9WSE7Q52aJGEOqMdRdRfslZuu+4Zelys4sjyzdad62YBfCO8Q9beK6wpFfdrRh8182vHevTBceI+9BS5MGvYQrA4F8Tip3egQ9MGmC3YI7BlwyNCuVCxOIUVbcK5UNGfQOoQwZLCPVvg7EVCepscgYeMQsFmYh11JbM1XkN94MozkiCA3EC8oejpbW3IFJjcqD/VkmbMyEwVp9GDHZLZEi1xna8Kkwmw19gOoJ5Snx0hub3mKns7WSA5sbFJCCG/cKD0B7xlwLo1k70SQxl6GDBKqQ8CQwZwBQjoE6M3ghYFNmDXbQuXxZ3cK9j6E4hCErpwc7RAs7OYQ8knFMvoq4Lru6BBefF6cQJhDwJABjV0qjzcm4fNWfPssHYQ5CfROMGRwmwvb0WpWLmCGJ8Mxcg/TVuTpsWbL5R523YGHZevnVh6H8JLdQrn68kLoTgBxvnVcP1+IOIbJ7CFg/gAOgW9MgkNQZ4DJxamnHQXVGXDHnnYMDgE9hP0O4SN1CHgVuzgFjt/D8wVonHW4IEJ9o2w0OvJJxTJkkBBxct7HuxTvHx6c4h2K0mOgc8ArqdVJUH80WewHwyXalc0z+mRPGJQ9h8gs9BgocoRcL1N2o0DgWbUPJHILmWFhTCTYKxCZVduZDLAiRwS5Eu0FLKNJDjup6SPKQ5FMbk0m8COOdyfi9qN9u5QhnAS66QjxTkVpT9pDsCHD+x8Uh8DHn+EYRnMIfTnoDCpdwQRmM2R4qTgDhHMO4SNxCOwdiEOQuDoCOIXqEHhMilMIpWq0KbyvoK9O0wnFdMiAty7jxZNSJJaKlZLeAJ5ulJ5DefnqJS7xs4c1BLQNOAWsqbGXqiItth00+OWQQecQzvwBJz7+HNpZRExGm7EvQoF4e/PiHEI7ZCDhFWrotsfPuIEcjTbs1gT0EPDY89ghvNXcAtGa1gkSreilQ7jELwjePkpb8bWAtV3kDgHrEHwOQagZMoT2BsTd4AzUIXRzCJxU1KcuL8YhSFx7CFZJX3VFYQ0c/SzClceDQ+DCpLyH8ICvYHfCa9hl6MDXsOtQohrqDswlLvGzgZ2jcABxiICQq3DRdhDK+f7999Uh/L3OIUw7BABJMBmcAZo2X5BiDoHvH3noDsHCHr0zwO6ih/DiaA4hOADOIWCSUchey07VMEvupe0ILUUti5TYYltoy9/uzenpbe+x3qM9nnN6Lsr+sXoWF4SjrB+nZ1lmyPU4Rs+cdUpI0+LXzP3ThQiF1DFIujmIOoeQOwSuWGwcgkAMsO31MEeAEMQFUEkP4frFOIQvD6cSogLuCDKH0P+AvpsOGcp3GdQh8Iu4aPhGh9t3Dme4/cjbkPZ6dldvdpPD0pdggUwmw5YeoNd1jEyGY/X83O3P2AaO0fOzqHtpUhKi0WO14mN2mxGvX78hTuGmPhsBwnmtDkHo75hU3HAIoXALpyC21SFI71pCnUMYDxkwl3C0Qzi1cM0hjJwBMOUQTmWI8ONtcQS3OZECR6Bruu3ACHGcRJOwbWEKNe5FqFwjfkdXB8OxerBtObfkelQ9wPns77UNHKOnygDH2z9WT5Vb5zxGz5qMcFJEGyYfisK5boQ4v23Kj7fcOhwkxEWvLEyCQ5CQDsFWKTYOQYvTIDqF6AwQ95WK6hTO4xDgDMwpqEPQ3gFCTCrq3IGMgcwpqJKutN0u7sEWZwCSAnKFIhzCu7YwCT0D0Q+ngxAHozzb8K2GqKwqRBnyLlxr2vdazkyuxcK9Gdb1LGWW9rdtH6+nlYt7HffSgCIt3NI20LMuVS7lUvUJWl1zenKZFiq3Xoqxng37fm4yFMLCJD6zUIm3331tgoToEfvSZQ+5CA/nvi9d9qFyBhZENm5TQnUMiUMoC5PMKRzrEE65FqE6BHcEbJSYHOlL2+0CPACYTDSncE0Kqo4gOAQMEfwjLQjxbQaxewrbRqWHQGeAMqj+ECEuujn3UMlcfiQD9BJbWLfvaPdGdQfIadmltIgwwxysqRtrKZwBlXsk10tsYU5Pu7dZ9wb76wCM6q6tSTbWINET4LJlNEouXRayj7R4yKXLXJQkvYPgENgzEIeAEL2IVaA4sG12eQwk1LcumzNAGfy243kcAp0BegmdQ2icgkGVNSoVklQ+4UanIEMHKeR1PO1oTgEO4QzzBHigCb0CEJ5h+Pzzw6l9pIVPO+IuRGPfbMQfiUVoSxNyxztBrsdSj8QaPUEuiTasPZCZmy1I9WQ7ZFTuqHJhnycOQtvY7xi7oI6lHuMprIEjiS417kOqJ9sho3KHYqzYl5wm06SCcK4nykVmOabYxUbIn3a8hqcd0Rglzqs2egporHja8T6edjRnYEMG7yHokEF6CXey17Av3ZLaV9ugepehdwjmFGYdwv3YQ1hxCIUKGnUKS9I5BDgEdQzXpJB0Bk7iFDhEgBPwh5nwGnZ8H8JewY7QX8POExedk+awJGXxIsWsBn1GJ9ejsA/kemzqSTCSAfbUY00PTh4LCYrjuCLodLmekpzYyjCy34tHjGSAodygPJv2d9RjRgbHFMcTSRKiV4xXsF/Dq9hf05DfZLAHndB7wHJ9OgI6A3UKfA07nYE6Ba5U7M0SXSJtg3QeQYcM5gwQHuMQ7nsPwYjOoBAmFb8XSZ0/KKTSFgaEJI6bxBGoU9A5hOIM3n1XewgyTOAdDXFCnMT8THoFLI+WCY6qcQgkM5AdsbZ6CUsiA/RyPUqde3RyG2pG5lflUpmJesQyezyG5BVymSgboo+07sBCbqDoqN8wkYlJW3WHTSGalg3Oed7me8MaoDTE8ig0LohCD6TxRoeAsFmHgKd/412GtfqbI3BKJxV9uJA4BF5fW1jFhvB81lijRIh7VszusZYXUeqKiO14tJBsRj+U5xWengzcjfsSXyMH9xE6YT8k+P6IIp/Ht+RSPk/CJsDzbREMl9HiVhhueWGSF0/h4UqFkxT3rDGsw71yLLV1p9/Ywb6B+widsB8SfH9ErXCljDfSgs+TsAko+QNycN/iVVmlTKZHwxP5kGbRHll6bBejNuTpJc8idAK2G5L2IHEIE4hGizcKaQy6P+eZRTyuPNAILV53Wmp+lBaxeE5V1CMWN/lUxtHYQdiRRw1jPUYTMkO5hhBIWMpmwL44BC6UgUPAk3aY5MWLOsQhXAsOAQtpuO7e9ZCCfU/TnSV51NDXoegByHuMTIyUBAkkLGXb0hN5LY5doVU5h8tTR6CYjiTC4oXXEKJLqFW1v/wLmUK2H6BJwilhkp1i0iHQosagvOzlYGGdqWeO8RTxCK0cLT+uPMAJwo/C126TtyXp0NnOEiqzzJt/jbfqHvHXdCfA4gMZgOkLuQFMD2XYOwDBIejquaviENhDwCz4iy/qk3EYzmFFnT2E48Rj5bo2AZ5gOwHTmef5Fp+WyXkKNvSM8qBX68poJUGx7zQF57d4wYZ8305iW7K84hQSaM44f4QJh1CsT3mZtZ5ASfYIwgFvhR84HFQQotwYIUC6xTtU9VHGyfJdPtOzJ6+niB15pcxdOkmgZQZ1eR0t9PRDBt4G7ocMklaGDCIjhmpDVKTHrKeIQX6mZ6ruQJYfaEtPQZde5JrzJMvvEPVEGmElqzWCncSqJXdTgIS2QRB2NI1Ysi4w10Mw3QVmzO2WJN/ZwIKLCW1qz4P9nq3h6QQK/wRisVkPi6+B+lcYj9ET41ug/hXeJg8nJl49jh7BMzJEQOPHCz9feYlvAiZhFhxvBMbtMXz/DxNQzz6rt4k5hBAHEbBleyW7QdSzpjMCbOv25xRFPQjnpAZ8rsejjFTOkj4J52W4IVjMSCStuyVtqCGmHEKjqOwgoqRlaLgGqDLxYBEDcZcgPOKJQgwYagfKaR+0DvP1cFS5nmRLjjnYMdQNU+awZj9AHALWz3N1KG53uQN49bUDPkSKmWaGTDPHIM4Cs9N49RfX30uvosXF1v08ci3JZhfs2O+yrdwtmR6SR5YoqXl2i7GaDnYsbC9ikbahc66H0GGps+4xTzZLwob/hIa+NwuXQmiyDIIezwoE20qIt1SBnZqQ8UY9FdjJSNHL9VTR7KS8S9sAEkaEfql2XTmJiKv9c88drr38cnUCJdRPlfOz5XAYwsNeAt4BKA7hcHI9sd/bc1LUMs/UvSZkvFFPBXZ6qqhyHm+pou5kfEpmO6OCmtBk+U5JCLC0ylsTPA3h1DHEvhHzmW6h7XhajbRYOISer1EgFPf7woEqQ0RITPNbkCXqYrwV1Gz7k51CJc8JW0eMKxrZQEvExM7mCsmWEooYV2QyoCU8ccK2cRL0Bxgy3NQ1IM89qx8LQcMXB+CkvQM4A3xQRPLpENBDgEO4xTsTikdZd+AY+x62yGUyeIaeTQuSTUOSVoG9kBLzW8Ygi61TRL8vKZIU7ToRYaekbWDcQ3ANQZMeDkZ2oDKXmEcYbigL2YguuDfEl9gtMMCMnodla0OvZJeZcmxwu1F6CFex7gBLWfGAC1asvYiFMVgxJ8TXhEvvAb0CpL8kISYbn5JeBYcMJ+xpkKZwUXU/FjuP2RBH6AGL0dJBbAMyFaaoYK+2ABNd07AyZOgL4thToBXePWoEZMfG5WJ8iE2GSVyUHuAnKBPaLBuv/Lx2q5HfGMQjt5hYxNDhySd0KIDJRltzgEZ/5Zb0JLA4CWvt0TsAL3oIwse7FCToVlP7cEzdM5ktPaP8vfYvSs+sxIBr2txaeZ2APqyQX3cLqqj0DlIoz5JGCPlrbCMsZFxfTyNkvGs0QsYbaYSMd41GyHhBtqwbDRcNGOsOcJvx5i1de4Bl42j0cBAnN4TH7iBgWAAePHMSH9UlnzgEOA5/ZR4JQpl90AgZ7xqNkPE6rSHjH9EaMn7QT4HMLgiocY15euVYw4RDWKI3uQ+Rf6+s4jip/0ZAQwXZFf3Ktets0Hr117UH2kOQho4rf+khCB8aP+Ya4BCwihF8ksYvGqOnUXoI9AaXWMDbxPISunreZsyrAutQ6zNK2/2BQ3AmV1D3NRbTLgLrurLcmnaR5fgVgT0EW6qMhoweAhwAXnQbeghs6GjkwAkcws3QQ5AhA/jccbiD4TMOKnKJHM1ZuecU9RlCF9oja8hFYmrQ32HgEBQuopMcZc/CkcoV2GxJ1OQ0RpvbdoHWJf/bgAdRNiC8qRrOgA7gMa4jwJ0FhrH7j8Z9esan6PBUHd49wZfn3rvPxq49CjgQ6VHAQTwp8phTkP0DbmFKr0Ntm137bS8hh8JCHJP2sMwfI+fcdVQHv8GedrLqEHo93M3SBvDzxMnTMiB5mZUwM6lyJxwFvf1IDxuZTac9APuICIngB+d9anzMBgZwFefTjNKQ8fgrlyWLU6BDuKlzBeC/d5dOQF9E85U+g4/3WOIFNKVXIU7liSd1gtFXLqJnYbch8VLceo++lOrCAJUZ/RTI7DqNwCxsAk9J2wk5qhYKyaYQU3Pw92/QCYzihqFDSHgLmjwpgJ4QS1LOSkVOIiW+QJajAlRpu5EN6S3l9iPFcj4Mymw6VT7ZG5LpSUlVeVT3LSH0EPhWKjoEvKXnmWVjvntP31spDoFv08Yr6/CFoLNTnVfAA1DiELjCEUueoSvogLny/D3qha0Vo1Ksb6SMN5LySSylVtfDocyuU+WTvUDMTtFnDBkbkKtsjGg3IbABEge5BICkiG63IHcIgbtRGNPN6Cyi/LxUD5Us8kFnxVL7zqJeOMb2R4XK05GqOV2+G8DVGg7hqq1MRA9Bhgv6aHNtzOzuCz96CHiJJ15cy5fSuEOQHgInEL2HAMeCCcZBD0G/FoQdJgUsEgL25Y2P4U+Dsf1xoTSnz8f+WGYBYaXEDhGA7Cw0dws0ndEU60MGIFWoiSt6C/oDWaKIDBVoRsx2/+dpuegytbEt8bj/sLGoe2p7u0DgiFwa9xTbk4DHCJGr0pjxCLP3EHwJ8uNYgnzCOQJ8DIdf1sZrur7++nD6xRdlHgGf5Icqvetgz0CInmtYwAQ9+MYA9UCR/TKLyvX7GTKeNo31CkmMZ2IPCan9BZaJnqJhKjQEuClRNirfl2WEEcuM7LZDaLAs0ZqNvgDlhDWU2IqSRVYmz9hSyfAAjNJ7uFoj6Bvq7DDiy9ORGEn5ir2ENB0RCQE0Tsz+Y/4AE4Lo6tujzegh4JV1uOLzo7niCM7wVutvvuELdE8//UzfW/n5F4dTSeMru27/qEMH6EJP44Xn9XmH+HwDegmYnBTb+n4BK5iXK+z6fkPEMrHs6e4CTB7kNSiKKpXyTGBoP01HolI5z0majADw0LG2X+JbQg5JZ9mG/FlmizmHYDoWeo1K3RuSTc9YYAfN4rsRdPNPohm1QIKSyozlClVu/mlKyB+SbAq/U8WSf0kKRMYUS6YOQQiLjKJD4CvApRFLnL0DUX4mwwK+u1KGCpg7OP3ss8N9cwhnX39zOPtOhg7oPWDoII0ePQS+Mh8PQcG54HYkhhJwCOU1a8tS4S9PxR+LkpJmCi1QM/knzL1sQ5Wz/Glq4BmSbAq/SHK/ouVtyUwkqBlLli5lwYAEJf6Jod4ucguwQyoRoW3s6yGYzm3VS45SLo8bRrpqOqrvsRBiU5nWsThajjUFIwOjdMcyj+ZjpYdw3U6TQHsE4Wodegh8+QmebkQjxthfegi8K/Djj+whnKLxdz0EOgT0HvD1LOkhUBeGHuJU8h6COSJzCvPYWc+jf8MMWzbbfP/p5n7DCucu4Yb4Ml8SeiUN1hQiby0/x5RDoFrXbeHY1DInVrTNlb2xoorCU5nbJGxqXoOxccNIriWoiZRjmdGYHwoiveZFOxQZkmzIAHjDlJ809BCueQ9BHIL2EGTIgFuL6CHw7sKXh/t4szVec49X3suQga/+xpABtx9PrIfw/POH63idOB6GsnckHDA5GXoIRCl4iBotyl/QJrZ7AgobQrQiS5Q0JAdqy4PEDG16z7b9GyotL2MVyxSH5dCGEHct7tEFkkRWEKHuEqnsEisOIdfAVDsoS44kJVejrKO8BGSVTT3QQK8kxgWZ8SRpgU4uE5m5WixYJIF3AZzKK7Mtn7gibUwaGK72mOnHSkNciUFo6CDM/uMuws1b2vCfsKXG0mivvfySPrGI5xDQK8ByZcjCCL6kjXUH33x7OMUXseAUMIkIB3Hnjk0yfn948K0OJ/ixEKTha9woE+zyWQj0PJ7VT4vjwyNwOrgtiXUO6JngLgTKB34vs9cBz1WgTiDr0ZDoVK7ocQXZMSprKyK63RQzIr3eKcUZWrmyJ/przqRuYYucC6k1NX7sOiRJQ6w4hNZ22xAFC+NLq2lBsrQea3IMsVmUyGCpa0dhkRUSOrkVLR1vJ1d2JYKdQDzJSdiPTgGOQJ0Bb/u5M8CSYjyViElB3D1AI78lDe9xOAPpzqMxYoyPdxm88bq+1wCPLktX3+cNHtzDXQUMFf4lQ4WvOaHIxo8PgKDBowz4ruYPPx5OxRFwboHDB1usBB5ptLx7IT0EPjrtH/zA69hwB8KdApyGOQaWFY4BZUdZ8Bg16lScQnAM8AkAnAF6Jwj9mDnxT8BNREiATMCCNaLwLrk6NQWtg0qYkOTJDFF27ikSkV1YyC8VIsUJKBwSKfEEqw6h0TICakpCXMmTLg6dMrNT4PtGeuIskluSDcu4SKho9wZwOTB7FHFC07HLkwiEkzwQnQI5BLxIqkPgwiC5muIjGrjCHk7siktngJ5BWFYsvQH0Cq6LQ7huDuGaOASuTBRZHg/pHeAzeZwfoEOQHgCHBmjsp4EHC5Wk94B1Cfh6Fu44YD5BHAKeoOR7FTAUgb3XXxWCQxBHxKGEPh2JJyrZU0AZ8T5GkeFj1ugpoD6oF8ic3hW+0BWnotSdx0jKciZl8uPkxw5gYL8vN5Fk43yGdm8AyiFUStQswOPVyRXqkaVtINqPqgvJhjwxwVBj+zF2CKY1Kvf4msHzFCZFUagnQQMkdIl77Y/49+oBFjKSwDT79XgS0QkI4etT5WQ3ZjQIcwhoJN5D4HoAPFzEK600MDoE6R2g0aHxYbiAHoI0TDZQ9BDQjYdDgBxUY7iA7j+GCbjylx6CNnaWj0MKcRroIXyFHsLXZfUinAaABs4hA+862OvX2EPwYYOUxx0CnBd6FKWH4MMG9BCc5BRk74DekDbkAJUeQlkajWTNDZEmusBa3gh7ZWbsNzzHFGoHovrefjnVgMgYkDqEygsN+EFsV9DrGehdx6yQ83XhSHxW7RYuSg9P8nLFx1URDVuv8mzMbNBOcmXFG41whUVDlu6+fiH4SX0wCfQMSBodSZwAFgvhLgIaJ96ChCEDGig/KIqrtd0JwG8ojR4N29cfsBeAT43jE2Gn5hDuSg9BHAKdBr+t6ROM5jTQQ5Dyc0k01jfAHnojeHsz39Rsb17Ca9qwIAplxApHEJyIhXz8GvVCHTHPIcTHrFH/rnfBoRLqYE6jfyU8kP1eM79hz3Ps7x7lljpCyjpjRZ+3wjvK8vTYdmew+LYjToD7H350OBXCNx4Zt4+9chGLhP3n4BkKVm1L5pUn5Qfnjy8nh5wQGIde/827hxMhhPjGI05G2qFNu0eOsrA8H7Nc6E667ULnhGvYqgMRzBW5eBhRHpzAgXhi4+qKk9zG1UxnPrrNEvJqibE14p6m++xWI+S+drvJI0MJOgs0MnccaGRwLGxkQtKg7v3t74f7Qh7yd8RTjmjw1lPwxsq7CBJeF+eC3+Tk3bf169zS++BSZ/B7KPKcZ2AIXUJwPiTp9sORWG8Ivxt7Rbj643hZD4nHDjyQwVwHZITObt/hV48xz6G9FDgu9ByE3+X9F5Cg/BYWpvBMZxYguioDJHIpUC7UycoIJ495neuv4/uOSnxFnQy5cP7jDhDqFH+be3/Dx17168/4fXhc47cdE7BYsOuhlYMXDdhxm9KbYzmsPJgD4pDUMO8QzBkg3juE7CA1Sg28+uGqB6dAh/DicQ4BJw/W67v9CWTlmZHs5aasoUxouOgRWDeZdccVEld3hGiodAZK1SH0aaLH47avTkFD9jq8l/EYrrAS+mQe7kJICNz7y18P9/70l8O9PythSMAhxG3pEWCO4O7dooNdfonDAVz/3W8PJ0bX335LG2bfUPEJfxLShMwJuFPgikfOC6AxG9kJq4QhlKTBgaC3Yo6EC6fwJKYR9eO3J0GPhBu4qN8dmPrtISh1Kg0SDiE4AzoEcwZbDoHOGj06OAU5rj3S8rhtiz80h6AN1EJxCNoY5T9plNnBBNgozBnMOQQJP/28lKNxCG4XjsH0jzAqD7AmO5IbyuDHQCjl8nEzewJC157HbTrpWuO2ID6GgncUWCMvjZ1Lj0U2xJlOnhCnk4BDkH04BdjBj0p76GJLHD0IOAvJx/G695//RbqL8D/+i+sNDnja8d5dDaUBlvLaLUOcyDf+7Q+Hk3/74+HGH/5wuP7bd/UqjkYuDZcNH1f0e/d0jgKENDoDbbh1rkQdAU837uvxcqKziHKi5/TTT3XRFC4KEnI+w3sQFpbfIvlR+FsMMPwNBcfKAe4IlORn6h2CNEC+5HbGIUh9+a4KOIbEIQCL8uBYmn2E1zB8ozMwmxfqEDz84fviCHqH0ChzWGLpIVgvAW/2VYfwm3WH4GUROv3w49YhwLTZr6WoSMvTYUquSwhVVuAHsJCNlldpu1JLeP2VVw7X33pD6M3D9TfflB/mZeWzhq5OQOLuCEr9NB9hw+tDCOaZjMclWoBySXfz7v/9D6H/R7ondCpXXzZMb7AgOhqRh5OR8Nqbbxxu/M//IfTvhxv/498PJ3/4vepEmRyobyS7Q4AruIbQ7/lwBBrXk5YKdJ9l0fJw0lUa/P333z/cf0/o/Q8YcpJTnBdvj8KJSYi6lktCLJaFDbrEWA3HphztLVFYrH5KcjijQ0CPS8Jth/B3cwjWO6BDGA8ZYnncGYAQ96dddYgidjccgvz68xAzihJpok28IE3sMWaSallMIFHdj1TRp7S5Y/R8C7lEEY55AQ6+hQ40KN5iw7wBuuByYnACDWN0DBvwOnSfHJQhBMb/nGzDuL/M0ptTsSs/JwjRYHEKoAHhKnlHGod0+9Fr4xUF3WvcIcDqw48/UWf6wT94tUU6u6A4uUSWE4XQ4+Vmo5QGLOnljgNWM4pzxrMO0MNeGlY1cpnz1zo5iTGu2GeX/q7qpjOAWpQXvRUMnVAPzKFI3fiyVzkmtddo8x82pLqG44M0DK04wSiycuJq7yg4PbFRzwlFjQUkic1vKJiSk/2YhHgqB/h5seAaSuTYYM+ym7Sys2136BBaUex5ioUxSRCiFV0iDg//eKAQMtHCpQZPMW7f8dgQyN/i6eH8e+S8yAyw44QUnLQ4gdGgOcaXkx8NAQuKMLbHCc6uufCgoWCdgXXxtdGbTr/KopHhqiiNmRN7uDUoDZLzOp99oV3rj6WhSoO9/48PeXXFlYZzBn/6szoFNGJxGuze4yos+ssVhfYQlTTk4QqP16vBIYgDwBX67n/96XDvL6Lv73Ilw1X7H9JjwzMQyJdu/enn4oS+0NuVdBS4suGuBeYacGXH3IA7IO/5oL6oN44VrlR0Gn5sfP0CblmaQ4RzoUMQeZYbheY/9xn2SBMVoepLjOQkHVmjbOYbT2RCNOyuY5pRQd002gku9CQ8AUOHkKMqKjFRXgoSiCdW93cuQC0DjcBMQbCbEcuSkGwWfP0+qfuTzEKUiaCshOjO4zsHuCLa1VCv/LjqY8JPCGsK7OqvDUJOeHTXcbL7CY+GaVfsA155JmNJOASsJsRtQV690RDFIdz/RK7iGFpJ47/3d3EIf8VE4p+1IUsDRq+BdwTQO0DDtMbJmlg9adPyYAtDi/vS4OEEOA8hDub+X+EQpCv/oTge9hjEKcAh4fHpL+0BKXEInCUvDkHKbj0S2CPMIdARov48FiA7PuYU4vGJDlPLq7Gy5fGvlP1++FNuJf6GHW3KdfyRIl/Zw2YLFM8ZWZ6OZNOSo9+PKMlarh6rDoF6GeFuBySmGYPUOazLeq7aLgelg+ZWGuHC8rwcQiwTICctT2A0/sfDMIAOAT2EesLDKfBDKOwhyE9iJzz1oXFiXA2ngEaFbjl7CLoEmQ8k0SFI7wDdevQQPpCGKlf0e3/9Gx3Cvf+SHgKu6MLH9yZaD6GO7a3MHrc7AmfoIWCmHz2Av7+nE5K4U4Gex3voIahDgMPQyT/0EKTHgh4CZ8m/l/LKUAJ3JGzCkXYBc3ps4LzyC7HRyzFhD8GcQnESkofJUjoEd5j4D2XvsEypGOUhfUsu0hQGjDFZi19TUC/+SdJAfJheQKVG+NegUIYVh2AiooUx311sW2RpY5junRjJIH2vvox/RkcqxyNuhEEuGjbuBnDNAK7+1ti9McBp4AppV0k92asz0KEChgnuBOSKiy48rsC4JYvGh0aIiVf2EKThulPA1VscA3oGcAacQ4AcHmbClfqBXKlLedUk4khjOq7k0s1Ht//0K+mFfCR6McGHeYR/yPADk83eO4Bd0c9hgzsFPgshDusbm2OAXdxLx10E6AdwHOIx4PGSNIDlEgIPwGOGkDvYCFRPccIBy5Qlep4ZmR6QiXJ5fJ/mUh8G2Izls5xFWtGzDTv7jkc0s2rSM/vwnIAapyE2GGLWHj0LOWvoZJNGp88OyJUcq/7wVmOGQriConFiEhD37zEcsAbgPQI4grM7d9n1Rg8AV2OM3+9iTgBXfnTZpWHqFRpddrlKszFKjwG2fAyPHgWGGpiDgF70CgJ0L24NaHMoExwDxv5wTNJDwRAADRzrA9joZZhAR1CckQxZUC44DvQipGdxD/MXGK6gTFJf9nhQT6szgLLhXvsD9CxEL3sdHIKIDUyUYjLUhx/3rYcTnAW1uC5uDc3OEhvZFRN6FnaZ4KlNrqDfX0HRlaNk4fzpeS2+It5g2iHwWk5jHlbiVUWiDToeQPmUNyTPIwhuygbegpgW0wVJkiLjD2l+OAhzCABPWmmMbPTiBHhiR4JTwJXTHYJ33zFnYPf40dXGXAHeV4BGRWcAQpddGprO+mNiz7rtnNiDQxB7aES4h407EJiMRK8ADRG3/lhilJVF1arAdgNkym9lDkrLgyEL7mZI4/zmG9ajzl+IQ2DP5CMpq/ZM7r0nzgATkCin8PD5CV9cBL1eZwA2JO8UQyFMlMLJYYgD54ZhC2ziTor0MsqQp4PWwyNGQJYWkCZHfs/M0npYXslu+EZCijQ3JiIeKaAmWawmeCCosRE2HUJU4c2+NWB7bBlKteG3f/sQdBOdvJrS1GC7UJGPJej+MrlA43r0JHBH4KFckdlDwAkeHQJuCbKXoD0ENAIOC3iPXgTlRC9XZIzhcTdBHAInCv9sqw2lh8A5AjS0D6URYqafXXZpnLiTUHoIGMNLA8TcQ+ghsNTmDFJIHvJxGGJ52GPxHgIaKRouegh0CNI7EMd07x/WQ6BDwJ0OdVx0ViIDB6jrDVBfkBgBwSHAeaG+olcdnNQHx0zkcBz13Q1wCGFy0o53BWtHGv65zQGNfnf8CUOlTg7U8mXo03O+RoNEqubw19tvoDx7seoQUnVMHBsbysSMReHX0At3EF1rHDQVqcNQzsKCoGNUfH/whtm4orKHIFc29AY4ZKjDBn3XgOTFIYNI6hXZewjSANFA0OgwZJDewV3c9vsrJvUwZMCknjRAdNXjpB5sYJb/e+iHQ0APQQiNjj0ExaAaIV3Lwx4LHJQPGXD3AA4Bzg09BGnspYfAIYOU9QMZLsAh+JDhUwwZpGGjPCgH9MI52cFkGo4XewiiF/psyOCPatM2HQLqIvXwYz2CHtJYoYKRXJoe9KzJjfLGWEqUFIsUvSXSIkliop/36jRKcs4fMDVkoJKgtIkH9PtETEQ8ZWpRWCTiIpWwdcR4vyf7fQKQpXWYYMl1B/BkxxoCNGxvSHaycwIOE3LSgOkg/ik9BZ90w1p+ASfZMNt+C19jflxXd2IRExY3IR0TcGhEuPo7Ya4AIWySvGsersRduftqLKqFBMihe2+6in44GhAcWiRpqLhDwNWoeCqyPBr9hN51wQQqgIYtDhHDBN5ChSPAHIj1ONBT4N0KHBuxg/pqGVgo1SGosYrF75MwTbBMMaVygBdij4yg5C0j24JCKcuaXMDYIUQFHu/ThLKsgjRRwYaNfDtoPSuzNBp2ZOOhRhbw1DzX0GXG3VRuoCyedEsWSeE/cmSLj6Jwxl5OelzR0d3HFRVXdfQc2CWW3oI0NGntbPTaoPAmJCx7flMfMnrnbb7bkI83S6PTLnMg7vuuxTfgZV/UISZEVR6HfpKcRnBQuEty/YTlvo7nVN5+63Djj3843PjD76X8b+lzHFiRiXIL6CjRS8IQQY5DmZw0Yu8Awyqs44dzjegKG3cXzsCRpHtSKjLQs/67C5BoGR6FTIkLnQudgrg70s10bCIlyB2CM6eC7TUaOzxAGTWoidzKxlM01dDsCOK+x3sh3zeK3aQhul+Iu2G/oYJFwliOkIhkkkeucHQI6CHQIUiXGmN/OATcnkMXH+NrXNWlkWFxDh5f5hVWHAAa1MnvfnO4Lg4B7yFAbwG9B7bO0jB1VxssNwrklQwtk5LuelLcJ/UoKiXicbeN26u8xWovZX3pxcMJnNgff89nIBDnQ11Ypi3ODnCHwJ4BnAF6BiRxBuIQOMT69judN8AQoUdXXq/WKmbrDmrQJhRbGRkYDft9fhP3HefhrmwseYGkDohG9PsLJAzjHkKDzgkINo01qNzU5Lt96MB+nxZQslI+T1hRMMXTI/JOyIHFCRv2EL7nEEEdgoz/4RA4ky7DBuka844DeghX4RBkWICXpz73HF+NdvLWG3QIJ+/gSmsOwXsIxRl43PctbYiJevQo6mBDiesprIdAh4AnWcUhoFeD3sGN3/9OH+qSHgLftYCFWAI6BOs1aQ9BnCPmQj7ROYnTL+W44C7NHfQQEoewG7G+e+ruvPMyLWcnh92Y5HGGzU4II9byFDGnxBEZixDbDsGVCFVdGqv7a8i45iQd4O4lcg0zXHOatjEjBx4hcd8cc2O8zPv30kX2ScDPdREPJxo5XpZeAmbRBVjpyPkDPLEmw4YT6SVcf+MNOgi8sYhvHQoP/rDL7g6heISIY+vagarVDh2BOAE08quc73hCnJU+6o2n+zjEQe/AnYENFzB/wNuIOB6YPMSxgFPAHALuXpTjYfMHF+IQjkF/zPYew2OOuV2AU9Ht8sSUomfJlmLoEFS+17K3p1BzEePeukAL4S3sFo8lqLE1zHBt8Wg+ti3nmlzNczmmlAYrNbktDuKbbziBdhez8bhFh4eSfEkwutEYStyxx3zR4KRnwMb2xuuHk3ffPZzY1bd2x6XBwTFwVSSEYHQNa3UA2nqw7OwNmCPAA1twWBjWSONHeXR48KKWh70BqStuodrwgD0kEu5K6J0J9Ay4TgEOgL0k63XwWF0EsnrurHvBuhxzy5gCcds/FpuibmfZPq0wjDrW1A0dwjagVslvHUWgaJUjQZqYICrweLCnMc8YwfO3eJaI9XD4vlLMUQzr7s4AJBm4hYZGwEk0v0WHpcZwCNJYeBcCQwncfZCWjd4AZuvZHX9dHMJv3tHu+JtvaAPE49NY8w+HwMaEnxcNalGSDnleWo/iEDA8EJIy4VFlzGtgEvHk978VB4XyiINCeTBfIMJxvoD1xXAJToEOwZyfHAudWD218tfjlZdwFmvSeV5W97ivuUuUtQEG7iLkDjbzaNmLlgGsRJ39JWLekm+HQ4ChElMg4mlSiEglrxAKjMixcEW2pQ3bt+j5qa3Dsh5k6tKQtCYDwsZQTnD5Yw/BnyZED+HvusIP9/HRSHDVZA9BHILI1B6COAT0EPByGe8hlPG59hD01eawpea3qa3Dsh7YSACduHrD6XgP4dlndZ7jHTgELw96CE/pg1uQYw/BViE2vQOhD8X5oa5faw8Bt2rZO3AyZGWcIy3+mJYybd1pfJGWygW0e4Y0cQwzJbq3qYEktOWRfYutYeAQqijUYK+k2M6iACtwHZTT4NwoOvYU5ByIx8FqM4VGTtoSL9h2kmORDocM0kDoEIT4AJE9o8CZ9zBkwLsUSg/BHcIfvIuuQwY2wDhkoMHzotaBTgblZw8BDkGcFHsIMmR4++3DDSlPM4TxIYNPIOJxbTqE0DsAYU4FC5DCkIFEp3YRdTge9TfkEZhCxjkvfX5UW+G3K6njmuiZGTHiFFTFihXWgrFp08bsGU2KyDkvdfGYOTlynnByY5EPFufg6vmjLQkWB6C34T6XnoM0ElxRy3MJt3VxjjQUzBXgDUzXnnlWu+Z43wIW/eARYmmofMWa8PlS6vOgqYU7BNiALZQDvYQn8RJZvPHomQNfCIN8PFEJR8DJQ6kXJgq/+II9Iq6o9BWI0lMCX1mBCCf/iJ2Ao/8N5353Ay9WQr3IigqIuBjBcEUgQeTuJbfULR3CTqwVNT94kqb/++ACXY9gt54jMDoJ1k6OTRmpR+Hwk5/Ld31FozQY3I/H0mBpPHz2AbPueFWZNB40Nq5mvCVXYLkK8zYlrsa424DGiF5C/37FI9DUA1EsmvLegduFU/AwrKLkHAkWHuFOAlciSp0+02cfuLwaz1qg90O9UlA7DhfhxC4Cm79hAuaUVu0Y80csuZACXbq3CZxTXftQ2VkFaw4BOlxPjEukUW+FyKjIOQEeCsCyB4WduqtwZvsiqalDRxk/KON1Io9ECT/5JcR6fgwjeDVF1xpXUtyOQ48Bz0Ogp/C9NCLehhMNmNRjI9QGqS8YEWdAhyA/LRqmeIS+bHuoKbuAL3qFs6FDQA8hOAWLw2lg2TZ7PhgmoCeAxVeoE+oDR4f6SJ46N1GOskan0JXjUVBT944yfpBshKGi7DJs89YBXRYVZLYWZLyyQ6r7gTYwdggNTFNQigLQ8Lkxo8ONNoHav5AyPGJYQyhrFaQn4A7hPt6XiO71V3KFxXxC6SE8kCu1NMrQENkY+WYhSUej5W1HbWAXBvQ6vIfg35uEfZYBjummNm70dmSIwyEBeggcLkg9pMfDyVLvIWCogN/QncFFl/cRws/M+TO0ciIWaS8ok7WNDWXbDiFTcGwjLGISsfisJuWr3LNyvyhgToFX1e+1i11eWCpXWKzpR+8ALxHBWBu/gfQCdM7AhgnoMTRvZtr+eXdDGqyvStRvP6gD8t4JSXj4klY0djzUhWEDnJw7BvR48OwGXq+G3k50CL8S7D0/2yYVdhjdp63lHsgOkneeMVOmLh40pNZCR+hXjFpHXQkoDR0NDj0AhGiMABwI3lWAWXkQ3nkAZ4E0TD5idZ+faQiNShcT8k64osf9wE9yYKJQ8vmwEdYL4NFo2KJN6IGs27VG3vVUVBv0MvKrQ6kWj0FbyZ+6ytXenOUdDkEVnqdC87ItZ7PHHU2Z1/fLQa2TxaQhcWiAKy/nCsISZTRccwYcbhjROWC23ho2yTSWho5G7WFDnu+OI8h5KHza+N2eOyAn5eWEJsrJyU3uaK1ML6Oa8uuDHy9u23ruq7Fw7xNosRBfV7bhEDJV2z+hnkhLKrJbCgxuz1FiRYmneHxpc4tGyHgbAk9GGe8KrQJtyLvn1kNgTwFjeMniB0XdEbB3YL0Ea6C8kkcbiEdqHIERru7uFCJRXOPUC/2w484A+yTXozLqEJw0qcJ4OvTHaJNGfxmv0Roy/hFtAiwzfCmqXGYb1KOkxPyEL+qOWHEILtAJ5noKskL22OZwHqkUwxZt2oy2MWbKO40L1AVNrL10t+kA0EMwh6B3DwTS8JpegTkG7SHgSh0aJkIhP5Eagp5IJc/KQHkN6CzAA/3RLp2COgPIKr/NN5QFUuoRNL9obsC8vUgVWTjAyM5e+ym/pXlOCQNrItViknfN/hKbVnOHsBTTk6MYQkjif8HmwUR24eGORjdhJ4/IFoleVPa3zA8R5ahnQhF4OrljQFu9rFxN0ZC4/Bjkk4WYvINzCA7B30+oV+dwpQ6Nm2WFDO4MwKncuqlPUT79NF/AgseS8el3rC689txzusAIi4swRIED4hBF7IkezA+wFwAbcARGdAoeR7mEn9+Y4N0I0cHboaLHJzw7J0EceQyJKDupp/+dp373BFHuSBUB1tY0OleVwg8B3alytl8TVmFnVo6iY6hMMlgIBEOmFAvuLfEun7uyoVmE2D8SdDNFzx5NVc42R8HtUwMbixAbkzR+OgM0JIRwEpLubUgqj0av4/bqGBgniUYJXS/mH/g5OaxwjO9Z+O1v9M1Gv3mHS6Kv40EpfFsR35m8dUvvIog8bfXOAJOYNpnJx7bhEPCjYIgAZ8BbkupYqAfzIeYUuKZB/lk+2ew79gkgvlOFOkwLzwHXY5sYTTDIaJLtaKwrIprzZw2bDPKzWLiKVo/uxbTFD4ndjnDAEFXUmOZZfAbg7fgX4s5jRNv+g/VkQOn6erhcTy0WihZEmS6NFCCaZYsGIkSHAGegPQJ3BozHGXvoRYP3hmqOYTHbD4IzQe9Arvx8P6M5BDx3cON3v9XPvuNxanEI7Ck8Iw4B7zbAW5lwhYdN0cNeBx2CEB0BHAPubNSQjogrGtEj0bUJ5Q4Jegm2rFrroXXR+hsQ7agc+y6dNILkuVykXkZSLWbAbkdFrqeAoifkdSybgBmGGihkZ8s+bXdpRNkPtex5AtYdgghW2UQLkjLqUIvSFsorP4uGPcojjBQQLDbxgigXiD/AAMMfB9TBbSJcZEc5zzSHUHoF7GZb3K6spRGhHOYMuDLQHEHpMaDxIhQ+vt7s5Ib0EG5ZDwEvXZEewpvSQ/jNu3yzER6nbnoI5fkI6yGInuoQvHfgPQQ4BHEGyIMjguNC76YsWhJngHkQq8cV3nkAsSrL4xAQj1xyFFvZQCmvgOmBb0EdXM+sbQQAQ9upp1OJTKLyb9p3cF821WgFki2aIXcIUaKXxj6NLbMyLCoBuRnBFTTiO3WlB7XDw+PZkEHjEIfAYQGcgHex3SmgUZcrq+hio/fGL/vsEYBUj/c0eGVGw+bbm586XHtWnMGLL0gP4RV9avKdtw83ZNiApybxliO+DPX559Up4K1M+C4lGjWGAMW+AHYxRCHpcIFOAT8w6gF+OILSO5CeRun1iB6fR1g5LCtZq9j6fWZ+P6Dnm5XLEWXX9Egesq2htFJrcgA4Op4tkQD5VSYBpUJVtyaMbKW53NW0kVyFcUhQJPhv6YZ2T4E0pSxX08d581jTsW57ZCc0YjqC6gza3oHogAPwrjsboCSDDw3PXrvGOQK8+Rhva8awAI3+txa+/bZOJL7wAicR+cQi3rWAtyWLk7jx7jvku2H8HFZIiCEGJiHxUhR1FDe1kUvZWCfrkZQaoheAHgHqhB4DeN0poD5xCBSgxynoCRjnKDR3G2t8qj/Pd/sZPF17kaaFiZrj+Rk8T/kVGb/aH+W0wD7TMvYEOMOm4Tpb3bV4kXquJTa4qiKGhY/pbcWZFEgROXJ4yePfjFxElKrSWzoqVyTvIbABwRFwZt4bj/cOjNm67rwyoxFSDjLiEKShosHqpOGb1rDhDBC+yxCOAq9zZ09AhhCYbLz2zNMyXHjhcIJ3Ib77tvIJv8sizjkGvIxFehmwwyctzSGgcKUhoIwoE3oKyIOzolMQJ8feAmRkHw5D4Mff/7ahPNi2pOmzcP5WB6DbMVSylRF4/Rsk+31SgWdYybAZ8IKj/atYEVvFtENQ5dXE0pgXQchPCI+S2gKvoeWzvV7YFcd4Q0mSEXU5jWC8LUkdGDGeAiQYeb5HSSrn+5pfMiuhtfOqaQ3Hutg6n4B0IV5Nhde66+ghuCzH57iTAIfgL2a1HoJf5UtP4R1xCOwhiENgD8Fez4YeAh2C9RBcxuSuv4kewss6nOCtSQwHvHFLMeCoWB4WSdKtTig/nICT14n1EUAkoXh4Iml+s2MUYNkt2W8YoGdmIDJaUMh+P+NS+B4yqt6an8TBx702T1FT+jzaNmKmUwImW74VacS6gPwi+4DquPLMCAuN0EjhMZO1TC/sCMZW4PEm7JRgz2kErYP+4T/DMrmmUC6DqXNSRF6NL3kM0jY42cbGog1HH1ZC70DSvHtNYSkFHYL3ECQNDYxDBun+l9uK+j0HNmiEvNILlSGDOISnntLbkfH1bO/WnoHLYfiA25ScY0APAZOOmB9gA9dTyScxFeKkUF5xCOrUpB6YWJQysm5Wp/44+G+DvxF4CIxSNklbJteU3ik4kIycNtf3LFNjhTytR8yjuYFNheZlLH1Sc3y6TO5aWi83g6FDiMq8kMWYJPCA6n9BXt+QiGgn0+6M4ExL5pgzparj4mGNSRJf1mOp2evv6HYNy5Q+Le49QKuWBoIuNoYMOt62rrb3EPxqi8aFeQYbIpTxvzRydPkxHMCkIRovvqKkdw2e0AYsOuhM8Hgy3tJk30XQdxTgiUp8GEV6HmIHcwS+boHOAvqgW+xcf+019kI47MBbm2zNQr0zgvLCmVnI+liZPZ93GuDN9FjwJG+gqWtgbmSR+FIiSel+6OXvDvSJsh+TlrsVrrBJnICfTBZUBZYY0Jy/IbtykcPiMT2H/BoDbEkSwmSFnzuYDk9HGGkDZFnyjSVdb6QMdlCFlMN5nXLwQOM/ZRnL9XnYYwou/mgc1uC1h2CNi1dTvdKy0aFRYcWhdNsxPLj+ykuHE+nOs4v/G7myy5UcPQR+VxELjISftwzhBP75Dd9LcO+jT/hS17t/+dvhzp/+rB+RxUte8cZnvKkJ71/Aa9ukghgaYGiBSUg4GtyuZK8Bcw2vi3OQnsY13JHgIqQbQii79RzgDKwedAo+N0JHUZ2Bb3P4UXJqwRTL0lzbKZSjXNhSlpGcysTsZleUVWcTmLawYJWEKT16/mrD7ykEFnpC2Q0YOwRBFYAp2dP/Ao8vCmIHhIUshDzAw70wOQTUHfRUIx0hr0sK1BYFtWgTlzKdXUGVMTIe5XfCpmXrGJTYQ6gNiI2nDBnEGeBqinw4BEzmofGhd4AJRBnXn7wtDuH3NkcgzuHaq+4QpKGimy4OAe9u5Jue8UXpjz4uDuHuf/7pcPevf9NPzIuj4JeXhQ+9BQC2rmGpszT866/Z3AQdwrt6q/LFF3TowTUHmGjExKGV2xycOjJzZt6LEAeImusxQJhTf6jqb1HJ/3Rf0cqAsLFMQ5UxEp70N2yA/Y6MGXtL5KlTqKobalUisQaA7QYsU3qsOgSgiDOiCpu0hBC00JQm3XiJpcAU/KRYE695Sy6mYJMQD/giQ1FOqoQQtNCU9VIaFy6WNuaOtx21yw1C7wENSxoU7u97DwHrCvyOAj6U8ltppLg9yO585hC0h4BXod99731xCH893PkvOATrIeAtyPgmBF7MsughiEN4VYYlsIVPy/3mncMJhg64fek9BFuExDo0PRsru/UQyq1Uqdba0fEjmHHxdxrQ6Dfkb9EnB0LQQlPWfneQRxswYZE6hSqVaq6q++yYZgdo6dByyK+xBlHSK3IjA/3L5Jhickxacp4HY23FYAgrMjltvFlORS7Xo03JnAJSPJVzCNIL4Eo+XEHZQ7ArqTUen1/g5CGuxPhWAxoqFhph/gAfS5HuvK4VeNbmDcQZCM7u6vcl8dYiNHg2fHwD4u/vqTPAx2LwkZhPpIeAV8Djxa54LTqeURBHVecTZIgi+k/eeIPzFTrJWOcotAcghHJ7meEQ3Ml5DwHOgvMHoP5oRcSc/Bj22PoNs98C2NK+9RteGIrCaDG3HeH19nABSx75hw2HsI2od2CjIjBs8vYwgTW5Pi/78TINazpnMasjL5MCM/J84AcNhb0DIzQmDCN8yGCNzONUiVWCaPByRcfrydDlv/ePfxzu/vkvh9v/9z8Od/7zvw53//QXDg/4DQg0fE4kSqO3V7Od4kMqcBaffib5H0nvAY7ib4c7f/7z4c5//Olw5//9pw4rPvxIhxT89uKPOglZ7nbAqQVifaSMcGjm5FAnHQpJGuoU0B+dteM1wvxv0WJebpLTWt2sXkfhTwWXiXv1r6H9NUZILPZJeTHz1AyjdKB6M4mMXJvBc9d/tGUeUpxmcYwMgLKlctJ22Nj9asorqfUS2PhDQxOiU0BcjgnvGty9p5OGaNh0CB9KY5bhwP9Th4CJw7t//evh7t/QE5BGLQ3/vt1Z8Fem38cdB6R/iJ6DDCfEAcCRUF70YJ+fmisOQXoQd8Qh4JkGOATWw8rI8qLcINRJCPWxHkJzKzXAj8t0wxP48ZyXUFRbPda1DX9DRzlPxzrWsC61zEXKUGZHEeYcwgYW9nAwvISRBljJamGMq+MhNI6R/YZks6pnhfYgkyfJZmHfGrk1nDIOh0Owq2nTM7CGh/rCIZzhk/NwCNJQ2UP44EP2EO6ghyBXeO8h8MOy3kP4SnoIvNXotyC9hyCymF9AD8Ecwm32EGRoYT0EvC4eDuGMDiHvIWiPB05O64U7DJzPsB4C1yn0QH14fBDvaA8yeaeAblcSJCXyDgmbMZxNN0fClSxINmv2nW8n5FfagRkDGwcJcI49Ze75ZuU2MVHeBS7MeAc2Iu0h6Lp/u5LCQYSrqS/2YUNDiDrgmQb2EO7okOEL7SHwluJ//KdOGopzYIOmQ0APQRwCJhhlyIBGffqd9Cykx4D5A+Tfe+8D8tOp/KcMGf5Dhh0+ZMBn2/HmZAwZRJZDFj72rGXkdIjF3cn5mgo6OwwfWCfJE7aCrd9j9thv8Y3y954PGb+kldSd6nYjtW/hEVh3CKbY9TPEhgQvjoSArHDHIKoJ8UZ7POgAdo61H+WoR6OrgMwa31a+I/JJnG8kwpUWjzKjkUlX/OyOXPl/lIaHV5rjwyd4pbk0XHwJCVd5NGD9ovLH2lgxWYhvJ34qabibwO86CD8+mIJGjCECuvrSK+CXk/ByE3+/gew/wMdi8AUpfFNB+Ok0ZCjBz7DBHm19crj3kTgNksT5DQkpB3odsIfy4bXrkIce2pOeBJwW6oUl13hkm09p1vpPYYtvUs1Cz6z9HlFOoqmWCdVggapO3TZcgMKdTNy3SL8fse4QIhJhJNauXcqgWU6FxSMlYRqNhCikTt0w6WhAB1Us9bj2nrgtCYgH8uSElpBUkeF7BHilFwdwxxolrt7/kkaMrznh6v05Ppb6qQ4H/vYebxlyjP+nP0sv4M+Hu+gJ4CvS4hjw/QMMA9jIMcbHPANsSU9D31akV3Itk5WsXOGN4KBsfqIZjmDSEb2HP4l99DycUB70QN7/hzonfo5OehNwSHAQdA7aq+A3GfBwVjhm03CZQkgz8roExOxIVZZ7CzhfpBRWDh5fR8/s+4mSpfmoKRHoYQqGnJKBvC1Nkw6hVjRT6LmFZMNxrUYqAYxrlIjxACZnfAgbmc42SDZL0vK0JOmNLP7CvvEpYyADYirTyRkVUA6hUlFVk0h4pwFfbY7GKw1Gr9I/6Oy/NKb7X3+jQ4FP5IqM4YA0vDveEDE/4E5BGip7CXKl9s+llbsAMMzGjq66hOyvd88TSLqP7fXNzug92HDkn3YHQxo75xeKM4BjEIJDgEP6QBwCyoCeA4YX0sM4++Zb7XWgXugtuJOScvkxKCSbluTYgHq+QvEvpJucKTGSDAOiSxnQQC5PKlTQ7ATE9BGPQLOMQQIvT0vKUQibAE1vOIzGWHEIKtiKq8KSprtL0k0DTylhYVnyRiC3Z2UQM/oj0yBNNEi6Zy8ImyWYuvglepJNICRpRgckFRI+NAybCzi7jWGCXJHZQ9CvQvP7iNIY0cjgELh+AHMEuJMgjRKTf3fhENAgpTFiSMEegjiEA15vJo2PZUJjDz0EgsXzNCGM7QGUC41WGi/nGdBDgFOCQxA7cAZ3sLAJjoCE25rv24pHcQi4Y+E9hG9lyBJ7CHAIGDrYcWqOR4OQUHidkDYibFpolmwLT0K6aaApy/QiQ5KNl8mTQDVpAr0w9waQzJ7P4nAYpf6IasyAvTbFMXAIehJTJNamhJLv8QXaDOxV8Zgn8Za1BbONIWEt+6UgPccsMrllGlKipbYujsjV7mm85lUELjgE9hDkio4GY0MGzhnIOP7+lxgyiEPA/ADvAtik39+kEWKyD3cQEL7/AZ0GGqF+HBY9BIzZYw8BBKPctCj5QiyT9RDQa5EGfYpyoJcC+xgeyNDlHpwDhjAI38dtTesh2JDhPucw0EOQ8ki96pBBdJ/rNwzHr8EyLabkvwXQpmPPUzSeyUUuAFyW5skh2qOkLyOCcUkVfa7bNiyzV7ExZGiluVeSOsPEhjXDVhUbNPbqVmO9nq39ESLfUmasZV0uQyx/L8NuoDSQs3v3D2d3dchAZ/DlV9or+OAD9gzYDcfVH0uL0eDRk0CjbxqXAA16E7EMbXmAkhJ1MWoOA2WW4YhPfHLCUnozdF6ffX64h8lHOAV8Cp7lxW1KKSsmF+H83EkVIN7TXixlMi3b50+OpVwL5mLTRIT0X1EiQLNjh0PT2pwRjAu/hcYajHUsczYcQsBAK4vAGrQMyxRBl1iLL+GC2RGFLAy8S7GOdxrgH2vLoHnHyiXgeB3DBmksmFiUhs5biMUhYKJOhgrSDeeHYDGMwJBC+NjAvPsd4Vf6iJ5nUKLGufRwlZj34DBHyitDgVNxCPpRVykzezPivD6RYQMmOMW5aY+lDhf4Utg1O9OADqcWa9qbczAg11ShckuupCkEDDMMojWwjMqWw7ixadg9QahJzzHlEGrli2qF7TBAGKgwkjwRu4iXXWa3CCkx0+MiyCg2lubqKwnPYr9Pm6E0Uchsx6SOIk+bOZbDRrvnevuPV1zctpOrKyYS72LmPvQQeBsRV2Q6BPQQMGOPf50kXCXYkkil5f4CxbkYSZxyuI1YeggypJChARc4WQ+Bwxf2EMQhcGWj8NIh6ERna7cnlCtSxrNGaaKQVMEo0xvza0abHvmdKkQnGRENGWTUXEYGYI5ng1/k3MaIGjCtlMCAvZ6xxXwPgTCF+F/XO0AutNSFhJDIqGwKY6hoYMsRGTaZA9Z4z6MH+5Eq9KtIcAjaQ8BYm5N40pj0VmNwCLjX70OG2zImBz+uuOUY+SV8Da39ilG6ofgE2eCkQ9cfV30MXayHgB7BKdYs+HoI9mh0yMCyeg9hMWQAsO/UY6NsDdZ4Z/VEvnkZ5/RG2TbNCT1FQeSekCNgbZa3ReoQqKro00irPksbYcnl0jwP5pQkOLbKM1KPiAdRHBSfyHPngOcM7OrLMbjEdZEPGpY0xgvtes8iOBzeLsVQR8rizgwTkHAQWNqMuwpYBMVhjfBIvXSCc+QMtnBRPMdgW2/KIYmePtKQp/epI2lH1y6wY7QlCaz3EHoNrjxg3chMEfYhK9IYo9yLKteanj02Iu+KXD8XsIqLquMIE/pjcYdln6z7LjxsPWP9x16mGgQVubY1+zk8neFYfN+QYc1YS/7Xpp8XSx2aUu31f9X2krbyZ2n0l/G21GKZWngxVo/70tIeoLfO+Ogv8i9pC5nMkkZ/gQdlX5S/xzI18ua09pfx76EZPfnfw0Juf5ke4fuj9AybDoHC2JiWEB1gnNvkrCtZILK3ojsVNTiP7PmxZn2RhytsIUs7B6B/ZP+nOCq76v6T4uKsH6UpCG3LDzgk2Yfj2zpa5A4hasmUHmGoAIJHC1dcgArDxWk6Bpn1n7ZErbWHeZXr8ejr/vDg9dhVn8gc4us6ulzZTfmR6IQgZUodwoCzBzS6G+qtjSDZyhH51mSce43nIgD9kQKYJJtjCOsKImU8QggcIZoDDJ18Sr3tAeFZBd7dMMp4hpTZdcr4E1L7Rl3eKkVbu0gPowI7nhDj5wO1uD3fJ6SOFhsDHEbbzAbnTwQsq0XCZ1gZMiSaMuVZGuDpkQK63TG6SvK2GmlDBzLXaISODz+hmqwnrZI0IMyUD4j5oaGRXDbUQaFpSGLaGmHDOEIhNA7Shu0BySboEGI5ct4FBZvH2BdGJZeNaUKZTCGX6Yi2C9Xj7YdLYti0pJsWPU9GGdxQA1o9AtCFwMNA09gnNDmpOKGQLLIpB6SS/+HfNoYYz1E4RCfVFsgObSHq8UCaQSr2IzX8IYsIMkyz0BqMnGUWCseAZKPkDY2yJmcnaeEpQFxp+AcRD02PNhKPI8Mo2h6QNzCUrcQTvoaCjWh3r/0Fv+17Q85kSJG3I9kEqr8TSY6b/lucFKI9r1H8i+kNf5ELwC7TdVfDjmcS67YtOeaD+vKUvDEmHYLDFY5oAMtmpVbYgFG2pqt8W8+RhIK52CzkIoyhUIzKhnEpPUkbH5WtkZ28zckaTmaqtZD7AdxjekIA47IhdSc9KDScaL8n2TTljPE1cj7ZyWmnnnIlt33JbGgkh7w1KjKFVw8fQuwqEHEaILCscLUw3sov5bDYHlDGFNUy9zAGR7ebI2e4IgesycHLOO5+8KE+rYYn6vAYKx5fxbp0I6xG42w3XrThM98J+grgC0LXnnrqcO3pp/gO/+svvXS4iQ+L/O63h5v27UGuzDM7fFEo1vDj7cEsk5CEWNiirxHbZ98xYFeITPnpEMRXfiHEq8BEAXUwHNi2sKhCYXhi4gqsV+EHZ6f6tF9ZqGOWi7AhViSUR8PrUg5kyMbK1Yj3uiJC0RHdKxfEG5xbj8mkooE5s08ZO9Y85vjHSkosk8YCLlsurcJyvDRIEQ97xLqM2oYwLh5Xn3jycOOtN/hqfH7LAl/Uwifx5NzX8EU5D8746PidP/9NHyH/698O97EsHe/BwBuu/vUdX07jGJxyrKvaVfsgfJfD7eBTfCf2/Q5+ectCvuPSMO0Q7n8mhBddoKGKQygNESchnq03tNpauEPAF36uPX2EQxC6K2VCI6Jd2HenAATbK8VYwMV58uhGSA8svqTMcuOT6eLE8FFUNkq8IJQhHISK92AZrCBcTXjv3uGAR5uxYu+uPrzEVYdYhYjlx1xtqPyO+OMCV/GVZhw/KQuPpZStvFsRIV5mKgVSbsgxMkSpe4CZGkNkBlUuoIojbBNBLlWxYp+9ATpZ6cnhFW1y3Pm8B1Z54jkLvB9CfgfKowD4t4Js1jtgYd8SvDfiQy98xwKf1buxwyHc+cvfdJk3nmOBUxDCytQRmvPXzxWW4cHhOr7J+bLaIYlDcEdwvEOAM7BGCsL6eZQiOoUlGrUsIxsVPipiJzQ+9kFHIE5h2iFIefAuPrWPRpDZ7oDjI8GymIlsOJgI8QESHEh+SBUhPn5yIldm0gnDvP4Csws7WOt/9sNtbfwgLOnFU4F4EAihEK9eKkDEHxeE/WvPPH04efll/ejqK0LPP9/0XrTHUMvT/bxZjdvElr3fJQr7oNoEimzRiFX7mYCgTyb7yLY4Ajw+zidGEUrjj+cTLmpYSq3njyhxarAsCA7jgi1D+K3UITwhjU4dwapDwEtu8D4LdwjSQ4AjYC8BoVw8lvaTAkX7QvyoDmy5UziXQ+AVeewQQOWgFqi6VquiOgS9uuGkZu9gwyHACfhwgQ4BPQQ4gtS+oLOdFIVQsU5Wfhz9MbULr59Ux4GTH/PtN6XML+v3C+0bhojnTknSRI3b5oNK6PrhSoUfma8iwwtShRBKXdFrcAH5STXel0d+1BvvvC30FkN8OUk/nVaJr0czRdzaj5GVcpGorAvEZIqkyjqI0EKux077W7bZE+OzFNIDw3sX7tyxiwkuKjinP+CVV9/2LOePhRVqyQ7ZAo3prBwiqL+XOXA6BGt86ClIuOYQ9M1TcAjf6PmCcwXDhjBkcKTnL+1r7wT2r5chg9l7VRyCnMtelnmHYI2wdwj35ORFF8wPZN8gO3UN+BkwOAPOITwlVzpzCOYUVh2COSeEwzmExPS4NBXUAfBg4sfEAUWX84zO4OYffi/0O4bYZ7cdn1DDtxUlXl431kFtq259LFi8/tfyQyP86it1cngVGd5xICG7hSIkpSgFRxma8rzx+uHWv//xcPPf/sDwxm/eFaeE7ym6g7qp5UFdVAO3DqvpLrQaFDN6erljbAN79KBXgMbD70z8qA+F6evl9H2TeM0cXlZbzl+E4fdbO38dC/sxAce9DBu0hxCHC3sdAnsHA4fgKOevgOcL6mD26xyC2jsRh+A9lswh5GeygYemHB9Eyg4N0qjtAtsHU/Oda457BcJAHmwS5k15Q1NuizayVldvmOiW6ivEpZEijh5LID6lyPSaV/hMB2Vx/KgbNpTaI5oBTEI46awsnJQ03Wpby6a2axlAJb+jrbyejsnz9J7W8kAjPX06CcNJHgccY+HDcSD5cdUQh5ChBsT2+atYcCHB9XnoG9t3LJK6fADngCbLVv9XUcodyr+UcR4NRlh1CA1EEXX1elEIodmDOcKiIXR2RmGNtBgkD8HGqbFWGHHkoQtmJxdPNDY07Gs8UusInFdPTqdyktrxU1Nm2IIUyKMMdEoIPbALvWwQaqvYM/vL8rXEMmXpCZV86h/nr+VFGqWDevnIu8gr5bHjYMTfzo8zjx+PZIO952/KHRNDPOPt03Qf25qjRWrTRqjnb4cm0XfG+hYOIRPx4zjSs0imQCUWlnH+2wZAxCmg2y0YsuvBGGQH+x0NwByw2J7K4uSSuF2B9ESzxu4nH+JGfpLqvjdUIed1nX15LFgFeN1BRd20WR1Bn1d5AiHfeChH2Uq9bOTjPkKPe75RTOvzIs3kRVrkxTJY3B1hyZNjxt+xQPY91qQLsB+oOX8CsFdJ/xjr+CxZxUNWx7WKYj/SFsgDXg1msNlDmNRTsVLQmrNSwphsbK7Ssxh6eiGmLhB/nAXHsKyWLkGxwauMnFhykukJiQaHfZx4RnQQSmyMnu6EEzWSKNerl1nkZgNkNoKOUhY0/mqXjcDyRuT8Zd8p1GNBwUaf7vGix/Yzyni2ZEALuaSs1TFYGp25EI43Dp0dSqLZEYBhAOaM8pHsRIgtiy0QMiJPxs80y1jkD8si6U1eVDCQMSwmFTGJ4bP59S6DzoIr6aQiZ7L7ST2gK2Tc46Ti03b//OnlpCJCvHev2tqYVKTpzn5TFvwvD0DgULiMlJ2HQxqpnGlsrCevvnI4wYz+20rYxx0GTuRZyGOxApSAtxkxY4yZY9xf/uc/eVzxwlR+u0DivMsQgWL4yYzGL3Hccrzx7jukm0KYZCx3GTixiLsMXh+1PUJzHLATmKflNjDSs6Vjt5xl8C4D3taE17zzTsOdw933P9BXxr///gGvrsfEdbllLWFZR9Odu0BWjjiJRwQ5nj9GiOOcH04q4lbgiy8K75l+W4NrEbAw6a868cx1CHq+NAuTLCwI56/b9Xg6qciyCNndhtW7DPMOQQ8mwtEBbffgEMJKRSEU0h3BtkP4h5RFbz1i5VlxBLCPsIHur/jo/KBK+fsfFAs7eM/fCAf4Khrfia9DCA0wgxWBJyjXH9g6hO+/tzsOQl/Ljy8h1yEApdixPOqgruO+Mm6FvvIKbyFdf+GFumLRQ/wekMkQk1eK3eAYGSCVCwosGlUOSr3AqBjseeE1bkZnd+/p+QvCV60/lfNXnHNz/kyevxHlnOtlyu8lv538XnQI0ujW7jL0DgFhXZi0dAjAov4oD2wG+6A1h+B3G6Ydgq9HaByCxOM6hEJbECtXn7KVilyLoOsQ9juEf4Qewg77PVDrTIxHQw8my/zE46W8CK8+8US7ShGLgoanpwGq8C5B3B8nYaUiFipJr+F7W6QkxO5uD/9xLX718ccOV595WpyqkIQ44XjrDOXhLbTxyskCqNt7yKwIR8kVGYkEeWmKHrk4YAiGYQKWK+N4CvFKizc+I5TeAXoOtLnn3Jk9ZvZ7wRnw94oOwdYj6CKhDYfgS5cHDmFYHrPPMgil6xCOdwjSENEI6WGlgX5RHcKuBmkW2EOw3oE6hBfFEfzuKIcAm00ZIkYHyxFrnPGFQ8IrrvUElHQlIG3LlUWvFLmxogUR+dHZ7bfxLcfitrbeKdolGgUasjdwokMDL1M5Bl4uQ6etAhmhyLH0QxkgyEWZDEVPtOVlk6A4A4IJFwMcQyGe1jzmEhcnjJ6CO2QOwYhJu6Uygi1+t18cAtYhaNfcG+LQIdAZ4NN4caVi4hDWyuP2Lbwgh6C9AzoF9hDgCLyR2pDBG4PTCEF7cQgcNvjSZXEIcAa9QzB7dAicO5hwCE1NDH3RZngC0AXVCSwL/WTiYTNl7SEcQIzIFbyUGXFe0ZXK15iBqM6SCMTpVFAeXP00TvAE0Gir4OcAqwTrrlFGym5JvBgUOxaGY83Qj/MMskO5Jo7fAU6Iv8fAIaBhYgg65RDQq/mOC61UvwYNYnnEptsGZUOG8zkEIW2gddhQ5xCkUcYTuUdX+HM7BBvCuEOgfQuJ7GA5wLKVD5AnMPJE0oeZSrecvLAr/6O6O0xV/JFA3IdzQQNH6Hlk1kDR7Gh5bMhSymNlwcaCMaK6jaI3OFZOwKsl6ym/Gx1a72SR3tXzWPgB8DL6OWKOYJdDWCvSSAV+W+sdSKQ+7WiNcJdDQM8ADkF6CfjmxSpQHthG3M8loWucAwsOwZ9lKOU5xiGwceYOgQcZhekPcqNVAYegzgBO4UneZeCQIXUIaq8OGaQ84gwQ520l2DNnxB88sbcffkBtI/+8k3Dr1uEKlikjxEw+TiohDVl5CKyDDUAIwwMPQzcWE2B0EECpS/iBCRkyyHABy6WvPPZYWT7NY+Gz5Rt3PB4JpL78UlOkWHfE4RQuBPZblJ/EHQKOjdKmEwfKb7CCRE3j3MUxtJOK0SHURto4BH5NWxwCHnhzhyDh2tOODp4tblv+EZYegtnzx5+9LOd3CBI/LXMIImAHeRNipTzcJL0Df5ahOASbRxg5BDoFGTKoQ6g9BHr+iwSPBg4oSNRjUtGcGCcWZV8ff66UnRg99Mm7MJbFLTFOJtqk4o94/NkahZeBgZaDG4nzcWxOKKJMNqmI3gsdFMqD4xELZHp+ctQywPlhDMznC/DRGcRxp4Wkj4AfMIdSMHFAtxBV8PwUYnCkbhzGGVH+XkI2bMA5H4cLaIB0BFsOwYcM4gwYxjmENbh9IdjH07B0CHQKYs96CPsdwvv1ikyH4A1U6Oz773hg1SkYrcEs4OTVhqWOYbdDMCeFhlOGKjvsExus9WBqHDP51194XjytHFiEsu+3+XjrEZOOW/YFuAriR+V3GBnal51xFbAfnROLZA4FRtxOLpZHjhvuXV9/8QX5kV/g4606fJCywEHhrgfKE1R0Oz8B7HhYAAfIL04JnfLOCt5PoO8o4Cy6hOwhESIUD+eo6JEnQ5QjrwlsyWVY6FqB/U4+bODTjtbwvBHOOYRv5Nywh5tAPmTYax89BBuenMBemEPIHMLk5VWPSNkiYsEqjK9ikSDY1FIQOVHvTRxjTvKp2w4s5w9u3qQT0xlb9bJcsPTqq3z8+OT117fpNeHnDyONWPTgPQtwkHxaUhxLcSqxfFYO/NXySE8Awxc8Ncof+2UpD8oi9LqXR+gNo9nyXShF20JynHBSXoMTe/ZZ7dlIT+sKh2ByMqJX444dh6HEL4iO8gICHn+NFvT7CfAzORgNCRPiAv7iDGNArClAnlC0T9j+mqgjdQgq2IqnyiQxNe40gGetsBDLfD9QioXtiK28SA5RGBsfrspccyAOAesP+LIUOalPcIW27hcWCHGxx5C0sbLhotsmPQ1c1XVNgzQKrHhkLwP2WQhsDCgDAiuPjE8xb4F3MGA+Bo3rRBzMiVxtTl6R8aHY0PIYbZbtYZHbVuKLXOAMpN5cO4Ee4mOP6XwMh1xdg2V9EepuivPkreneygdW8vh7ERLxeviuRcfg2bfgW8g504IZ8gtugadleS2GPYQoWuO5MTScQqM/O1IWFGQaAU9f5iOlpnIv2nfq/7I0/ysyptDS0JXDFRnLk3mHRBrg9RcxJkN3XRshumClAaZkjcQbhQw76lXyieoQxCOwLLAO00YoC/89AT0E9FhQHqxa5JucRLc5qFKe4gxiWX4q8jrbPpyh1B0z3nAInEvCXAheLmNDLlZPa2vU/QnD4g9pGcW/fj/+9XJbvPGvlzOqNWgRU5a5OZRP9VH/6M/tkx8wGd3ZhdUhQ6vQ9iSo6SsmkRVpFesMTa7s8Li7Yt1Zh7OYSKEUOLgIZINxGHsIckX2HsIL0qi9h8ArMrrsA5LGUIhd5hfLcIF3WtAocJcgnYewAkrAE83JHEIpD3odJMwg6yyy2jb7sTw/GXm9bR/HCscNPSOurhRHiDslpXdk3SP5HxLg4SyiXKQZZDKzsoDw7hVL+WIi4pFWUM5hRjxhG5tzCL2f4b4oH/ofJI+ymK4MKj9gTNDXZ7J+6yb6IqBeTJMN4zJksDkE7SFgyKA9hBPrISyvjoGkMXhchwzSKGzIUMbRN6Vh+JABYHlgn3ssQywPHBSurOgh8LkGDGFQFh/CDOz/tKSO0vfpENBDgDPEHRLrIXDI4JOgWlsLVzDBQqzxIW+Uv5YHrOU5hKeyzQhkUDluRyqQ3ufJPk6TMVwoZ0rvMtx9X2f1sTIQT4r5bcd7FjYLkyycARsV7jLg6hhuO97CXQa726B3GdwW7jJ8omVhmdqVirTvdxt6rB6UEaTRcXZWhgqY2ZcxO9afx7sg2MdVHRNiHEpIiKt2ilAsHLP7UjfeThK6//XXfG3avY8+Jt0V0nvNsK8yxQng3rYQy/P6a4ebf/z94RbpD4cb776tDUvoqoW6NsJw1HG4AJQiXOFdhftffNnQvc/wlCd+Z33SE7deK5LfM0PGdkx9oedYuR44b/Cb2e+G+ZJmVh/v5URvLt5lED48v3AbdxjsboPeZdBFSemzDClgF6bNvhAnwuGQ0YuUEM66luctoYnbjsUh8DafOQT50XDLsXcIbJQ8MNnRaVEcAu7nSzjtEJrydOsQaH/b9gzkp+QP6gcTDRBXOj76zNtGb7Eb7A2PL1u9gXcYbtmXRvHjD1yXjh+YhHdH4tYqj6uGuD1H2C8STywP8aPi5ao3+ZJVPP78Gn/Q5ulLL4/peWSw3wVrLXiCwxl+/c3hvsTvf/kV3yuJ8P5XX9eluQUX85v+1NDfTC8o+M18YRIcgTZAcQiYBPZGKk6BDkGcQHEIfLjpOIdQnQF2w7MMsAeHwPP53A6hNlDERwuTuG20KTzJ37asi5NmHIKEWIcQyyNxOoRmHYIZ6DAqD9AkuzwSywFVDnRzcRDZHUco+97wSgO0+q+Bz+jbQiTeixenysYhPQU+Bi1U78VrUZqygOTEwcQcb2GiO/7aq5zPwJCDXW84hTgfQSWPCOWQXGHd9X663lfXkxyvnzeSON6QnCE9spK4VjXKDBia5E75SC4mkaeTAwoPfychCdG0MDzSi4k0QGuIbJicCB44BO8h4FjBGeDYhaXLiyJ6eZDh54oRJ7HdIaBn4j2E4qDO5RBwJdOVikC2MCk5VqUCODgcLlgvoTiEP3QOwa+a6CF8XBcmuUPgwqRoOzNqWCtPCj8cFtKJYcyPOwMIZZ8NkIuApPFhQdCKfS/BGT7QYi/swGo9XBFP+Up2XZgDwss9AFqO5XASoJfFdzRgPA565hneGvXVkwxZIJfX4KeF2A/HBMuW4QjrNyl0deapLVY6++F7ruTMkB3amSo9TLlVHvut2KyEMNejV+MjHAJ7COIMuh7Caj3MrhNXKvrwBHYv2iEgxMnrjbE0TEN/sKLyulKx7SHcFIdwa8shsEwoT3zaUZR29jPE3KayGeLhkDjfP4BJMAx3EGIhERpdeOBpBv7lprqWX5yDLdvFgytcvisnBnm7MtRQynNLygMnhbLgOGIpNeYwcDcEIcgrvFnZhwX8JhYV8LkNcYZ8BwRCd4oMsXJT4vhNB+h/3dlq7frdDTO2VnnwOwlFh9A8OyANUYcL0jgzh/Anob/gU27flBWscAw+pNqsh9l1Yg/X7M04BDl7ttEWYr1IMXfJuS67gLBDwqnK15QZOPeURHQuEsc8AhuwnLToGen4Hz+SOC50d22ScJO+FcKPK86UenCVlAZB3WwMWrrOP1ewWLhfj/Lc154G9FhZtPvd2ez3fyr6p80XlH0pG+v+PXsGdAJ4nkPqzke4N34Z/+2cZnGsjGMkt8VT0wY120h0qciGeCq2AuffIzflEBRbP1tFVvgqXXPjNoIpsik5FkEQS1FjFwxzCrSHWWM5cXEScy0+PfagAXaED3YqoYEIP8bKGCKgm4yeARqGOwQx1jsD1PWBFIXlgDOgg5K0+14eOCiURwg9K9hI7feEiT2NR/51GdBYrqGvnVfJn9xTh2APNKGngAe+8JRj+kOmiefGjFY93i3ieQdkPC1iboivCy0wZl/P6XN9fyyl2OEQKraU9ugPJpClpdhrbIDdZYZTAEkPgWPgvgGaU4iNpCU4ASfZL41Cegh+pUQP4S6ukjKcSJxBAfyT+ijJkBx+nQg9FnFQKAfLIvqFSnnwnka+q9GpLY/HvdF6uSu/05qcyixJeGyilLwomxw3DDU5b8AegtQdQwk8yr7oFfn+3l9tCWio5Fv9m4Xz7pEBRtxZuqeN8tr0Ne6KXm5GatMh5ErWVLboDyL2asreQ6zYIxPtzcpFPh0yxAZYhwzeCJckDcHiaAzqDNBwRY49BLtSYuxcegjVan5U1EGhPHy3gDsoLwvLYySNsrWvjTIj54tU83O5ylvrmRH5WRaruztC6yGgHrxj1DiEvu56NCLNYA/vGpbn74zWyCNx7s7IVWR2NKVPb/czK1naCBsOQTqq0OYacXXyKGPrh6fPG/KuKWGmEE8aCwP55E1PSM/yRulOa3nSGo2ED1133F4i4b5zpEH+Qp/ac5s1jqo6jx8C31eKcmoDpHboxIy8PC3V9FrOXmYkV2VcrqeaF/K9rB019SBZfS3QqCUY2r1ZLKXEssVyjHKXZa6k6Yj6Pnc1xKbAMlaxZEBKnoqg5jQ8ZSekMtpwEfNDBpdtKgXI/iLN2ZfpVY+Fa2h4ZYN/PbIlZI7tR5LNKmUyINms8HnyKL+SbEK+7y7znZZpWuU2bUlRp5NsNmipO5Pr9co/Q4sMePo8313mR2Je/JNkCSrppqDdqyjsDUbcyMnzNLXLw64neZk7ko2FiOo+yeHRkLQA8lK+uuMslfCHiGwbYqKSBT76zDB2CCacwvJYT4QIZCcSMy0/8jbo9zOQBzqhw5SYfu5ZfESxTFu8TjP8DzPf89ZINpuUyfUkm6FcTIt0UfkND39XDUi6qWC6bAJFPQt9Dbl8TWrTRno6OUQ9Dyh8lTxfQ002QYrUxARpMoVVxqJDSmEZEsSpqBGWDiFT7LUKwR4s+KcVKKMeP9nYQeHBZpKmYX9Esmko4+lJNill+VEukmwWPDHNKcqs8fWUyfUkm02alcvyY1ok2Sx4YlqkKoddi5efFrGLQ9S2R3Pl1Vgt85Jk04Yigz8T1HAWzt6JqdZFcgsrA8Bh/yQmhgymLSqlMYtqMMRWfoPIzFl+Kd7VK1wA5K8HqysEbZ/Ldh8u8fHklf0RHSv3c6KszDN16OUyPQ3h9zTi4iousNq6ns0jOw9nzs2WB+ekkJc1qceijvZqO9SnhGXZvaktaK3NlLnZNyegjsiAJI84aUKK5UrFb/8VVgaCPuDnr/CxFjzchNBXKvL7eAgHD/cUxRbBl5uuP4WvDoWVin/Aswz+PMNveXvq/udf6oNUeCru0890hSKevPzwI4bx4aZ+peRFY+XYbXa/ziP7c8BPWnecyDb56GEkveoq68zPDfZNmJ6ROqqIemw1KFeEIs6CRCVYOIZyKiF+7Ql8l+F1PiXrxMfn+WIboRdf4KSrr1JEeJtLl/+pd2bsNvfWOxWZbDajfSxdRjvjqkiuVHzlcBMrFLFS0ZZST69UxLFwyqG5MJyRbJTAA17+W9ykfaMpgFQNDT164Rsn5VFjvHqLhCXFa+R8eFWXUUwjZXKBriDM5Hrq5FKejqh7hZDv5e6p0dXJkUJ+Jk/K5AIdXfcJOdZtIYNXyttr7uUE9aspeolcE0LgLJFzJZxjI3LeVQJfJxdJNoUXf3AA7JXyfLRX4aPcLH9OPNaxXtbLhUOhZ9OWrGYyeBE84uXqiGUGmyHGgT6vz3cMHcKWwhhugXwdcy1+l4GDZF64DAlwMPGoMRyCHPwreNPQY5GSH8NONP3RlBi3dFLIi8Qf0fdHvGt6ZvIk3tgJtLDd6WF+kl7I8ha6XcbkMttNeuBtqNMzzN9Ij/av3BLCG5TYcKTrbRcEfZTbHcJ+dO1GyfJmQX5s2DOw8xEvusVbn0IdSv0iIR31AtEh6BBCexriYErd+gbd/u1B4ZYI4r4/o2U4ZLhjQ4Y7eLjJhwx4wElCrLbzcdBWlz1q55ODNlzwIQOHCzJs8Meg+SKRr77mY8H3v/pGhg32gNMnnx7uffIZH4fGQp7G/uCEGR2AcWkVMwcOeFh6HqX9R2WbH2fFgis89IVvVyDOlYz4qI0QhokYSghWTreC9qzOsVeP9lDRkzFnwK62KCnnofFjI4SmhTdD3XjV3h712isSf4UPHPE9BaDnnmM9fahwmw83/VXO/2/SIcNWmdmcsf7D7OPxZz7cJEMGDh3CkOFmMmRYcQgfcOyOUJ92VOLjz3AIKBkOhDXMEaJ2vhgUr9CKDsGdAecSxCFgRaCv6gNhKSxeoiF0z0KeGDS7bjsCxZjjrGgOjEMSJ00W8BgkMltqFvaPsA1k9nfbBo61b2FErwaOQB+H/l5IH43m05AkfUKSTsGwVY72rM5BFSt6qg6N8OW4bMTP6vshpQdQz0ELyaqNkcdLnMcJHkHGq/fwbgJ82yO0ARCeBKVDsDkEPPnIFZ7eBoSw3NsxrDtM0q4SHYI/7QhnABKndA6HoD2F1iGgh1C//lwOSFLIVrM7BDkI4fFnOgQ4gz/8ng4B3pLLW/GZ9B9/pK1yYMxbHrBakD8ATCeGA1gEL4exrktU9gWO1dPJ9eiTZ+xv2QbIHpUlQrttAxP2C7tHBgKejN+az1/YcxKcVKODUCeBl8r070wY/vRic1iPgCKe6GmahUXx3Qu8ws4Jb5DWcz+0A9q2AogODC/wpTI979UR6HDi8cO1JzCkeFwa+4/qDJzEKbSTit81DgFI6w6zKLdR6hDQQ4AjePutcziEcpdhxSEE8IAk4AtSzBnwwyevvKw9g+AQWCl2G/H8/D19AAjr9kFYA48DwyLDruq9xC8fGCqWi469d6M8nyHh/X/+i72ErCVkp4Gegfl5qJBz12I9mvOXUU259dvf8By9aeEJ7hD4+d+3A5PjbcfHbELchhxwElcxD0E6ocOrDuHPQnaXAc7AhwydQ3D0tWgdwlm5y3AxDkGcwR2J3/9Uxu50CF/QOdRXqC0dwsgZAOoQ7MUepYcgjgAOAS8NlaED1hz4evoSYhyJ7iKenUd46RB+dUAD4G1lvHjWwvtfYh5J37kIqrfe2h8+Ow30LByfi0DmEhbnLxqWhY//r/95eOz//M/D4/9b6P/8L77CrraBqzYBCl4NGJH0+EYrTJT7pLmHaHN0BP/lDkF6CHhAjD2E7+gURg4BiPVQh4B2A4cQ5xAShyDOAEOHCYfwAXsG6hB0HYIOG+KkolTInAEPiEAVNeoa4LXjdAp42w/eJPPSi3ybMbztLbzV+He/qYWjylrRS/y6gaGCvxGLa06E7n2BOaMvyxxSey++PTfi3tZ5GNE0prAlijPQDZzA4//f/xH634cnJMRn6rgWh/No1h6mIUrNFHpBt/+ir05jiDcmSdoZHheXnhNC9JTHsFqgvHQINVSHYGsQikOwdQhvaS9h0yHACXBh0sIhKPlbl0vvAM6BaFRVWDJnaMvtmcc5w3rz3bf5KvGb9iZhLRz0ImA1L/HfADjv7n2M19F/wjdt484SZtr13Qp4jPobvrWqgKfG6PxYPw8LirhHWobSNBg8ODz2b3883Poffzw89u+gf+NLd7mSlk5hj0MQhdDJRit1lx7AnffeP9z5+/uHuwiF9FFxnUfDnBruuqxDbJsTcGcAuv7Cc9UZmEOow4WdDkFvPdaViu4U4mvY+yGDo1FKPJBxE+7H4vXlMqYSwqTMjTewikvojTeEXtM3B1PnXo97iV8y0Ov0uQN/3T+7zIEwr9Rj6wyxa3yD2CsYoUqhYWns5m/eOdz67bsSCkmocwhwBqIRDqFcGAOW5iUNOpXQ/DCHcPcfOkzSFbkf0xHwLou/h7KbUAWyWkRnALomDsGdARwDbnteuEOIk4qFVoHCCRsWZYhxDa/zrgO//4dXnONerYTIU526cKPVHYu6ZTPC5fbIZDhWz6O0f+wx63GsnpkyP+A7Jk85V4A5A+kZfP01LzyYr9LbkHgzM66Sx9a9x6we0WFqcMHiBcwIX/Lq5wPWYYpsfM9Ge3bGngCW6POTAwiF9J2T9w94XZ6vx1BslNv1CnFS0eYQ3CH4kOFoh4B4XZikTgEOAQ21cQojRPXdwcOs63Xen33hcGL3aOkQjIc2fKKmAPo2DkqKY+V6HKPnUdoGfu51l6vkj7r+5H5Yg8Lu8u3b+lZqhNIwFDNlgN0OfdLaeesI569/Ng/PICC89tQTcp7qqsM5hwBIQy0vjpFQGi3mRrjOBl+1svkSOgFODtrkeinHRpnBJ3LucPJJxb0OIdxyRJw9AzgFdOkkxCSHOwIehOGBRaEsCoAPB85C3Hrh14CFrj/zjN7XxUws86Efuk12iIyhqdIKNpUb1vSNdBwj02OrHmt6ziMbcdF1ByDX8ujCJEygSW/gB+0V8DsWePciQxkuhIVJ2+XvyjAq0vDcBUQoyPHbnvhQr4WYByvnNNoBCGhsJYbR5MwZ8O1SUj+8lZtv8Tbyu2l0Cta4WyTlBj/LXEm/y2DOAISFSUc5BPYO1CHopCJuPeJpx8+aOQRQ6Sk0QIEs6uhkMGy4+vgTevcBzyf4NwaYH/h/VkCl9pbpGJmfIx5ePfS9lXjXovQEbsu4Ge+bRHcZ3WZbxsyraoNRWboTrz8Pe6TnmAh1cjg/+X2OJ3DOCt28IbJwBKM2MIA1Vr+Ks+5YgPWDrtDkJKL3Cpy2K1H0RUIPYeEQzBH4XMIRDkE/yOnDhv1zCICYET78OT/vy2JxBiYabaGG6kOm6ZzS/VMhHqrZch0j83PEQ667XBHLmNlCX3fCNzOfSYir6rnhOvb+Fg/0ISU5R/VhJTlffb4LuhhM6mRjZURDqaMuxFPCJCJ5yOJXfd3dBHUroWlzYRK+Uu4OIQ4Z9jsEXY+QOQRUvnEKq3ATxsfA5NnVknjscjmK2i39PWBvS2aGp0dXj2mcR26vzAx+hnX3ExljZgs1DYFsGFHW49ErmK2LypVztMwbuLyEQ1WQTTJLUSTC+koDRp1Rf4QO1r1HTOt085ipM4DOOKlIx0CHgOcYsBZhl0MQZ2DzCJwBFUfgcwm4RVS79jgYw6MhyCoU+L3wFm/h+2v6M2zJRTt7dB9TnvPaAvbWfws/VT12ygiL9iBtn/D9JvEIxLI4ZnQGOUZxviLI9PVwngk71o60qmv8mV3jt3KxPRlhHULrEF5ddQjdJbkiM0t7Gi0GO3/SwfJcsLBWGcb8APCgIHTC/iitp4RnhFQupnVUgHjY567xLEhZNOIUoqkMKMkfIfJklAHJhcf3Y1okyyN8xxIYlU1KyqIRJwN3ZZORZNYzA0CagOeObJxmsSmzpcvyETAq5zsCICs/CXlOa2kdjRDrsFkPlA9xpxr0GCTPvFPRUGwsVcEp5IQ8F8Wf7ZOUZwkcnDUaIeHNDjwo411DpgO0Kud8Gi1UIwNEZqPertMWUpkRZbC8yEbyyAiSR3sareSRFUi2ni/qHFKyc2eTGpkRJXKFjIc68DeDUtkBDcBjY7ZiGTyt5I1oWT5PwZbUMyRYdQitfN2b0NvBJVYkeQKBEN8i2TSU8MxgISebnmawKoP9SIZehoT0QDPI9MwAbA3JZqgH8UgBQxkA+5EMvUyknve8mGkFmxAdUONUiimbBcX8jGST0QWDtWaxGWuwTKnY7CFA2CmqWlPaQjhdAWlLEgdni3okPGsHuuT1lGDIK1TyOozSgbW8Wf3AufN6SjClp8MxMlvQS2ClGUTePXI9KGvxAtRhVA/PG9FOeNl31AG9BeU1/iC3pWHdIYh08yk3gPuywX9MH2GG52EhtX3Mj2LhRWDqoE3gUR7XKSTH+Zi6ZzI/+7pfELJ6rtUdeec8v1Ydgv+k0bctzG0VMMP5yjyHY8qV4Vg9q3k7CrDGO8pC+jBvp+0R/5qa1byd9kc4xv4e28BQj4UPE8fUbw0ms3U5nJ9UFAyPJ9IzClgkRb4BNZMrHWX8DQUkSS3vgGgr+WvQyRQKyLK36lDqmmQ32GDIsl13nql0tG1QQJY9ZfsC7GdZrjvP7ChgkRT5BlTqkVDG31BAktTypgyW1KfL/ppTGDqEhVBQnNheReSflZXDZrEcW/mOY2wDa/pnbQNrnCM923WfwxbfMfZnbQNrvHuOYcRxUkvssX+MzWPr1yNqmdFYeBAZCUj6yClM9BASrSFpZNOxlZ9h/mDu1z6j++J4trHUMyMFzPLtw8Or1xIZz4zcTAkurowtLk7vnKYem3LIFnIuhulOjqFDQK9GI6BQDItot6ekBlCANCp8nr4uk0E5Vc73Isa6jpFZ4uLqoTIjjRmUr8r1mNXU8s3JALl+pCFnr559cspV5Xrstx9R9Y705OnrMhmUN1LEWJNa0b8GaXt0tHkjzvUegklF4awQ7fiISSSyGvXjplamykUeJdksqOa3Wa3OyBdJeZ22ZJAWqc3v5cnS8Whin9ZSJqfl6Wkpo9SWI/IZQ0dRTy17TK+8Sr3eKlflQZFHSTYLqvme1KfF/Z6KGlJbjpaXDB3FfCRFeewr9Tz9fiYXeZRks6Ca32a1+iLfiBoZSVqAihBqUJAybziERgY7ne6BToMLoKDKOShyh1bO91pUnix3iZ7faQstj0rNylU6Rs75l1KVJ8tdouWpkluySzkNZ+Qq1Zr0aPkifK+mRr5IW2h5quSsrHMr/zFyvtei8mS5S/T8ThtwZ1Ag+/o/xMYcQjwEXr0tgCdKtRjrWJdbRyvbYk3TvFzcm60DcIzciCtHK9tiXdN6eSp6rlwKqWO5XCZC5Xu+dTmVybm2JEf5rb6e61H/hs6ppH890FuIzoD7jPA/oN0DticVTVkjKmlekDUD7V7FshLbckgb6atY1zuPKjeyu1UH4Bi5XCZPb7GtN9OxVp6RjErlOY4sd6wvoufYspShlRjZPea3AI6RQ9pIX8V+vQ3QLoMjiECq5ngs58sdQs+bGaFO2ZS8lieRaFAP6l65lpbwVLUwohY1FVJjvhajOgBrso+i7mvw8iCclQEuuh417rE2pacWnnJc3XvOhyfX0hKaCv3bvIrIG9Huh70VZds9BEGUrweipuukBsJKzAyk3ZhlWpQBtTzIVyoMhVxHRqq31xX3K28kbHoZJS9Hz+O2eup54r6nRX5QyxPt9eQ6MlK9vS6nqrPlWaYxsdCanLEUWua7bKTIoxTTep41uUpalsgTGdqyVB6XixTznSdLizKgZb7b68l5MsIm6mJil9YTNhW+J9ZLvKaOseIQRLiTr0b2wYsUi7aNlhvxSL6dQT0o8zIqpRK91J56VMvzMj034pF8OwNoamUV6+VpZeblWvS8Ud8ePc6tEvNykHK5XmqPfec9RsaBvUh7UGXmJJ03lqH4i6giUTd0COB1IqKXCrnjg5Tn675TBpUZ5To0f0ZPzVdul9mSW0fVM8JSi6asyVWONaiGGT3rmqoO55uRinIjzGiZ1xM5VGJNzjlG+RXH6KkyY7leJsOsnqhLuVdkpH16b8Q5sFv4kVX3UkwNGaBClUCjUukG4cWX9i44J7wTjq+XZt6SPE/5eur5W91Kx+ipFOV63Uu5nqfmKW+bP28/8o5kWt1KNf8i9FTeGbmaN7YNijpAF6WnUpTrdbdyfb7yOClvzYu2R/Y9r/K2ci1/tOt0jJ5KUabR622ytMuwX9rwOuYcAvVBsYVuzAz6OMkJaS1J4eP75XdQrzvXP0O5/XXdKHef3+pZ5i9J676//r3ukf4t2tKTpWV1P+43vDg9eXqvez1P81tdbV5Gv6zzd2nD2vAEJnsIBjM2NlxJ+fRAVv725EBaTzF/9CMco6eGTrlcpIxnVi5STVu3HWXAh7SeXN4JaT3F/DU9fVqkOd0Pm8ePl9d5u+6Rxnrz9Ehqo9quaZWQ1lPL8/DOX9lskvPRxqRHmHcIbih2QxLygjceretRONUKV5JNpSjXU+Dbpaek+8GNaZW0OybxhJiXyRjFtNhFrOn1h3WZpdwKBb4ov1fPgteIv1/Cr9TWvbfd6jxWjx4b2VRyuZAWZTzNiWlrv2HH76T6YDvYL3JrZVaSTaVgb0GBb1pPSPNj1POWfa874my/ZbOK4WvY9buO9qGWz7+0785piK/L+OvXl69hl0JZjMjKMPMarbZYOY7VE8TsxdctTGZUApWQbSZqIbFhWzG2v4oLOIbU0OuhSPcbZtiyb3o2keoJcqkKkQliaUmk7mvWVabVo/iFn7+oN2QsvP7ss/xKNQjfprzxykt8Bbu/in37uwz4Vv37H6ozELr7wYf8Nv/9b/TbcwjxyS06AkH2XYbmkGbH5VEe0EYkdQcCkdH/FJQZ2G5lEiWd/RQPq+4dWPtMDYu9IkuZ89snhvUIsr2aTibVILbXrGsVctu/5PPXnQEKjuD6U08erj2j36K8/szTdAw34AzecnpjyyF8d7iDb9SLI0AIwodZTr/7gd+xR+8An5vyyrhj6EvW1wMFXDD1tQFSuR7H6mkZF79HJzM6pRY/Q7eb1x0IjL1tYCgXsW6bSPW0jJlYxNKyp2zYT21n2NADNKKJfYkuxDpzU79hYvtizt/c9n49wNJ+dv5SzAsv4dXHHjtcexLfTdVvUl5/7pnDzTfVEdx48w2Jvz7hED786HAXzoDhR/zwJr7Ci2/O4Uu1D07xWW4rjQTj66yXsAPZR1LAQK6H6cmg4okeYx9b32MbGNk3Jee0PywKxXMtKtPqiWikxgokGFqn3KgO2/YDuDPSUwrSwmRyKWBsu8Gqbdtmeh6lfWMfH/sgI01bv0WpdOXGzcP1p58SR/D64eYbr6tDeOO1DYcgvYC7H31yuPux0CefMs4PcN7HRzeFJOSERVOevHBNbRCdkgFMrilZhyK+Q8+U/WB0ZP9YPYV1JAMY88g2cG49JjchvlDQyIwUBJnUvuBYPYV1JAPssb9DT8M6IbdpG9ihZ0ouGEUUH1S+LmThtcefONx4/ZXDjddeLcSP1hoWDuHsx9uHe19iAvErCb9iSGeAr+/a13j7/tRE0RZYOwwXhUdp/6JsH6vnUdp/1HW/KPwS7fcy/CjttasSwilcPVy9detwgk/EY6IRoRCchWPhEDA/cF+GDZhcxPABoX6O225x+K2XBlnx1qrjOFauxzF6Zg/pFo7V83Ose4+Z8vzc6vFT2QZ+bnUHOrkrcAbCK44BzgHDg2uYaJShw7WnQE+q0zAsHQKGBXcwX6BzBpg/oAMwUnbQqEAjHCuT4Vg9vyT7I9vAMXr2ljkDdP2SjiFwkfZ/iXW/ohP/RugNXL1183CF8wo3SXF2cuEQmobvxHQNQuQSl7jELwLW4L3d0zlYzyE4A2DpEC5xiUv8t8W+ZxkucYlL/Kpx6RAucYlLFFw6hEtc4hIFlw7hEpe4hOFw+P8BLcaKFDdIe74AAAAASUVORK5CYII=;" vertex="1" parent="1">
          <mxGeometry x="860" width="109.16" height="110" as="geometry" />
        </mxCell>
        <mxCell id="NXNr_8BULZLECcc48SDQ-38" value="" style="endArrow=classic;html=1;rounded=0;" edge="1" parent="1">
          <mxGeometry width="50" height="50" relative="1" as="geometry">
            <mxPoint x="890" y="230" as="sourcePoint" />
            <mxPoint x="890" y="120" as="targetPoint" />
          </mxGeometry>
        </mxCell>
        <mxCell id="NXNr_8BULZLECcc48SDQ-39" value="" style="endArrow=classic;html=1;rounded=0;exitX=0.568;exitY=0;exitDx=0;exitDy=0;exitPerimeter=0;" edge="1" parent="1">
          <mxGeometry width="50" height="50" relative="1" as="geometry">
            <mxPoint x="950" y="120" as="sourcePoint" />
            <mxPoint x="950" y="230" as="targetPoint" />
          </mxGeometry>
        </mxCell>
        <mxCell id="NXNr_8BULZLECcc48SDQ-40" value="ome certificate manager" style="ellipse;whiteSpace=wrap;html=1;aspect=fixed;" vertex="1" parent="1">
          <mxGeometry x="850" y="240" width="150" height="150" as="geometry" />
        </mxCell>
        <mxCell id="NXNr_8BULZLECcc48SDQ-41" value="" style="ellipse;whiteSpace=wrap;html=1;aspect=fixed;" vertex="1" parent="1">
          <mxGeometry x="760" y="510" width="130" height="130" as="geometry" />
        </mxCell>
        <mxCell id="NXNr_8BULZLECcc48SDQ-42" value="generate/store" style="text;html=1;align=center;verticalAlign=middle;resizable=0;points=[];autosize=1;strokeColor=none;fillColor=none;" vertex="1" parent="1">
          <mxGeometry x="820" y="148" width="100" height="30" as="geometry" />
        </mxCell>
        <mxCell id="NXNr_8BULZLECcc48SDQ-43" value="retrieve" style="text;html=1;align=center;verticalAlign=middle;resizable=0;points=[];autosize=1;strokeColor=none;fillColor=none;" vertex="1" parent="1">
          <mxGeometry x="940" y="148" width="60" height="30" as="geometry" />
        </mxCell>
        <mxCell id="NXNr_8BULZLECcc48SDQ-44" value="ome appliance" style="text;html=1;strokeColor=none;fillColor=none;align=center;verticalAlign=middle;whiteSpace=wrap;rounded=0;" vertex="1" parent="1">
          <mxGeometry x="710" y="200" width="60" height="30" as="geometry" />
        </mxCell>
        <mxCell id="NXNr_8BULZLECcc48SDQ-45" value="" style="ellipse;whiteSpace=wrap;html=1;aspect=fixed;" vertex="1" parent="1">
          <mxGeometry x="1020" y="502.5" width="145" height="145" as="geometry" />
        </mxCell>
        <mxCell id="NXNr_8BULZLECcc48SDQ-46" value="service1" style="text;html=1;strokeColor=none;fillColor=none;align=center;verticalAlign=middle;whiteSpace=wrap;rounded=0;" vertex="1" parent="1">
          <mxGeometry x="795" y="550" width="60" height="30" as="geometry" />
        </mxCell>
        <mxCell id="NXNr_8BULZLECcc48SDQ-47" value="service2" style="text;html=1;strokeColor=none;fillColor=none;align=center;verticalAlign=middle;whiteSpace=wrap;rounded=0;" vertex="1" parent="1">
          <mxGeometry x="1062.5" y="545" width="60" height="30" as="geometry" />
        </mxCell>
        <mxCell id="NXNr_8BULZLECcc48SDQ-48" value="" style="endArrow=classic;html=1;rounded=0;exitX=0.5;exitY=0;exitDx=0;exitDy=0;" edge="1" parent="1" source="NXNr_8BULZLECcc48SDQ-41" target="NXNr_8BULZLECcc48SDQ-40">
          <mxGeometry width="50" height="50" relative="1" as="geometry">
            <mxPoint x="1260" y="420" as="sourcePoint" />
            <mxPoint x="1310" y="370" as="targetPoint" />
          </mxGeometry>
        </mxCell>
        <mxCell id="NXNr_8BULZLECcc48SDQ-49" value="" style="endArrow=classic;html=1;rounded=0;exitX=0.5;exitY=0;exitDx=0;exitDy=0;" edge="1" parent="1">
          <mxGeometry width="50" height="50" relative="1" as="geometry">
            <mxPoint x="921" y="390" as="sourcePoint" />
            <mxPoint x="855" y="518" as="targetPoint" />
          </mxGeometry>
        </mxCell>
        <mxCell id="NXNr_8BULZLECcc48SDQ-50" value="" style="endArrow=classic;html=1;rounded=0;entryX=0.685;entryY=0.969;entryDx=0;entryDy=0;entryPerimeter=0;" edge="1" parent="1" source="NXNr_8BULZLECcc48SDQ-45" target="NXNr_8BULZLECcc48SDQ-40">
          <mxGeometry width="50" height="50" relative="1" as="geometry">
            <mxPoint x="835" y="520" as="sourcePoint" />
            <mxPoint x="901" y="392" as="targetPoint" />
          </mxGeometry>
        </mxCell>
        <mxCell id="NXNr_8BULZLECcc48SDQ-51" value="" style="endArrow=classic;html=1;rounded=0;entryX=0.394;entryY=0.02;entryDx=0;entryDy=0;exitX=1;exitY=1;exitDx=0;exitDy=0;entryPerimeter=0;" edge="1" parent="1" source="NXNr_8BULZLECcc48SDQ-40" target="NXNr_8BULZLECcc48SDQ-45">
          <mxGeometry width="50" height="50" relative="1" as="geometry">
            <mxPoint x="963" y="395" as="sourcePoint" />
            <mxPoint x="1057" y="513" as="targetPoint" />
          </mxGeometry>
        </mxCell>
        <mxCell id="NXNr_8BULZLECcc48SDQ-52" value="" style="endArrow=classic;html=1;rounded=0;exitX=1.036;exitY=0.436;exitDx=0;exitDy=0;exitPerimeter=0;entryX=0.007;entryY=0.443;entryDx=0;entryDy=0;entryPerimeter=0;" edge="1" parent="1" source="NXNr_8BULZLECcc48SDQ-41" target="NXNr_8BULZLECcc48SDQ-45">
          <mxGeometry width="50" height="50" relative="1" as="geometry">
            <mxPoint x="1260" y="420" as="sourcePoint" />
            <mxPoint x="1310" y="370" as="targetPoint" />
          </mxGeometry>
        </mxCell>
        <mxCell id="NXNr_8BULZLECcc48SDQ-53" value="" style="endArrow=classic;html=1;rounded=0;entryX=1;entryY=0.692;entryDx=0;entryDy=0;entryPerimeter=0;exitX=0;exitY=0.653;exitDx=0;exitDy=0;exitPerimeter=0;" edge="1" parent="1" source="NXNr_8BULZLECcc48SDQ-45" target="NXNr_8BULZLECcc48SDQ-41">
          <mxGeometry width="50" height="50" relative="1" as="geometry">
            <mxPoint x="1020" y="590" as="sourcePoint" />
            <mxPoint x="899" y="570" as="targetPoint" />
          </mxGeometry>
        </mxCell>
        <mxCell id="NXNr_8BULZLECcc48SDQ-54" value="get certificate" style="text;html=1;strokeColor=none;fillColor=none;align=center;verticalAlign=middle;whiteSpace=wrap;rounded=0;" vertex="1" parent="1">
          <mxGeometry x="190" y="425" width="60" height="30" as="geometry" />
        </mxCell>
        <mxCell id="NXNr_8BULZLECcc48SDQ-55" value="get certificate" style="text;html=1;strokeColor=none;fillColor=none;align=center;verticalAlign=middle;whiteSpace=wrap;rounded=0;" vertex="1" parent="1">
          <mxGeometry x="350" y="455" width="60" height="30" as="geometry" />
        </mxCell>
        <mxCell id="NXNr_8BULZLECcc48SDQ-56" value="https communication" style="text;html=1;strokeColor=none;fillColor=none;align=center;verticalAlign=middle;whiteSpace=wrap;rounded=0;" vertex="1" parent="1">
          <mxGeometry x="310" y="550" width="60" height="30" as="geometry" />
        </mxCell>
        <mxCell id="NXNr_8BULZLECcc48SDQ-57" value="https communication" style="text;html=1;strokeColor=none;fillColor=none;align=center;verticalAlign=middle;whiteSpace=wrap;rounded=0;" vertex="1" parent="1">
          <mxGeometry x="299.16" y="600" width="60" height="30" as="geometry" />
        </mxCell>
        <mxCell id="NXNr_8BULZLECcc48SDQ-60" value="https communication" style="text;html=1;strokeColor=none;fillColor=none;align=center;verticalAlign=middle;whiteSpace=wrap;rounded=0;" vertex="1" parent="1">
          <mxGeometry x="920" y="545" width="60" height="30" as="geometry" />
        </mxCell>
        <mxCell id="NXNr_8BULZLECcc48SDQ-61" value="https communication" style="text;html=1;strokeColor=none;fillColor=none;align=center;verticalAlign=middle;whiteSpace=wrap;rounded=0;" vertex="1" parent="1">
          <mxGeometry x="930" y="590" width="60" height="30" as="geometry" />
        </mxCell>
        <mxCell id="NXNr_8BULZLECcc48SDQ-62" value="get certificate" style="text;html=1;strokeColor=none;fillColor=none;align=center;verticalAlign=middle;whiteSpace=wrap;rounded=0;" vertex="1" parent="1">
          <mxGeometry x="830" y="420" width="60" height="30" as="geometry" />
        </mxCell>
        <mxCell id="NXNr_8BULZLECcc48SDQ-63" value="get certificate" style="text;html=1;strokeColor=none;fillColor=none;align=center;verticalAlign=middle;whiteSpace=wrap;rounded=0;" vertex="1" parent="1">
          <mxGeometry x="960" y="420" width="60" height="30" as="geometry" />
        </mxCell>
        <mxCell id="NXNr_8BULZLECcc48SDQ-64" value="service-k" style="text;html=1;strokeColor=none;fillColor=none;align=center;verticalAlign=middle;whiteSpace=wrap;rounded=0;" vertex="1" parent="1">
          <mxGeometry x="500" y="1050" width="60" height="30" as="geometry" />
        </mxCell>
        <mxCell id="NXNr_8BULZLECcc48SDQ-66" value="" style="endArrow=classic;html=1;entryX=0.417;entryY=1.001;entryDx=0;entryDy=0;entryPerimeter=0;curved=1;" edge="1" parent="1" source="NXNr_8BULZLECcc48SDQ-6" target="NXNr_8BULZLECcc48SDQ-41">
          <mxGeometry width="50" height="50" relative="1" as="geometry">
            <mxPoint x="650" y="770" as="sourcePoint" />
            <mxPoint x="700" y="720" as="targetPoint" />
            <Array as="points">
              <mxPoint x="370" y="710" />
              <mxPoint x="550" y="750" />
            </Array>
          </mxGeometry>
        </mxCell>
        <mxCell id="NXNr_8BULZLECcc48SDQ-67" value="http communicatio" style="text;html=1;strokeColor=none;fillColor=none;align=center;verticalAlign=middle;whiteSpace=wrap;rounded=0;" vertex="1" parent="1">
          <mxGeometry x="640" y="700" width="60" height="30" as="geometry" />
        </mxCell>
        <mxCell id="NXNr_8BULZLECcc48SDQ-69" value="" style="endArrow=classic;html=1;curved=1;" edge="1" parent="1" source="NXNr_8BULZLECcc48SDQ-6" target="NXNr_8BULZLECcc48SDQ-18">
          <mxGeometry width="50" height="50" relative="1" as="geometry">
            <mxPoint x="650" y="770" as="sourcePoint" />
            <mxPoint x="700" y="720" as="targetPoint" />
            <Array as="points">
              <mxPoint x="270" y="760" />
              <mxPoint x="340" y="910" />
            </Array>
          </mxGeometry>
        </mxCell>
        <mxCell id="NXNr_8BULZLECcc48SDQ-70" value="http communicatio" style="text;html=1;strokeColor=none;fillColor=none;align=center;verticalAlign=middle;whiteSpace=wrap;rounded=0;" vertex="1" parent="1">
          <mxGeometry x="280" y="780" width="60" height="30" as="geometry" />
        </mxCell>
      </root>
    </mxGraphModel>
  </diagram>
</mxfile>
